<?xml version="1.0" encoding="utf-8"?>
<!-- Generator: Adobe Illustrator 25.4.1, SVG Export Plug-In . SVG Version: 6.00 Build 0)  -->
<svg version="1.1" id="Layer_1" xmlns="http://www.w3.org/2000/svg" xmlns:xlink="http://www.w3.org/1999/xlink" x="0px" y="0px"
	 viewBox="0 0 70 70" style="enable-background:new 0 0 70 70;" xml:space="preserve">
<style type="text/css">
	.st0{fill:none;stroke:#FFFFFF;stroke-width:3;stroke-miterlimit:10;}
</style>
<path class="st0" d="M30,47.2l-12.9-0.9c-0.8-0.1-1.4-0.9-1.4-1.8l0.4-5.8c0.1-1,0.8-1.7,1.6-1.6l13,0.9c0.8,0.1,1.4,0.9,1.4,1.8
	l-0.4,5.8C31.6,46.6,30.9,47.3,30,47.2z"/>
<g>
	<path class="st0" d="M60.2,21.1l-8.8-8.5c-1.1-1.1-2.6-1.7-4.2-1.7H22.7c-1.6,0-3.1,0.6-4.2,1.7l-8.7,8.5C8.7,22.2,8,23.8,8,25.4
		v27.8c0,3.3,2.7,6,6,6h42c3.3,0,6-2.7,6-6V25.4C62,23.8,61.3,22.2,60.2,21.1z"/>
	<line class="st0" x1="8" y1="22.8" x2="62" y2="22.8"/>
	<line class="st0" x1="35" y1="10.8" x2="35" y2="22.8"/>
</g>
</svg>
