<?xml version="1.0" encoding="utf-8"?>
<!-- Generator: Adobe Illustrator 25.4.1, SVG Export Plug-In . SVG Version: 6.00 Build 0)  -->
<svg version="1.1" id="Layer_1" xmlns="http://www.w3.org/2000/svg" xmlns:xlink="http://www.w3.org/1999/xlink" x="0px" y="0px"
	 viewBox="0 0 70 70" style="enable-background:new 0 0 70 70;" xml:space="preserve">
<style type="text/css">
	.st0{fill:none;stroke:#FFFFFF;stroke-width:2.5;stroke-linecap:round;stroke-linejoin:round;stroke-miterlimit:10;}
</style>
<g>
	<path class="st0" d="M15.4,27.8c9.9-3.7,29.3-3.5,39.2,0.1C51.6,20,44,14.5,35,14.5C26.1,14.5,18.5,20,15.4,27.8z"/>
	<path class="st0" d="M56,36.2c-11.6,2.2-14,13.1-14.3,19.3c2.9-0.9,5.3-2.3,7.5-4.2C53.2,47.7,55.6,42.4,56,36.2z"/>
	<path class="st0" d="M14,36.2c11.6,2.2,14,13.1,14.3,19.3c-2.9-0.9-5.3-2.3-7.5-4.2C16.8,47.7,14.4,42.4,14,36.2z"/>
</g>
<path class="st0" d="M62,35.1c-1.4,35.8-52.6,35.8-54,0c0-14.9,12.1-27,27-27S62,20.2,62,35.1z"/>
</svg>
