<svg width="139" height="37" viewBox="0 0 139 37" fill="none" xmlns="http://www.w3.org/2000/svg">
<path d="M25.1821 9.9403C24.8876 9.7194 24.7403 9.42488 24.6667 9.05672C24.2249 3.97612 19.9542 0 14.7264 0C9.49851 0 5.22786 3.97612 4.78607 9.13035C4.78607 9.49851 4.56517 9.79304 4.27065 10.0139C1.69353 11.7811 0 14.8 0 18.1871C0 22.8259 3.16617 26.7284 7.43682 27.8328C8.17313 28.0537 8.90945 28.1274 9.20398 27.9801C9.7194 27.6856 10.3821 25.1821 10.0876 24.6667C9.9403 24.3721 9.20398 24.0776 8.46766 23.9303C5.96418 23.2677 4.12338 20.9851 4.12338 18.2607C4.12338 16.7144 4.71244 15.3891 5.66965 14.2846C6.11144 13.8428 6.62687 13.401 7.14229 13.1065C8.24677 12.5174 8.83582 11.3393 8.83582 10.0876C8.83582 9.42488 8.90945 8.83582 9.13035 8.24677C9.86667 5.89055 12.1493 4.19701 14.7264 4.19701C17.3035 4.19701 19.5861 5.89055 20.3224 8.24677C20.5433 8.83582 20.6169 9.42488 20.6169 10.0876C20.6169 11.3393 21.2796 12.4438 22.3104 13.1065C22.8995 13.401 23.3413 13.8428 23.7831 14.2846C24.7403 15.3154 25.3294 16.7144 25.3294 18.2607C25.3294 21.5005 22.6786 24.1512 19.4388 24.1512C15.6836 24.1512 12.6647 27.2438 12.6647 30.999V34.9015C12.6647 35.6378 12.7383 36.4478 12.9592 36.6687C13.401 37.1104 15.9781 37.1104 16.4199 36.6687C16.6408 36.4478 16.7144 35.7114 16.7144 34.9015V30.9254C16.7144 29.4527 17.8925 28.2746 19.3652 28.2746C24.8876 28.2746 29.3791 23.7831 29.3791 18.2607C29.4527 14.8 27.7592 11.7811 25.1821 9.9403Z" fill="#292929"/>
<path d="M69.4352 26.1395H66.4163V25.1087C65.4591 26.0659 64.281 26.5077 62.8083 26.5077C61.4093 26.5077 60.3049 26.0659 59.4949 25.1823C58.685 24.2987 58.2432 23.1206 58.2432 21.7216V14.7266H61.2621V21.1325C61.2621 21.9425 61.483 22.6052 61.9248 23.1206C62.3665 23.636 62.882 23.8569 63.6183 23.8569C65.5327 23.8569 66.4899 22.5315 66.4899 19.8808V14.8002H69.5088V26.1395H69.4352Z" fill="#292929"/>
<path d="M89.388 15.6086C90.2716 16.4922 90.7134 17.5966 90.7134 18.9956V26.2116H87.6945V19.6583C87.6945 18.922 87.4736 18.333 87.0318 17.8175C86.59 17.3757 86.0746 17.1548 85.4119 17.1548C84.602 17.1548 83.9393 17.4494 83.4239 18.0384C82.9821 18.6275 82.6876 19.5111 82.6876 20.6892V26.2116H79.6686V19.6583C79.6686 18.922 79.4478 18.333 79.006 17.8175C78.5642 17.3757 78.0487 17.1548 77.3861 17.1548C76.5761 17.1548 75.9134 17.4494 75.4716 18.0384C75.0298 18.6275 74.8089 19.5111 74.8089 20.6892V26.2116H71.79V14.6514H74.8089V15.6086C75.6925 14.725 76.797 14.2832 78.2696 14.2832C79.9632 14.2832 81.2149 14.9459 82.0249 16.1976C83.0557 14.9459 84.4547 14.2832 86.2219 14.2832C87.4736 14.2832 88.5045 14.725 89.388 15.6086Z" fill="#292929"/>
<path d="M102.349 25.6227C101.318 26.2117 100.287 26.5062 99.33 26.5062C97.931 26.5062 96.8265 26.1381 96.0165 25.3281C95.2066 24.5918 94.8384 23.4137 94.8384 21.8674V17.0814H92.335V14.5779H94.8384V11.1172H97.8573V14.5779H101.613V17.0814H97.8573V21.6465C97.8573 22.9719 98.4464 23.6346 99.5509 23.6346C100.14 23.6346 100.803 23.4137 101.465 23.0455L102.349 25.6227Z" fill="#292929"/>
<path d="M112.361 14.5795L112.214 17.5248H111.551C108.827 17.5248 107.428 19.1447 107.428 22.4581V26.1397H104.409V14.6531H107.428V16.7884C108.459 15.3158 109.858 14.5059 111.551 14.5059C111.92 14.5059 112.214 14.5059 112.361 14.5795Z" fill="#292929"/>
<path d="M124.952 21.206H116.19C116.337 22.0159 116.705 22.6786 117.221 23.1204C117.736 23.6358 118.399 23.8567 119.061 23.8567C120.387 23.8567 121.344 23.3413 121.933 22.3104L124.657 22.8995C124.142 24.0776 123.406 24.9612 122.449 25.5502C121.491 26.1393 120.313 26.4338 119.061 26.4338C117.368 26.4338 115.969 25.8448 114.864 24.7403C113.76 23.6358 113.171 22.1632 113.171 20.3224C113.171 18.5552 113.76 17.0826 114.864 15.9045C116.043 14.7264 117.442 14.2109 119.135 14.2109C120.681 14.2109 122.08 14.7264 123.185 15.8308C124.289 16.9353 124.878 18.3343 124.952 20.1015V21.206V21.206ZM117.368 17.5244C116.852 17.8925 116.484 18.408 116.263 19.0706H121.859C121.639 18.3343 121.344 17.8189 120.829 17.4507C120.313 17.0826 119.798 16.9353 119.135 16.9353C118.472 16.9353 117.883 17.1562 117.368 17.5244Z" fill="#292929"/>
<path d="M138.428 21.206H129.665C129.813 22.0159 130.181 22.6786 130.696 23.1204C131.212 23.6358 131.874 23.8567 132.537 23.8567C133.862 23.8567 134.82 23.3413 135.409 22.3104L138.133 22.8995C137.618 24.0776 136.881 24.9612 135.924 25.5502C134.967 26.1393 133.789 26.4338 132.537 26.4338C130.843 26.4338 129.444 25.8448 128.34 24.7403C127.236 23.6358 126.646 22.1632 126.646 20.3224C126.646 18.5552 127.236 17.0826 128.34 15.9045C129.518 14.7264 130.917 14.2109 132.611 14.2109C134.157 14.2109 135.556 14.7264 136.66 15.8308C137.765 16.9353 138.354 18.3343 138.428 20.1015V21.206V21.206ZM130.843 17.5244C130.328 17.8925 129.96 18.408 129.739 19.0706H135.335C135.114 18.3343 134.82 17.8189 134.304 17.4507C133.789 17.0826 133.273 16.9353 132.611 16.9353C131.948 16.9353 131.359 17.1562 130.843 17.5244Z" fill="#292929"/>
<path d="M47.5667 17.155V20.0266H52.7209C52.4264 21.1311 51.911 22.0147 51.101 22.6774C50.2911 23.3401 49.2602 23.6346 48.0821 23.6346C46.6095 23.6346 45.4314 23.1192 44.4005 22.162C43.4433 21.2047 42.9279 19.953 42.9279 18.4804C42.9279 17.0077 43.3697 15.8296 44.3269 14.7988C45.2841 13.8416 46.4622 13.3261 47.8612 13.3261C49.8493 13.3261 51.3219 14.0625 52.2791 15.6087L54.8562 13.9152C54.2672 12.958 53.5309 12.148 52.5 11.559C51.1747 10.749 49.6284 10.3809 47.9349 10.3809C45.6523 10.3809 43.7378 11.1908 42.1916 12.7371C40.6453 14.2833 39.7617 16.1978 39.7617 18.4067C39.7617 20.6893 40.5717 22.6037 42.1179 24.15C43.7378 25.6963 45.6523 26.5062 47.9349 26.5062C50.2174 26.5062 52.0582 25.7699 53.5309 24.2236C55.0035 22.6774 55.7398 20.7629 55.7398 18.4804C55.7398 18.1122 55.7398 17.6704 55.6662 17.155H47.5667V17.155Z" fill="#292929"/>
</svg>
