<svg width="27" height="27" viewBox="0 0 27 27" fill="none" xmlns="http://www.w3.org/2000/svg">
<path d="M13.6751 2.40245C17.2397 2.40245 17.6618 2.41808 19.0637 2.48062C20.3666 2.53794 21.0701 2.75682 21.5391 2.93922C22.1593 3.17895 22.6074 3.47078 23.0713 3.9346C23.5403 4.40362 23.8269 4.84659 24.0666 5.46674C24.249 5.93577 24.4679 6.64452 24.5252 7.94215C24.5878 9.34923 24.6034 9.77135 24.6034 13.3307C24.6034 16.8953 24.5878 17.3174 24.5252 18.7193C24.4679 20.0221 24.249 20.7257 24.0666 21.1947C23.8269 21.8149 23.5351 22.263 23.0713 22.7269C22.6022 23.1959 22.1593 23.4825 21.5391 23.7222C21.0701 23.9046 20.3613 24.1235 19.0637 24.1808C17.6566 24.2434 17.2345 24.259 13.6751 24.259C10.1105 24.259 9.68842 24.2434 8.28656 24.1808C6.98371 24.1235 6.28018 23.9046 5.81115 23.7222C5.191 23.4825 4.74282 23.1907 4.279 22.7269C3.80998 22.2578 3.52335 21.8149 3.28363 21.1947C3.10123 20.7257 2.88235 20.0169 2.82503 18.7193C2.76249 17.3122 2.74686 16.8901 2.74686 13.3307C2.74686 9.76614 2.76249 9.34402 2.82503 7.94215C2.88235 6.63931 3.10123 5.93577 3.28363 5.46674C3.52335 4.84659 3.81519 4.39841 4.279 3.9346C4.74803 3.46557 5.191 3.17895 5.81115 2.93922C6.28018 2.75682 6.98893 2.53794 8.28656 2.48062C9.68842 2.41808 10.1105 2.40245 13.6751 2.40245ZM13.6751 0C10.0532 0 9.59983 0.0156342 8.17712 0.0781708C6.75962 0.140707 5.78509 0.370008 4.94085 0.698326C4.06013 1.04228 3.3149 1.49567 2.57488 2.2409C1.82965 2.98091 1.37626 3.72614 1.03231 4.60165C0.703993 5.45111 0.474692 6.42043 0.412155 7.83792C0.349619 9.26584 0.333984 9.71924 0.333984 13.3411C0.333984 16.9631 0.349619 17.4165 0.412155 18.8392C0.474692 20.2567 0.703993 21.2312 1.03231 22.0754C1.37626 22.9562 1.82965 23.7014 2.57488 24.4414C3.3149 25.1814 4.06013 25.64 4.93564 25.9788C5.78509 26.3071 6.75441 26.5364 8.17191 26.5989C9.59462 26.6615 10.048 26.6771 13.6699 26.6771C17.2918 26.6771 17.7452 26.6615 19.1679 26.5989C20.5854 26.5364 21.56 26.3071 22.4042 25.9788C23.2797 25.64 24.0249 25.1814 24.765 24.4414C25.505 23.7014 25.9636 22.9562 26.3023 22.0806C26.6306 21.2312 26.8599 20.2619 26.9225 18.8444C26.985 17.4217 27.0006 16.9683 27.0006 13.3464C27.0006 9.72445 26.985 9.27106 26.9225 7.84835C26.8599 6.43085 26.6306 5.45632 26.3023 4.61208C25.974 3.72614 25.5206 2.98091 24.7754 2.2409C24.0354 1.50088 23.2901 1.04228 22.4146 0.703537C21.5652 0.37522 20.5959 0.145919 19.1784 0.0833822C17.7504 0.0156342 17.297 0 13.6751 0Z" fill="#292929"/>
<path d="M13.6752 6.48828C9.89177 6.48828 6.82227 9.55779 6.82227 13.3413C6.82227 17.1247 9.89177 20.1942 13.6752 20.1942C17.4587 20.1942 20.5282 17.1247 20.5282 13.3413C20.5282 9.55779 17.4587 6.48828 13.6752 6.48828ZM13.6752 17.7866C11.2207 17.7866 9.22993 15.7958 9.22993 13.3413C9.22993 10.8867 11.2207 8.89594 13.6752 8.89594C16.1298 8.89594 18.1206 10.8867 18.1206 13.3413C18.1206 15.7958 16.1298 17.7866 13.6752 17.7866Z" fill="#292929"/>
<path d="M22.399 6.21709C22.399 7.10302 21.6798 7.81698 20.7991 7.81698C19.9132 7.81698 19.1992 7.09781 19.1992 6.21709C19.1992 5.33115 19.9184 4.61719 20.7991 4.61719C21.6798 4.61719 22.399 5.33636 22.399 6.21709Z" fill="#292929"/>
</svg>
