<svg width="27" height="27" viewBox="0 0 27 27" fill="none" xmlns="http://www.w3.org/2000/svg">
<path d="M24.6981 0H1.96852C1.44644 0 0.945735 0.207397 0.576566 0.576566C0.207397 0.945735 0 1.44644 0 1.96852V24.6981C0 25.2202 0.207397 25.7209 0.576566 26.0901C0.945735 26.4593 1.44644 26.6667 1.96852 26.6667H24.6981C25.2202 26.6667 25.7209 26.4593 26.0901 26.0901C26.4593 25.7209 26.6667 25.2202 26.6667 24.6981V1.96852C26.6667 1.44644 26.4593 0.945735 26.0901 0.576566C25.7209 0.207397 25.2202 0 24.6981 0ZM7.94815 22.7167H3.93889V9.98148H7.94815V22.7167ZM5.94074 8.21667C5.48596 8.21411 5.04213 8.07688 4.66526 7.82232C4.28839 7.56775 3.99538 7.20726 3.8232 6.78632C3.65102 6.36539 3.60739 5.90288 3.69781 5.45717C3.78824 5.01146 4.00867 4.60253 4.33128 4.28198C4.6539 3.96143 5.06424 3.74363 5.51052 3.65607C5.9568 3.5685 6.41901 3.6151 6.83884 3.78998C7.25866 3.96486 7.61727 4.26019 7.86941 4.63868C8.12154 5.01717 8.25591 5.46188 8.25556 5.91667C8.25985 6.22115 8.20279 6.52338 8.08779 6.80534C7.97279 7.0873 7.8022 7.34322 7.58619 7.55785C7.37018 7.77248 7.11316 7.94142 6.83047 8.05461C6.54778 8.1678 6.24519 8.22291 5.94074 8.21667ZM22.7259 22.7278H18.7185V15.7704C18.7185 13.7185 17.8463 13.0852 16.7204 13.0852C15.5315 13.0852 14.3648 13.9815 14.3648 15.8222V22.7278H10.3556V9.99074H14.2111V11.7556H14.263C14.65 10.9722 16.0056 9.63333 18.0741 9.63333C20.3111 9.63333 22.7278 10.9611 22.7278 14.85L22.7259 22.7278Z" fill="#292929"/>
</svg>
