<svg width="28" height="23" viewBox="0 0 28 23" fill="none" xmlns="http://www.w3.org/2000/svg">
<path d="M9.0541 22.336C19.117 22.336 24.621 13.999 24.621 6.76909C24.621 6.53229 24.621 6.29656 24.605 6.06189C25.6758 5.28739 26.6001 4.32843 27.3346 3.22989C26.3362 3.67256 25.2769 3.96273 24.1922 4.09069C25.3344 3.40701 26.1893 2.33156 26.5976 1.06456C25.5236 1.7019 24.3487 2.15103 23.1234 2.39256C22.2985 1.51542 21.2075 0.934602 20.0193 0.739983C18.831 0.545364 17.6118 0.747794 16.5502 1.31595C15.4885 1.8841 14.6438 2.7863 14.1466 3.88294C13.6494 4.97958 13.5275 6.20952 13.7997 7.38242C11.6245 7.27331 9.49659 6.70801 7.55403 5.72323C5.61147 4.73844 3.89771 3.35618 2.52397 1.66616C1.82433 2.8706 1.61005 4.29641 1.92475 5.65329C2.23944 7.01017 3.05946 8.1961 4.21784 8.96962C3.34712 8.94411 2.49535 8.70922 1.73464 8.28482V8.35416C1.73498 9.61732 2.17225 10.8415 2.97227 11.819C3.77229 12.7965 4.88581 13.4672 6.12397 13.7174C5.3185 13.9371 4.47338 13.9692 3.65357 13.8112C4.00332 14.8983 4.684 15.8488 5.60046 16.53C6.51691 17.2113 7.62333 17.5891 8.76504 17.6107C7.63068 18.5023 6.33165 19.1616 4.94227 19.5507C3.5529 19.9398 2.10043 20.0512 0.667969 19.8784C3.17001 21.484 6.08122 22.3357 9.0541 22.3318" fill="#292929"/>
</svg>
