<svg width="121" height="22" viewBox="0 0 121 22" fill="none" xmlns="http://www.w3.org/2000/svg">
<path d="M109.974 17.7802C106.361 17.7802 103.544 15.2282 103.544 10.9972C103.544 6.87812 106.206 4.18058 109.974 4.18058C113.951 4.18058 116.581 7.12437 116.581 11.0308C116.623 11.9236 116.481 12.8156 116.165 13.65C115.848 14.4845 115.364 15.2431 114.743 15.8778C114.121 16.5125 113.377 17.0094 112.556 17.3369C111.735 17.6644 110.856 17.8154 109.974 17.7802ZM86.4191 21.5635H98.8925V17.5675H90.8273V0.430894H86.4081V21.5635H86.4191ZM74.9179 13.7955C74.2778 13.8226 73.639 13.7144 73.0424 13.4779C72.4457 13.2413 71.9041 12.8816 71.4521 12.4216C71.0001 11.9615 70.6475 11.4112 70.4168 10.8056C70.1861 10.2001 70.0823 9.55249 70.1119 8.90407C70.0889 8.25735 70.1973 7.61274 70.4304 7.01022C70.6635 6.40771 71.0163 5.86014 71.4669 5.4015C71.9176 4.94285 72.4564 4.58291 73.0501 4.34401C73.6437 4.1051 74.2795 3.99233 74.9179 4.01269C77.7352 4.01269 79.8012 5.9379 79.8012 8.90407C79.8012 11.8814 77.7352 13.7955 74.9179 13.7955ZM65.7037 21.5747H70.123V14.0081C70.6712 15.1609 71.5361 16.129 72.614 16.7961C73.6918 17.4632 74.9368 17.801 76.1995 17.769C80.5525 17.769 84.1984 14.1313 84.1984 8.90407C84.1984 3.67689 80.5525 0.00555613 76.1885 0.00555613C73.5258 0.00555613 71.3272 1.34873 70.1119 3.76644V0.408508H65.6927V21.5635L65.7037 21.5747ZM52.6889 17.8586C49.0099 17.8586 46.1373 15.1722 46.1373 11.0643C46.1373 6.92289 49.0099 4.12462 52.6889 4.12462C56.368 4.12462 59.1742 6.92289 59.1742 11.0643C59.1742 15.1834 56.368 17.8586 52.6889 17.8586ZM52.7221 22C59.0306 22 63.6266 17.5563 63.6266 11.0643C63.6266 4.58353 59.0306 0.0167492 52.7221 0.0167492C46.4025 0.0167492 41.7291 4.58353 41.7291 11.0643C41.7291 17.5563 46.4025 22 52.7221 22ZM29.0347 17.8586C25.3667 17.8586 22.5163 15.1722 22.5163 11.0643C22.5163 6.92289 25.3667 4.12462 29.0347 4.12462C32.7138 4.12462 35.5531 6.92289 35.5531 11.0643C35.5531 15.1834 32.7138 17.8586 29.0347 17.8586ZM29.0678 22C35.3764 22 39.9724 17.5563 39.9724 11.0643C39.9724 4.58353 35.3874 0.0167492 29.0678 0.0167492C22.7593 0.0167492 18.0749 4.58353 18.0749 11.0643C18.0749 17.5563 22.7593 22 29.0678 22ZM0 21.5635H17.1247V17.5675H4.73968C4.85016 14.4223 7.0819 13.5828 9.6009 12.7097C13.07 11.5121 17.0695 9.97861 17.0695 2.02031V0.430894H0.055241V4.39325H12.385C12.2746 7.35942 10.0981 8.14294 7.63431 8.98242C4.15413 10.1913 0.0110482 11.7135 0.0110482 19.9517V21.5635H0ZM109.178 21.9888C110.66 22.0375 112.127 21.6845 113.428 20.9662C114.729 20.2479 115.818 19.1905 116.581 17.9033V21.5635H121V0.430894H116.581V4.05746C115.815 2.77486 114.726 1.72286 113.424 1.01044C112.123 0.29802 110.657 -0.0489208 109.178 0.00555613C103.654 0.00555613 99.1024 4.59473 99.1024 10.9972C99.1024 17.3996 103.665 21.9888 109.178 21.9888Z" fill="#292929"/>
</svg>
