<?xml version="1.0" encoding="utf-8"?>
<!-- Generator: Adobe Illustrator 25.4.1, SVG Export Plug-In . SVG Version: 6.00 Build 0)  -->
<svg version="1.1" id="Layer_1" xmlns="http://www.w3.org/2000/svg" xmlns:xlink="http://www.w3.org/1999/xlink" x="0px" y="0px"
	 viewBox="0 0 1649 901" style="enable-background:new 0 0 1649 901;" xml:space="preserve">
<style type="text/css">
	.st0{opacity:0.1;fill:#7B61FF;enable-background:new    ;}
	.st1{opacity:0.4;fill:#41A5DD;enable-background:new    ;}
	.st2{opacity:0.1;fill:#41A5DD;enable-background:new    ;}
</style>
<path class="st0" d="M432,1h-72v900h72V1z"/>
<path class="st0" d="M528,1h-72v900h72V1z"/>
<path class="st0" d="M624,1h-72v900h72V1z"/>
<path class="st0" d="M720,1h-72v900h72V1z"/>
<path class="st0" d="M816,1h-72v900h72V1z"/>
<path class="st0" d="M912,1h-72v900h72V1z"/>
<path class="st0" d="M1008,1h-72v900h72V1z"/>
<path class="st0" d="M1104,1h-72v900h72V1z"/>
<path class="st0" d="M1200,1h-72v900h72V1z"/>
<path class="st0" d="M1296,1h-72v900h72V1z"/>
<path class="st0" d="M1392,1h-72v900h72V1z"/>
<path class="st0" d="M1488,1h-72v900h72V1z"/>
<path class="st1" d="M300,1H0v900h300V1z"/>
<path class="st2" d="M1648,1H300v56h1348V1z"/>
</svg>
