<?xml version="1.0" encoding="utf-8"?>
<!-- Generator: Adobe Illustrator 25.4.1, SVG Export Plug-In . SVG Version: 6.00 Build 0)  -->
<svg version="1.1" id="Layer_1" xmlns="http://www.w3.org/2000/svg" xmlns:xlink="http://www.w3.org/1999/xlink" x="0px" y="0px"
	 viewBox="0 0 1440 900" style="enable-background:new 0 0 1440 900;" xml:space="preserve">
<style type="text/css">
	.st0{opacity:0.4;fill:#41A5DD;enable-background:new    ;}
	.st1{opacity:0.1;fill:#7B61FF;enable-background:new    ;}
	.st2{opacity:0.1;fill:#41A5DD;enable-background:new    ;}
</style>
<path class="st0" d="M80,0H0v900h80V0z"/>
<path class="st1" d="M264,0h-72v900h72V0z"/>
<path class="st1" d="M360,0h-72v900h72V0z"/>
<path class="st1" d="M456,0h-72v900h72V0z"/>
<path class="st1" d="M552,0h-72v900h72V0z"/>
<path class="st1" d="M648,0h-72v900h72V0z"/>
<path class="st1" d="M744,0h-72v900h72V0z"/>
<path class="st1" d="M840,0h-72v900h72V0z"/>
<path class="st1" d="M936,0h-72v900h72V0z"/>
<path class="st1" d="M1032,0h-72v900h72V0z"/>
<path class="st1" d="M1128,0h-72v900h72V0z"/>
<path class="st1" d="M1224,0h-72v900h72V0z"/>
<path class="st1" d="M1320,0h-72v900h72V0z"/>
<path class="st2" d="M1440,0H80v56h1360V0z"/>
</svg>
