<?xml version="1.0" standalone="no"?>
<!DOCTYPE svg PUBLIC "-//W3C//DTD SVG 1.1//EN" "http://www.w3.org/Graphics/SVG/1.1/DTD/svg11.dtd" >
<svg xmlns="http://www.w3.org/2000/svg">
<metadata>Generated by IcoMoon</metadata>
<defs>
<font id="icomoon" horiz-adv-x="1024">
<font-face units-per-em="1024" ascent="960" descent="-64" />
<missing-glyph horiz-adv-x="1024" />
<glyph unicode="&#x20;" horiz-adv-x="512" d="" />
<glyph unicode="&#xe900;" glyph-name="Action-Add-and-remove-1" d="M375.954 611.84h397.897c7.314 0 14.629 5.851 14.629 14.629 0 7.314-5.851 14.629-14.629 14.629h-397.897c-7.314 0-14.629-5.851-14.629-14.629 1.463-8.777 7.314-14.629 14.629-14.629zM892.343 521.143h-397.897c-7.314 0-14.629-5.851-14.629-14.629 0-7.314 5.851-14.629 14.629-14.629h397.897c7.314 0 14.629 5.851 14.629 14.629s-5.851 14.629-14.629 14.629zM773.851 402.651h-397.897c-7.314 0-14.629-5.851-14.629-14.629s5.851-14.629 14.629-14.629h397.897c7.314 0 14.629 5.851 14.629 14.629s-5.851 14.629-14.629 14.629zM773.851 284.16h-397.897c-7.314 0-14.629-5.851-14.629-14.629 0-7.314 5.851-14.629 14.629-14.629h397.897c7.314 0 14.629 5.851 14.629 14.629s-5.851 14.629-14.629 14.629zM232.594 557.714h-36.571v36.571c0 7.314-5.851 14.629-14.629 14.629s-14.629-5.851-14.629-14.629v-36.571h-35.109c-7.314 0-14.629-5.851-14.629-14.629s5.851-14.629 14.629-14.629h36.571v-36.571c0-7.314 5.851-14.629 14.629-14.629s14.629 5.851 14.629 14.629v36.571h36.571c7.314 0 14.629 5.851 14.629 14.629s-8.777 14.629-16.091 14.629zM232.594 314.88h-100.937c-7.314 0-14.629-5.851-14.629-14.629 0-7.314 5.851-14.629 14.629-14.629h100.937c7.314 0 14.629 5.851 14.629 14.629s-7.314 14.629-14.629 14.629z" />
<glyph unicode="&#xe901;" glyph-name="Action-Add-and-remove" d="M879.177 812.251c0 0 0 1.463 0 0 0 1.463-1.463 1.463-1.463 1.463-17.554 17.554-42.423 29.257-70.217 29.257h-590.994c-55.589 0-99.474-43.886-99.474-99.474v-592.457c0-27.794 11.703-51.2 29.257-70.217 0 0 0 0 0-1.463 0 0 1.463 0 1.463-1.463 17.554-17.554 40.96-27.794 67.291-27.794h592.457c54.126 0 99.474 43.886 99.474 99.474v593.92c0 26.331-10.24 51.2-27.794 68.754zM144.823 152.503v590.994c0 39.497 32.183 70.217 70.217 70.217h592.457c14.629 0 27.794-4.389 39.497-11.703l-689.006-690.469c-8.777 11.703-13.166 24.869-13.166 40.96zM879.177 152.503c0-39.497-32.183-70.217-70.217-70.217h-592.457c-14.629 0-26.331 4.389-38.034 11.703l689.006 689.006c7.314-10.24 11.703-23.406 11.703-38.034v-592.457zM446.171 617.691h-73.143v73.143c0 7.314-5.851 14.629-14.629 14.629-7.314 0-14.629-5.851-14.629-14.629v-73.143h-74.606c-7.314 0-14.629-5.851-14.629-14.629 0-7.314 5.851-14.629 14.629-14.629h74.606v-73.143c0-7.314 5.851-14.629 14.629-14.629 7.314 0 14.629 5.851 14.629 14.629v73.143h73.143c7.314 0 14.629 5.851 14.629 14.629-1.463 7.314-7.314 14.629-14.629 14.629zM756.297 306.103h-177.006c-7.314 0-14.629-5.851-14.629-14.629s5.851-14.629 14.629-14.629h177.006c7.314 0 14.629 5.851 14.629 14.629s-7.314 14.629-14.629 14.629z" />
<glyph unicode="&#xe902;" glyph-name="Action-Copy" d="M807.497 712.777h-32.183v20.48c0 58.514-49.737 106.789-106.789 106.789h-444.709c-58.514 0-106.789-49.737-106.789-106.789v-444.709c0-58.514 49.737-106.789 106.789-106.789h24.869v-29.257c0-54.126 43.886-99.474 99.474-99.474h460.8c54.126 0 99.474 43.886 99.474 99.474v462.263c-1.463 54.126-45.349 98.011-100.937 98.011zM248.686 211.017h-23.406c-42.423 0-78.994 36.571-78.994 78.994v444.709c0 42.423 36.571 78.994 78.994 78.994h444.709c42.423 0 78.994-36.571 78.994-78.994v-20.48h-402.286c-54.126 0-99.474-43.886-99.474-99.474v-403.749zM879.177 152.503c0-39.497-32.183-70.217-70.217-70.217h-462.263c-39.497 0-70.217 32.183-70.217 70.217v462.263c0 39.497 32.183 70.217 70.217 70.217h460.8c39.497 0 70.217-32.183 70.217-70.217v-462.263z" />
<glyph unicode="&#xe903;" glyph-name="Action-Save" d="M323.291 53.029c-8.777 0-17.554 2.926-26.331 7.314-17.554 10.24-27.794 29.257-27.794 51.2v630.491c0 55.589 42.423 100.937 93.623 100.937h296.96c51.2 0 93.623-45.349 93.623-100.937v-630.491c1.463-20.48-8.777-39.497-26.331-51.2-16.091-10.24-33.646-10.24-49.737-1.463l-155.063 80.457c-5.851 2.926-14.629 2.926-20.48 0l-155.063-80.457c-7.314-4.389-16.091-5.851-23.406-5.851zM362.789 815.177c-35.109 0-64.366-32.183-64.366-73.143v-630.491c0-11.703 4.389-21.943 13.166-26.331 7.314-4.389 14.629-4.389 21.943 0l155.063 80.457c16.091 7.314 33.646 7.314 46.811 0l155.063-80.457c0 0 0 0 0 0 7.314-4.389 14.629-2.926 21.943 0 8.777 5.851 13.166 14.629 13.166 26.331v630.491c0 40.96-29.257 73.143-64.366 73.143h-298.423z" />
<glyph unicode="&#xe904;" glyph-name="Action-Split" d="M277.943 556.251h-103.863c-32.183 0-57.051-24.869-57.051-57.051v-103.863c0-32.183 24.869-57.051 57.051-57.051h103.863c32.183 0 57.051 24.869 57.051 57.051v103.863c-1.463 32.183-24.869 57.051-57.051 57.051zM305.737 395.337c0-16.091-11.703-27.794-27.794-27.794h-103.863c-16.091 0-27.794 11.703-27.794 27.794v103.863c0 16.091 11.703 27.794 27.794 27.794h103.863c16.091 0 27.794-11.703 27.794-27.794v-103.863zM703.634 625.006h188.709c7.314 0 14.629 5.851 14.629 14.629 0 7.314-5.851 14.629-14.629 14.629h-188.709c-7.314 0-14.629-5.851-14.629-14.629s7.314-14.629 14.629-14.629zM889.417 524.069h-188.709c-7.314 0-14.629-5.851-14.629-14.629 0-7.314 5.851-14.629 14.629-14.629h188.709c7.314 0 14.629 5.851 14.629 14.629s-5.851 14.629-14.629 14.629zM889.417 396.8h-188.709c-7.314 0-14.629-5.851-14.629-14.629s5.851-14.629 14.629-14.629h188.709c7.314 0 14.629 5.851 14.629 14.629s-5.851 14.629-14.629 14.629zM889.417 270.994h-188.709c-7.314 0-14.629-5.851-14.629-14.629s5.851-14.629 14.629-14.629h188.709c7.314 0 14.629 5.851 14.629 14.629s-5.851 14.629-14.629 14.629zM586.606 453.851c0 1.463-1.463 2.926-2.926 4.389l-52.663 52.663c-5.851 5.851-14.629 5.851-20.48 0s-5.851-14.629 0-20.48l27.794-27.794h-93.623c-7.314 0-14.629-5.851-14.629-14.629s5.851-14.629 14.629-14.629h93.623l-26.331-27.794c-5.851-5.851-5.851-14.629 0-20.48 2.926-2.926 5.851-4.389 10.24-4.389 2.926 0 7.314 1.463 10.24 4.389l52.663 52.663c1.463 1.463 2.926 2.926 2.926 4.389 0 4.389 0 7.314-1.463 11.703z" />
<glyph unicode="&#xe905;" glyph-name="Action-Swipe" d="M892.343 63.269c-7.314 0-14.629 5.851-14.629 14.629v46.811c0 95.086-77.531 174.080-174.080 174.080h-73.143c-33.646 0-59.977 27.794-59.977 59.977v166.766c0 45.349-38.034 83.383-83.383 83.383s-83.383-38.034-83.383-83.383v-449.097c0-7.314-5.851-14.629-14.629-14.629s-14.629 5.851-14.629 14.629v449.097c0 61.44 49.737 111.177 111.177 111.177s111.177-49.737 111.177-111.177v-168.229c0-17.554 14.629-32.183 32.183-32.183h73.143c111.177 0 201.874-90.697 201.874-201.874v-46.811c2.926-7.314-2.926-13.166-11.703-13.166zM822.126 679.131c-2.926 0-5.851 1.463-8.777 2.926-332.069 272.091-659.749 11.703-672.914 0-5.851-4.389-14.629-4.389-20.48 1.463-4.389 5.851-4.389 14.629 1.463 20.48 2.926 2.926 358.4 288.183 709.486 0 5.851-4.389 7.314-13.166 1.463-20.48-1.463-2.926-5.851-4.389-10.24-4.389z" />
<glyph unicode="&#xe906;" glyph-name="Action-Tap" d="M624.64 328.046h-76.069c-19.017 0-35.109 16.091-35.109 35.109v102.4c55.589 38.034 89.234 100.937 89.234 169.691 0 54.126-20.48 106.789-58.514 146.286-39.497 39.497-92.16 61.44-149.211 61.44-114.103 0-207.726-93.623-207.726-207.726 0-68.754 35.109-133.12 92.16-172.617v-394.971c0-7.314 5.851-14.629 14.629-14.629 7.314 0 14.629 5.851 14.629 14.629v472.503c0 49.737 39.497 89.234 89.234 89.234s89.234-39.497 89.234-89.234v-62.903c-1.463-2.926-1.463-7.314 0-11.703v-102.4c0-35.109 29.257-62.903 62.903-62.903h76.069c100.937 0 182.857-81.92 182.857-182.857v-49.737c0-7.314 5.851-14.629 14.629-14.629s14.629 5.851 14.629 14.629v49.737c-1.463 115.566-96.549 210.651-213.577 210.651zM396.434 657.189c-64.366 0-117.029-52.663-117.029-117.029v-40.96c-39.497 33.646-62.903 83.383-62.903 136.046 0 99.474 80.457 178.469 178.469 178.469 48.274 0 95.086-19.017 128.731-54.126 33.646-33.646 51.2-77.531 51.2-125.806 0-52.663-21.943-100.937-59.977-134.583v38.034c-1.463 67.291-54.126 119.954-118.491 119.954z" />
<glyph unicode="&#xe907;" glyph-name="Action-Trash" d="M841.143 753.737h-194.56v24.869c0 35.109-29.257 64.366-64.366 64.366h-155.063c-35.109 0-64.366-29.257-64.366-64.366v-24.869h-178.469c-8.777 0-17.554-7.314-17.554-17.554s7.314-17.554 17.554-17.554h35.109v-541.257c0-67.291 52.663-124.343 118.491-125.806h352.549c64.366 0 118.491 57.051 118.491 125.806v541.257h33.646c8.777 0 17.554 7.314 17.554 17.554s-10.24 17.554-19.017 17.554zM397.897 778.606c0 16.091 13.166 30.72 30.72 30.72h155.063c16.091 0 30.72-13.166 30.72-30.72v-24.869h-216.503v24.869zM772.389 178.834c0-51.2-38.034-92.16-84.846-92.16h-351.086c-46.811 1.463-84.846 42.423-84.846 92.16v541.257h520.777v-541.257zM431.543 152.503c8.777 0 17.554 7.314 17.554 17.554v459.337c0 8.777-7.314 17.554-17.554 17.554-8.777 0-17.554-7.314-17.554-17.554v-459.337c0-10.24 7.314-17.554 17.554-17.554zM593.92 152.503c8.777 0 17.554 7.314 17.554 17.554v459.337c0 8.777-7.314 17.554-17.554 17.554s-17.554-7.314-17.554-17.554v-459.337c1.463-10.24 8.777-17.554 17.554-17.554z" />
<glyph unicode="&#xe908;" glyph-name="Arrow-Down-with-stem" d="M832.366 393.874c-7.314 7.314-19.017 7.314-26.331 0l-273.554-276.48v706.56c0 10.24-8.777 19.017-19.017 19.017s-19.017-8.777-19.017-19.017v-706.56l-276.48 276.48c-7.314 7.314-19.017 7.314-26.331 0s-7.314-19.017 0-26.331l308.663-308.663c1.463-1.463 4.389-2.926 5.851-4.389 2.926-1.463 4.389-1.463 7.314-1.463 0 0 0 0 0 0 2.926 0 4.389 0 7.314 1.463s4.389 2.926 5.851 4.389c0 0 0 0 0 0l307.2 308.663c5.851 7.314 5.851 19.017-1.463 26.331z" />
<glyph unicode="&#xe909;" glyph-name="Box-Archive" d="M904.046 629.394c0 0 0 0 0 0 0 4.389-1.463 7.314-4.389 10.24-1.463 4.389-4.389 8.777-7.314 11.703 0 0 0 1.463-1.463 1.463l-112.64 108.251c-20.48 19.017-43.886 27.794-68.754 27.794h-393.509c-24.869 0-49.737-10.24-67.291-27.794l-114.103-108.251c-11.703-11.703-17.554-26.331-17.554-42.423v-30.72c0-20.48 10.24-38.034 26.331-48.274v-326.217c0-54.126 43.886-99.474 99.474-99.474h538.331c54.126 0 99.474 43.886 99.474 99.474v326.217c16.091 10.24 26.331 27.794 26.331 48.274v30.72c0 7.314-1.463 13.166-2.926 19.017zM267.703 740.571c13.166 13.166 30.72 20.48 48.274 20.48h393.509c19.017 0 35.109-7.314 49.737-20.48l100.937-96.549h-694.857l102.4 96.549zM851.383 206.629c0-39.497-32.183-70.217-70.217-70.217h-538.331c-39.497 0-70.217 32.183-70.217 70.217v317.44c0 0 1.463 0 1.463 0h677.303c0 0 1.463 0 1.463 0v-317.44zM879.177 579.657c0-16.091-11.703-27.794-27.794-27.794h-677.303c-16.091 0-27.794 11.703-27.794 27.794v30.72c0 1.463 0 2.926 0 4.389h731.429c0-1.463 0-2.926 0-4.389v-30.72zM582.217 458.24h-140.434c-32.183 0-57.051-24.869-57.051-58.514 0-32.183 24.869-57.051 57.051-57.051h140.434c30.72 0 57.051 24.869 57.051 58.514 0 32.183-24.869 57.051-57.051 57.051zM582.217 371.931h-140.434c-16.091 0-27.794 11.703-27.794 29.257 0 16.091 11.703 27.794 27.794 27.794h140.434c16.091 0 27.794-11.703 27.794-29.257 1.463-14.629-11.703-27.794-27.794-27.794z" />
<glyph unicode="&#xe90a;" glyph-name="Box-Fragile-box" d="M892.343 633.783v0 0c-4.389 7.314-10.24 14.629-16.091 20.48l-124.343 119.954c-17.554 17.554-42.423 27.794-68.754 27.794h-345.234c-26.331 0-51.2-10.24-68.754-27.794l-122.88-119.954c-5.851-5.851-10.24-13.166-14.629-20.48v0 0c-8.777-14.629-14.629-33.646-14.629-49.737v-392.046c0-54.126 43.886-99.474 99.474-99.474h592.457c54.126 0 99.474 43.886 99.474 99.474v392.046c-1.463 17.554-7.314 35.109-16.091 49.737zM526.629 774.217h157.989c19.017 0 36.571-7.314 49.737-20.48l124.343-119.954h-332.069v140.434zM289.646 755.2c13.166 13.166 30.72 20.48 49.737 20.48h157.989v-138.971h-330.606l122.88 118.491zM879.177 192c0-39.497-32.183-70.217-70.217-70.217h-592.457c-39.497 0-70.217 32.183-70.217 70.217v392.046c0 7.314 1.463 14.629 4.389 21.943h725.577c2.926-7.314 4.389-14.629 4.389-21.943v-392.046zM729.966 502.126c-2.926 4.389-7.314 8.777-13.166 8.777 0 0 0 0 0 0-4.389 0-7.314-1.463-10.24-4.389l-61.44-61.44c-5.851-5.851-5.851-14.629 0-20.48 2.926-2.926 5.851-4.389 10.24-4.389 2.926 0 7.314 1.463 10.24 4.389l39.497 39.497v-119.954c0-7.314 5.851-14.629 14.629-14.629s14.629 5.851 14.629 14.629v117.029l38.034-36.571c5.851-5.851 14.629-5.851 20.48 0s5.851 14.629 0 20.48l-62.903 57.051zM529.554 506.514c0 0 0 0 0 0v0c0 0-1.463 0-1.463 1.463-1.463 1.463-1.463 1.463-2.926 1.463s-2.926 1.463-4.389 1.463c0 0 0 0-1.463 0 0 0 0 0 0 0-1.463 0-4.389 0-5.851-1.463-1.463 0-2.926-1.463-4.389-2.926l-61.44-61.44c-5.851-5.851-5.851-14.629 0-20.48 2.926-2.926 5.851-4.389 10.24-4.389s7.314 1.463 10.24 4.389l38.034 38.034v-118.491c0-7.314 5.851-14.629 14.629-14.629 7.314 0 14.629 5.851 14.629 14.629v118.491l39.497-38.034c5.851-5.851 14.629-5.851 20.48 0s5.851 14.629 0 20.48l-65.829 61.44z" />
<glyph unicode="&#xe90b;" glyph-name="Box-Open-box" d="M904.046 510.903l-33.646 102.4c0 0 0 0 0 0s0 1.463-1.463 1.463c0 1.463-1.463 1.463-1.463 2.926 0 0 0 0 0 1.463l-146.286 136.046c-11.703 10.24-24.869 14.629-39.497 14.629h-337.92c0 0 0 0-1.463 0 0 0 0 0 0 0s-1.463 0-1.463 0c-14.629 0-27.794-5.851-36.571-16.091l-141.897-133.12c-4.389-1.463-7.314-4.389-8.777-8.777l-33.646-100.937c-5.851-17.554-4.389-36.571 7.314-52.663 5.851-8.777 14.629-16.091 24.869-20.48v-209.189c0-57.051 46.811-103.863 103.863-103.863h513.463c57.051 0 103.863 46.811 103.863 103.863v210.651c8.777 4.389 17.554 10.24 24.869 19.017 8.777 16.091 11.703 35.109 5.851 52.663zM702.171 733.257l117.029-109.714h-462.263v117.029h326.217c5.851 0 13.166-2.926 19.017-7.314zM324.754 733.257c1.463 1.463 1.463 1.463 2.926 2.926v-112.64h-119.954l117.029 109.714zM768 155.429h-513.463c-40.96 0-73.143 33.646-73.143 73.143v206.263h206.263v-77.531c0-8.777 4.389-17.554 11.703-23.406s17.554-7.314 27.794-4.389l84.846 24.869c0 0 0 0 0 0s0 0 0 0l86.309-24.869c2.926-1.463 5.851-1.463 8.777-1.463 7.314 0 13.166 1.463 19.017 5.851 7.314 5.851 11.703 14.629 11.703 23.406v77.531h203.337v-206.263c0-40.96-32.183-73.143-73.143-73.143zM608.549 434.834v-77.531c0 0-1.463-1.463-1.463 0l-84.846 24.869c-5.851 2.926-13.166 2.926-19.017 0l-84.846-24.869c-1.463 0-1.463 0-1.463 0v77.531h191.634zM871.863 475.794c-5.851-7.314-13.166-11.703-23.406-11.703h-672.914c-8.777 0-19.017 4.389-23.406 13.166-5.851 7.314-5.851 16.091-2.926 24.869l30.72 92.16h667.063l30.72-90.697c1.463-10.24 0-20.48-5.851-27.794z" />
<glyph unicode="&#xe90c;" glyph-name="Box-Plain-with-divide" d="M892.343 633.783v0 0c-4.389 7.314-10.24 14.629-16.091 20.48l-124.343 119.954c-17.554 17.554-42.423 27.794-68.754 27.794h-345.234c-26.331 0-51.2-10.24-68.754-27.794l-122.88-119.954c-5.851-5.851-10.24-13.166-14.629-20.48v0 0c-8.777-14.629-14.629-33.646-14.629-49.737v-392.046c0-54.126 43.886-99.474 99.474-99.474h592.457c54.126 0 99.474 43.886 99.474 99.474v392.046c-1.463 17.554-7.314 35.109-16.091 49.737zM526.629 774.217h157.989c19.017 0 36.571-7.314 49.737-20.48l124.343-119.954h-332.069v140.434zM289.646 755.2c13.166 13.166 30.72 20.48 49.737 20.48h157.989v-138.971h-330.606l122.88 118.491zM879.177 192c0-39.497-32.183-70.217-70.217-70.217h-592.457c-39.497 0-70.217 32.183-70.217 70.217v392.046c0 7.314 1.463 14.629 4.389 21.943h725.577c2.926-7.314 4.389-14.629 4.389-21.943v-392.046z" />
<glyph unicode="&#xe90d;" glyph-name="Box-Plain-with-label" d="M452.023 420.206l-182.857 13.166c-8.777 1.463-17.554-1.463-23.406-7.314-8.777-5.851-13.166-16.091-14.629-29.257l-5.851-83.383c0-20.48 13.166-36.571 32.183-39.497l181.394-13.166c1.463 0 2.926 0 2.926 0 7.314 0 14.629 2.926 21.943 7.314 8.777 5.851 13.166 16.091 14.629 27.794l5.851 83.383c1.463 21.943-13.166 39.497-32.183 40.96zM452.023 300.251c0-4.389-1.463-7.314-4.389-8.777-1.463-1.463-2.926-1.463-4.389-1.463l-181.394 13.166c-2.926 0-7.314 5.851-7.314 10.24l5.851 81.92c0 4.389 1.463 7.314 4.389 8.777 1.463 1.463 1.463 1.463 2.926 1.463 0 0 0 0 1.463 0l182.857-13.166c2.926 0 7.314-5.851 7.314-10.24l-7.314-81.92zM892.343 633.783v0 0c-4.389 7.314-10.24 14.629-16.091 20.48l-124.343 119.954c-17.554 17.554-42.423 27.794-68.754 27.794h-345.234c-26.331 0-51.2-10.24-68.754-27.794l-122.88-119.954c-5.851-5.851-10.24-13.166-14.629-20.48v0 0c-8.777-14.629-14.629-33.646-14.629-49.737v-392.046c0-54.126 43.886-99.474 99.474-99.474h592.457c54.126 0 99.474 43.886 99.474 99.474v392.046c-1.463 17.554-7.314 35.109-16.091 49.737zM732.891 755.2l124.343-119.954h-330.606v138.971h157.989c19.017 0 36.571-7.314 48.274-19.017zM289.646 755.2c13.166 13.166 30.72 20.48 49.737 20.48h157.989v-138.971h-330.606l122.88 118.491zM879.177 192c0-39.497-32.183-70.217-70.217-70.217h-592.457c-39.497 0-70.217 32.183-70.217 70.217v392.046c0 7.314 1.463 14.629 4.389 21.943h725.577c2.926-7.314 4.389-14.629 4.389-21.943v-392.046z" />
<glyph unicode="&#xe90e;" glyph-name="Box-Same-day-delivery" d="M851.383 428.983v168.229c0 24.869-10.24 51.2-27.794 67.291l-115.566 111.177c-17.554 17.554-40.96 26.331-64.366 26.331h-318.903c-23.406 0-45.349-8.777-64.366-26.331l-114.103-112.64c-17.554-16.091-29.257-40.96-29.257-67.291v-364.251c0-51.2 42.423-93.623 93.623-93.623h374.491c33.646-27.794 77.531-45.349 125.806-45.349 108.251 0 197.486 89.234 197.486 197.486-1.463 55.589-21.943 102.4-57.051 138.971zM498.834 772.754h144.823c17.554 0 33.646-7.314 45.349-19.017l115.566-111.177h-305.737v130.194zM279.406 753.737c13.166 13.166 29.257 19.017 45.349 19.017h146.286v-130.194h-305.737l114.103 111.177zM210.651 168.594c-35.109 0-64.366 29.257-64.366 64.366v364.251c0 5.851 1.463 11.703 2.926 19.017h672.914c1.463-5.851 2.926-11.703 2.926-19.017v-143.36c-32.183 23.406-71.68 36.571-114.103 36.571-108.251 0-197.486-89.234-197.486-197.486 0-46.811 16.091-90.697 43.886-124.343h-346.697zM709.486 123.246c-93.623 0-169.691 76.069-169.691 169.691s76.069 169.691 169.691 169.691 169.691-76.069 169.691-169.691-76.069-169.691-169.691-169.691zM800.183 294.4h-80.457v102.4c0 7.314-5.851 14.629-14.629 14.629s-14.629-5.851-14.629-14.629v-117.029c0-7.314 5.851-14.629 14.629-14.629 0 0 0 0 0 0s0 0 0 0h93.623c7.314 0 14.629 5.851 14.629 14.629s-5.851 14.629-13.166 14.629z" />
<glyph unicode="&#xe90f;" glyph-name="Box-Stack-of-boxes" d="M901.12 409.966c0 1.463 0 1.463 0 0 0 1.463 0 1.463 0 1.463s-1.463 1.463-1.463 1.463c0 1.463-1.463 1.463-1.463 2.926 0 0 0 0 0 0-2.926 4.389-5.851 8.777-8.777 11.703l-62.903 61.44c-11.703 10.24-24.869 14.629-38.034 14.629h-71.68v140.434c0 7.314-1.463 14.629-4.389 21.943 0 2.926-1.463 4.389-1.463 5.851-2.926 4.389-5.851 10.24-10.24 13.166l-62.903 61.44c-11.703 10.24-24.869 14.629-38.034 14.629h-87.771c0 0 0 0-1.463 0 0 0-1.463 0-1.463 0-1.463 0-1.463 0-2.926-1.463 0 0 0 0-1.463 0h-80.457c-14.629 0-27.794-4.389-39.497-16.091l-59.977-59.977c-4.389-4.389-7.314-8.777-8.777-11.703 0-1.463-1.463-1.463-1.463-2.926 0 0 0 0 0-1.463 0 0 0 0 0 0s0 0 0 0 0 0 0-1.463c-2.926-7.314-5.851-16.091-5.851-23.406v-138.971h-71.68c-14.629 0-27.794-5.851-39.497-16.091l-61.44-61.44c-4.389-4.389-7.314-8.777-10.24-13.166v0c0 0-1.463-1.463-1.463-1.463s0 0 0 0 0 0 0-1.463c-5.851-5.851-7.314-14.629-7.314-21.943v-196.023c0-32.183 24.869-57.051 57.051-57.051h295.497c17.554 0 32.183 7.314 42.423 19.017 10.24-11.703 24.869-19.017 42.423-19.017h295.497c30.72 0 57.051 24.869 57.051 57.051v196.023c0 7.314-1.463 16.091-5.851 21.943zM716.8 448v26.331h71.68c7.314 0 14.629-2.926 20.48-7.314l48.274-48.274h-147.749c4.389 8.777 7.314 19.017 7.314 29.257zM526.629 733.257h71.68c7.314 0 14.629-2.926 20.48-7.314l49.737-49.737h-141.897v57.051zM403.749 723.017c5.851 5.851 13.166 7.314 20.48 7.314h73.143v-55.589h-140.434l46.811 48.274zM216.503 467.017c5.851 5.851 11.703 8.777 19.017 8.777h71.68v-27.794c0-10.24 2.926-20.48 7.314-27.794h-147.749l49.737 46.811zM497.371 190.537c0-16.091-11.703-27.794-27.794-27.794h-295.497c-16.091 0-27.794 11.703-27.794 27.794v197.486c0 1.463 0 2.926 0 4.389h351.086c0-1.463 0-2.926 0-4.389v-197.486zM512 420.206h-147.749c-16.091 0-27.794 13.166-27.794 27.794v196.023c0 1.463 0 2.926 0 4.389h351.086c0-1.463 0-2.926 0-4.389v-196.023c0-16.091-11.703-27.794-27.794-27.794h-147.749zM879.177 190.537c0-16.091-13.166-27.794-27.794-27.794h-296.96c-16.091 0-27.794 13.166-27.794 27.794v197.486c0 1.463 0 2.926 0 4.389h351.086c0-1.463 0-2.926 0-4.389v-197.486zM807.497 339.749c-1.463 1.463-2.926 2.926-4.389 2.926-2.926 1.463-7.314 1.463-10.24 0-1.463 0-2.926-1.463-4.389-2.926l-30.72-30.72c-5.851-5.851-5.851-14.629 0-20.48s14.629-5.851 20.48 0l7.314 7.314v-40.96c0-7.314 5.851-14.629 14.629-14.629s14.629 5.851 14.629 14.629v40.96l7.314-7.314c2.926-2.926 5.851-4.389 10.24-4.389 2.926 0 7.314 1.463 10.24 4.389 5.851 5.851 5.851 14.629 0 20.48l-35.109 30.72zM697.783 339.749c-1.463 1.463-2.926 2.926-4.389 2.926-2.926 1.463-7.314 1.463-10.24 0-1.463 0-2.926-1.463-4.389-2.926l-30.72-30.72c-5.851-5.851-5.851-14.629 0-20.48s14.629-5.851 20.48 0l7.314 7.314v-40.96c0-7.314 5.851-14.629 14.629-14.629 7.314 0 14.629 5.851 14.629 14.629v40.96l7.314-7.314c2.926-2.926 5.851-4.389 10.24-4.389 2.926 0 7.314 1.463 10.24 4.389 5.851 5.851 5.851 14.629 0 20.48l-35.109 30.72zM304.274 311.954l-122.88-13.166c-4.389 0-7.314-2.926-8.777-5.851s-2.926-7.314-2.926-10.24l8.777-78.994c1.463-7.314 7.314-13.166 14.629-13.166 0 0 1.463 0 1.463 0l122.88 13.166c4.389 0 7.314 2.926 8.777 5.851 2.926 2.926 2.926 7.314 2.926 10.24l-8.777 78.994c-1.463 8.777-8.777 14.629-16.091 13.166zM203.337 221.257l-5.851 51.2 95.086 10.24 5.851-51.2-95.086-10.24z" />
<glyph unicode="&#xe910;" glyph-name="Building-Lift" d="M820.663 842.971h-617.326c-32.183 0-57.051-24.869-57.051-57.051v-677.303c0-32.183 24.869-57.051 57.051-57.051h617.326c30.72 0 57.051 24.869 57.051 57.051v677.303c0 32.183-24.869 57.051-57.051 57.051zM175.543 110.080v675.84c0 16.091 11.703 27.794 27.794 27.794h294.034v-732.891h-294.034c-16.091 0-27.794 13.166-27.794 29.257zM848.457 110.080c0-16.091-13.166-27.794-27.794-27.794h-294.034v732.891h295.497c16.091 0 27.794-11.703 27.794-27.794v-677.303zM696.32 506.514c-5.851 5.851-14.629 5.851-20.48 0l-98.011-98.011c-5.851-5.851-5.851-14.629 0-20.48 2.926-2.926 5.851-4.389 10.24-4.389 2.926 0 7.314 1.463 10.24 4.389l87.771 87.771 87.771-87.771c5.851-5.851 14.629-5.851 20.48 0s5.851 14.629 0 20.48l-98.011 98.011zM443.246 507.977c-5.851 5.851-14.629 5.851-20.48 0l-87.771-87.771-87.771 87.771c-5.851 5.851-14.629 5.851-20.48 0s-5.851-14.629 0-20.48l98.011-98.011c2.926-2.926 5.851-4.389 10.24-4.389s7.314 1.463 10.24 4.389l98.011 98.011c5.851 5.851 5.851 14.629 0 20.48z" />
<glyph unicode="&#xe911;" glyph-name="Calendar-Alternative" d="M849.92 765.44h-38.034v24.869c0 7.314-5.851 14.629-14.629 14.629-7.314 0-14.629-5.851-14.629-14.629v-24.869h-536.869v24.869c0 7.314-5.851 14.629-14.629 14.629-7.314 0-14.629-5.851-14.629-14.629v-24.869h-43.886c-30.72 0-55.589-24.869-55.589-57.051v-519.314c0-54.126 43.886-99.474 99.474-99.474h472.503c16.091 0 30.72 5.851 39.497 17.554l162.377 162.377c11.703 11.703 17.554 24.869 17.554 39.497v399.36c-1.463 32.183-26.331 57.051-58.514 57.051zM174.080 737.646h43.886v-77.531c0-7.314 5.851-14.629 14.629-14.629 7.314 0 14.629 5.851 14.629 14.629v77.531h538.331v-77.531c0-7.314 5.851-14.629 14.629-14.629 7.314 0 14.629 5.851 14.629 14.629v77.531h38.034c16.091 0 27.794-11.703 27.794-27.794v-128.731h-735.817v128.731c0 14.629 13.166 27.794 29.257 27.794zM216.503 118.857c-39.497 0-70.217 32.183-70.217 70.217v362.789h732.891v-242.834c0-1.463 0-1.463 0-2.926l-99.474-1.463c-48.274 0-87.771-39.497-87.771-87.771v-98.011c-1.463 0-1.463 0-2.926 0h-472.503zM719.726 139.337v78.994c0 32.183 26.331 59.977 59.977 59.977l78.994 1.463-138.971-140.434z" />
<glyph unicode="&#xe912;" glyph-name="Calendar-Blank" d="M849.92 765.44h-38.034v24.869c0 7.314-5.851 14.629-14.629 14.629-7.314 0-14.629-5.851-14.629-14.629v-24.869h-536.869v24.869c0 7.314-5.851 14.629-14.629 14.629-7.314 0-14.629-5.851-14.629-14.629v-24.869h-43.886c-30.72 0-55.589-24.869-55.589-57.051v-519.314c0-54.126 43.886-99.474 99.474-99.474h592.457c55.589 0 99.474 43.886 99.474 99.474v519.314c-1.463 32.183-26.331 57.051-58.514 57.051zM879.177 190.537c0-39.497-30.72-70.217-70.217-70.217h-592.457c-39.497 0-70.217 32.183-70.217 70.217v361.326h732.891v-361.326zM879.177 581.12h-734.354v128.731c0 16.091 11.703 27.794 27.794 27.794h43.886v-77.531c0-7.314 5.851-14.629 14.629-14.629 7.314 0 14.629 5.851 14.629 14.629v77.531h538.331v-77.531c0-7.314 5.851-14.629 14.629-14.629 7.314 0 14.629 5.851 14.629 14.629v77.531h38.034c16.091 0 27.794-11.703 27.794-27.794v-128.731z" />
<glyph unicode="&#xe913;" glyph-name="Calendar-Cancellation" d="M402.286 227.109c2.926-2.926 5.851-4.389 10.24-4.389 2.926 0 7.314 1.463 10.24 4.389l89.234 89.234 90.697-89.234c2.926-2.926 5.851-4.389 10.24-4.389 2.926 0 7.314 1.463 10.24 4.389 5.851 5.851 5.851 14.629 0 20.48l-90.697 89.234 90.697 89.234c5.851 5.851 5.851 14.629 0 20.48s-14.629 5.851-20.48 0l-90.697-90.697-90.697 89.234c-5.851 5.851-14.629 5.851-20.48 0s-5.851-14.629 0-20.48l90.697-89.234-90.697-89.234c-4.389-5.851-4.389-14.629 1.463-19.017zM849.92 765.44h-38.034v24.869c0 7.314-5.851 14.629-14.629 14.629-7.314 0-14.629-5.851-14.629-14.629v-24.869h-536.869v24.869c0 7.314-5.851 14.629-14.629 14.629-7.314 0-14.629-5.851-14.629-14.629v-24.869h-43.886c-30.72 0-55.589-24.869-55.589-57.051v-519.314c0-54.126 43.886-99.474 99.474-99.474h472.503c16.091 0 30.72 5.851 39.497 17.554l162.377 162.377c11.703 11.703 17.554 24.869 17.554 39.497v399.36c-1.463 32.183-26.331 57.051-58.514 57.051zM719.726 139.337v78.994c0 32.183 26.331 59.977 59.977 59.977l78.994 1.463-138.971-140.434zM879.177 309.029c0-1.463 0-1.463 0-2.926l-99.474-1.463c-48.274 0-87.771-39.497-87.771-87.771v-98.011c-1.463 0-1.463 0-2.926 0h-472.503c-39.497 0-70.217 32.183-70.217 70.217v362.789h732.891v-242.834zM879.177 581.12h-734.354v128.731c0 16.091 11.703 27.794 27.794 27.794h43.886v-77.531c0-7.314 5.851-14.629 14.629-14.629 7.314 0 14.629 5.851 14.629 14.629v77.531h538.331v-77.531c0-7.314 5.851-14.629 14.629-14.629 7.314 0 14.629 5.851 14.629 14.629v77.531h38.034c16.091 0 27.794-11.703 27.794-27.794v-128.731z" />
<glyph unicode="&#xe914;" glyph-name="Calendar-Checkmark" d="M462.263 228.571c2.926-2.926 5.851-4.389 10.24-4.389 0 0 0 0 0 0 4.389 0 7.314 1.463 10.24 4.389l174.080 193.097c5.851 5.851 4.389 14.629-1.463 20.48s-14.629 4.389-20.48-1.463l-162.377-181.394-87.771 86.309c-5.851 5.851-14.629 5.851-20.48 0s-5.851-14.629 0-20.48l98.011-96.549zM849.92 765.44h-38.034v24.869c0 7.314-5.851 14.629-14.629 14.629-7.314 0-14.629-5.851-14.629-14.629v-24.869h-536.869v24.869c0 7.314-5.851 14.629-14.629 14.629-7.314 0-14.629-5.851-14.629-14.629v-24.869h-43.886c-30.72 0-55.589-24.869-55.589-57.051v-519.314c0-54.126 43.886-99.474 99.474-99.474h592.457c55.589 0 99.474 43.886 99.474 99.474v519.314c-1.463 32.183-26.331 57.051-58.514 57.051zM879.177 190.537c0-39.497-30.72-70.217-70.217-70.217h-592.457c-39.497 0-70.217 32.183-70.217 70.217v361.326h732.891v-361.326zM879.177 581.12h-734.354v128.731c0 16.091 11.703 27.794 27.794 27.794h43.886v-77.531c0-7.314 5.851-14.629 14.629-14.629 7.314 0 14.629 5.851 14.629 14.629v77.531h538.331v-77.531c0-7.314 5.851-14.629 14.629-14.629 7.314 0 14.629 5.851 14.629 14.629v77.531h38.034c16.091 0 27.794-11.703 27.794-27.794v-128.731z" />
<glyph unicode="&#xe915;" glyph-name="Calendar-Event" d="M849.92 765.44h-38.034v24.869c0 7.314-5.851 14.629-14.629 14.629-7.314 0-14.629-5.851-14.629-14.629v-24.869h-536.869v24.869c0 7.314-5.851 14.629-14.629 14.629-7.314 0-14.629-5.851-14.629-14.629v-24.869h-43.886c-30.72 0-55.589-24.869-55.589-57.051v-519.314c0-54.126 43.886-99.474 99.474-99.474h592.457c55.589 0 99.474 43.886 99.474 99.474v519.314c-1.463 32.183-26.331 57.051-58.514 57.051zM879.177 190.537c0-39.497-30.72-70.217-70.217-70.217h-592.457c-39.497 0-70.217 32.183-70.217 70.217v361.326h732.891v-361.326zM879.177 581.12h-734.354v128.731c0 16.091 11.703 27.794 27.794 27.794h43.886v-77.531c0-7.314 5.851-14.629 14.629-14.629 7.314 0 14.629 5.851 14.629 14.629v77.531h538.331v-77.531c0-7.314 5.851-14.629 14.629-14.629 7.314 0 14.629 5.851 14.629 14.629v77.531h38.034c16.091 0 27.794-11.703 27.794-27.794v-128.731zM631.954 218.331h124.343c32.183 0 57.051 24.869 57.051 57.051v124.343c0 32.183-24.869 57.051-57.051 57.051h-124.343c-32.183 0-57.051-24.869-57.051-57.051v-124.343c0-32.183 24.869-57.051 57.051-57.051z" />
<glyph unicode="&#xe916;" glyph-name="Calendar-Reschedule" d="M269.166 213.943h38.034c32.183 0 57.051 24.869 57.051 57.051v16.091c0 32.183-24.869 57.051-57.051 57.051h-7.314c5.851 26.331 38.034 105.326 188.709 105.326 81.92 0 122.88-21.943 143.36-38.034l-65.829-13.166c-7.314-1.463-13.166-8.777-11.703-16.091s7.314-11.703 13.166-11.703c1.463 0 1.463 0 2.926 0l90.697 19.017c7.314 1.463 13.166 8.777 11.703 16.091l-19.017 90.697c-1.463 7.314-8.777 13.166-16.091 11.703s-13.166-8.777-11.703-16.091l10.24-48.274c-36.571 23.406-86.309 35.109-147.749 35.109-179.931 0-212.114-108.251-217.966-134.583h-2.926c-32.183 0-57.051-24.869-57.051-57.051v-17.554c2.926-30.72 27.794-55.589 58.514-55.589zM241.371 287.086c0 16.091 11.703 27.794 27.794 27.794h38.034c16.091 0 27.794-11.703 27.794-27.794v-17.554c0-16.091-11.703-27.794-27.794-27.794h-38.034c-16.091 0-27.794 13.166-27.794 27.794v17.554zM529.554 344.137h-38.034c-32.183 0-57.051-24.869-57.051-57.051v-17.554c0-32.183 24.869-57.051 57.051-57.051h38.034c32.183 0 57.051 24.869 57.051 57.051v17.554c-1.463 32.183-26.331 57.051-57.051 57.051zM557.349 270.994c0-16.091-11.703-27.794-27.794-27.794h-38.034c-19.017 0-27.794 14.629-27.794 27.794v16.091c0 16.091 11.703 27.794 27.794 27.794h38.034c16.091 0 27.794-11.703 27.794-27.794v-16.091zM650.971 287.086v-17.554c0-32.183 24.869-57.051 58.514-57.051h38.034c32.183 0 57.051 24.869 57.051 57.051v17.554c0 32.183-24.869 57.051-57.051 57.051h-39.497c-32.183 0-57.051-24.869-57.051-57.051zM849.92 765.44h-38.034v24.869c0 7.314-5.851 14.629-14.629 14.629-7.314 0-14.629-5.851-14.629-14.629v-24.869h-536.869v24.869c0 7.314-5.851 14.629-14.629 14.629-7.314 0-14.629-5.851-14.629-14.629v-24.869h-43.886c-30.72 0-55.589-24.869-55.589-57.051v-519.314c0-54.126 43.886-99.474 99.474-99.474h592.457c55.589 0 99.474 43.886 99.474 99.474v519.314c-1.463 32.183-26.331 57.051-58.514 57.051zM879.177 190.537c0-39.497-30.72-70.217-70.217-70.217h-592.457c-39.497 0-70.217 32.183-70.217 70.217v361.326h732.891v-361.326zM879.177 581.12h-734.354v128.731c0 16.091 11.703 27.794 27.794 27.794h43.886v-77.531c0-7.314 5.851-14.629 14.629-14.629 7.314 0 14.629 5.851 14.629 14.629v77.531h538.331v-77.531c0-7.314 5.851-14.629 14.629-14.629 7.314 0 14.629 5.851 14.629 14.629v77.531h38.034c16.091 0 27.794-11.703 27.794-27.794v-128.731z" />
<glyph unicode="&#xe917;" glyph-name="Calendar-Time-slot" d="M311.589 455.314h-38.034c-32.183 0-57.051-24.869-57.051-57.051v-124.343c0-30.72 24.869-57.051 57.051-57.051h49.737c23.406 0 42.423 19.017 45.349 45.349v136.046c0 32.183-26.331 57.051-57.051 57.051zM323.291 246.126h-49.737c-16.091 0-27.794 13.166-27.794 27.794v124.343c0 16.091 11.703 27.794 27.794 27.794h38.034c16.091 0 27.794-13.166 27.794-27.794v-134.583c0-8.777-8.777-17.554-16.091-17.554zM532.48 455.314h-38.034c-32.183 0-57.051-24.869-57.051-57.051v-124.343c0-32.183 24.869-57.051 57.051-57.051h49.737c23.406 0 45.349 20.48 45.349 45.349v136.046c0 32.183-24.869 57.051-57.051 57.051zM751.909 455.314h-38.034c-32.183 0-57.051-24.869-57.051-57.051v-124.343c0-32.183 24.869-57.051 57.051-57.051h49.737c23.406 0 42.423 19.017 45.349 45.349v136.046c-1.463 32.183-24.869 57.051-57.051 57.051zM763.611 246.126h-49.737c-16.091 0-27.794 11.703-27.794 27.794v124.343c0 16.091 11.703 27.794 27.794 27.794h38.034c16.091 0 27.794-11.703 27.794-27.794v-134.583c0-8.777-5.851-17.554-16.091-17.554zM849.92 765.44h-38.034v24.869c0 7.314-5.851 14.629-14.629 14.629-7.314 0-14.629-5.851-14.629-14.629v-24.869h-536.869v24.869c0 7.314-5.851 14.629-14.629 14.629s-14.629-5.851-14.629-14.629v-24.869h-43.886c-30.72 0-55.589-24.869-55.589-57.051v-519.314c0-54.126 43.886-99.474 99.474-99.474h592.457c55.589 0 99.474 43.886 99.474 99.474v519.314c-1.463 32.183-26.331 57.051-58.514 57.051zM174.080 737.646h43.886v-77.531c0-7.314 5.851-14.629 14.629-14.629s14.629 5.851 14.629 14.629v77.531h538.331v-77.531c0-7.314 5.851-14.629 14.629-14.629 7.314 0 14.629 5.851 14.629 14.629v77.531h38.034c16.091 0 27.794-11.703 27.794-27.794v-128.731h-735.817v128.731c0 14.629 13.166 27.794 29.257 27.794zM807.497 118.857h-590.994c-39.497 0-70.217 32.183-70.217 70.217v362.789h732.891v-362.789c0-39.497-30.72-70.217-71.68-70.217z" />
<glyph unicode="&#xe918;" glyph-name="Calendar-Time-slots" d="M310.126 455.314h-38.034c-32.183 0-57.051-24.869-57.051-57.051v-124.343c0-30.72 24.869-57.051 57.051-57.051h49.737c24.869 0 45.349 20.48 45.349 45.349v136.046c0 32.183-26.331 57.051-57.051 57.051zM337.92 263.68c0-8.777-7.314-17.554-17.554-17.554h-49.737c-16.091 0-27.794 13.166-27.794 27.794v124.343c0 16.091 11.703 27.794 27.794 27.794h38.034c16.091 0 27.794-13.166 27.794-27.794v-134.583zM532.48 455.314h-38.034c-32.183 0-57.051-24.869-57.051-57.051v-124.343c0-32.183 24.869-57.051 57.051-57.051h49.737c13.166 0 24.869 5.851 33.646 14.629s11.703 20.48 11.703 30.72v136.046c-1.463 32.183-26.331 57.051-57.051 57.051zM555.886 251.977c-2.926-4.389-8.777-5.851-13.166-5.851h-49.737c-16.091 0-27.794 11.703-27.794 27.794v124.343c0 16.091 11.703 27.794 27.794 27.794h38.034c16.091 0 27.794-11.703 27.794-27.794v-136.046c1.463-4.389 0-7.314-2.926-10.24zM751.909 455.314h-38.034c-32.183 0-57.051-24.869-57.051-57.051v-124.343c0-32.183 24.869-57.051 57.051-57.051h49.737c23.406 0 42.423 19.017 45.349 45.349v136.046c-1.463 32.183-24.869 57.051-57.051 57.051zM763.611 246.126h-49.737c-16.091 0-27.794 11.703-27.794 27.794v124.343c0 16.091 11.703 27.794 27.794 27.794h38.034c16.091 0 27.794-11.703 27.794-27.794v-134.583c0-8.777-5.851-17.554-16.091-17.554zM849.92 765.44h-38.034v24.869c0 7.314-5.851 14.629-14.629 14.629-7.314 0-14.629-5.851-14.629-14.629v-24.869h-536.869v24.869c0 7.314-5.851 14.629-14.629 14.629-7.314 0-14.629-5.851-14.629-14.629v-24.869h-43.886c-30.72 0-55.589-24.869-55.589-57.051v-519.314c0-54.126 43.886-99.474 99.474-99.474h592.457c55.589 0 99.474 43.886 99.474 99.474v519.314c-1.463 32.183-26.331 57.051-58.514 57.051zM174.080 737.646h43.886v-77.531c0-7.314 5.851-14.629 14.629-14.629 7.314 0 14.629 5.851 14.629 14.629v77.531h538.331v-77.531c0-7.314 5.851-14.629 14.629-14.629 7.314 0 14.629 5.851 14.629 14.629v77.531h38.034c16.091 0 27.794-11.703 27.794-27.794v-128.731h-735.817v128.731c0 14.629 13.166 27.794 29.257 27.794zM807.497 118.857h-590.994c-39.497 0-70.217 32.183-70.217 70.217v362.789h732.891v-362.789c0-39.497-30.72-70.217-71.68-70.217z" />
<glyph unicode="&#xe919;" glyph-name="Car-Door" d="M849.92 73.509h-675.84c-32.183 0-57.051 23.406-57.051 55.589v289.646c0 48.274 19.017 93.623 52.663 130.194l222.354 220.891c0 0 0 0 0 0 36.571 33.646 81.92 52.663 130.194 52.663h329.143c32.183 0 57.051-24.869 57.051-57.051v-637.806c-1.463-30.72-26.331-54.126-58.514-54.126zM412.526 749.349l-222.354-220.891c-29.257-30.72-45.349-70.217-45.349-109.714v-289.646c0-16.091 11.703-27.794 27.794-27.794h677.303c16.091 0 27.794 11.703 27.794 27.794v637.806c0 16.091-11.703 27.794-27.794 27.794h-327.68c-40.96 0-80.457-16.091-109.714-45.349zM769.463 472.869h-526.629c-5.851 0-10.24 2.926-13.166 8.777-1.463 5.851-1.463 11.703 2.926 16.091l190.171 190.171c35.109 35.109 80.457 54.126 130.194 54.126h215.040c32.183 0 57.051-24.869 57.051-57.051v-156.526c1.463-13.166-4.389-26.331-14.629-38.034-10.24-10.24-24.869-17.554-40.96-17.554zM277.943 502.126h491.52c7.314 0 14.629 2.926 20.48 8.777 4.389 4.389 7.314 11.703 5.851 17.554v157.989c0 16.091-11.703 27.794-27.794 27.794h-213.577c-42.423 0-80.457-16.091-109.714-45.349l-166.766-166.766zM811.886 328.046h-191.634c-7.314 0-14.629 5.851-14.629 14.629v59.977c0 7.314 5.851 14.629 14.629 14.629h191.634c7.314 0 14.629-5.851 14.629-14.629v-59.977c0-8.777-5.851-14.629-14.629-14.629zM634.88 355.84h163.84v32.183h-163.84v-32.183z" />
<glyph unicode="&#xe91a;" glyph-name="Car-Vehicle-handover" d="M848.457 448c0 121.417-67.291 234.057-174.080 294.034-7.314 4.389-16.091 1.463-19.017-5.851-4.389-7.314-1.463-16.091 5.851-19.017 98.011-54.126 159.451-157.989 159.451-269.166 0-149.211-109.714-277.943-254.537-302.811l40.96 51.2c4.389 5.851 4.389 14.629-2.926 20.48-5.851 4.389-14.629 4.389-20.48-2.926l-59.977-77.531c-4.389-5.851-4.389-14.629 2.926-20.48 0 0 0 0 0 0l77.531-59.977c2.926-1.463 5.851-2.926 8.777-2.926 4.389 0 8.777 1.463 11.703 5.851 4.389 5.851 4.389 14.629-2.926 20.48l-51.2 38.034c157.989 26.331 277.943 166.766 277.943 330.606zM362.789 178.834c-98.011 54.126-159.451 157.989-159.451 269.166 0 150.674 112.64 280.869 258.926 302.811l-33.646-48.274c-4.389-5.851-2.926-14.629 2.926-19.017 2.926-1.463 5.851-2.926 7.314-2.926 4.389 0 8.777 1.463 11.703 5.851l55.589 78.994c0 0 0 0 0 0s0 0 0 0 0 1.463 1.463 1.463c0 1.463 1.463 1.463 1.463 2.926s0 1.463 0 2.926 0 1.463 0 2.926 0 1.463-1.463 2.926c0 1.463 0 1.463-1.463 2.926 0 0-1.463 1.463-1.463 1.463 0 1.463-1.463 1.463-1.463 2.926 0 0 0 0 0 0s0 0 0 0l-80.457 55.589c-5.851 4.389-14.629 2.926-19.017-4.389-4.389-5.851-2.926-14.629 4.389-19.017l54.126-38.034c-162.377-23.406-286.72-165.303-286.72-332.069 0-121.417 65.829-234.057 174.080-294.034 1.463-1.463 4.389-1.463 7.314-1.463 4.389 0 10.24 2.926 11.703 7.314 2.926 5.851 0 14.629-5.851 19.017zM557.349 275.383v103.863c29.257 2.926 52.663 26.331 52.663 55.589v157.989c0 32.183-24.869 57.051-57.051 57.051h-81.92c-32.183 0-57.051-24.869-57.051-57.051v-157.989c0-30.72 21.943-54.126 52.663-55.589v-103.863c0-24.869 20.48-45.349 45.349-45.349 24.869 1.463 45.349 20.48 45.349 45.349zM443.246 434.834v157.989c0 16.091 11.703 27.794 27.794 27.794h81.92c16.091 0 27.794-11.703 27.794-27.794v-157.989c0-16.091-13.166-27.794-27.794-27.794h-81.92c-16.091 0-27.794 11.703-27.794 27.794zM529.554 275.383c0-8.777-7.314-17.554-17.554-17.554s-17.554 7.314-17.554 17.554v102.4h33.646v-102.4zM548.571 500.663c7.314 0 14.629 5.851 14.629 14.629s-5.851 14.629-14.629 14.629h-73.143c-7.314 0-14.629-5.851-14.629-14.629s5.851-14.629 14.629-14.629h73.143z" />
<glyph unicode="&#xe91b;" glyph-name="Car-Vehicle-key" d="M590.994 842.971h-159.451c-54.126 0-96.549-40.96-96.549-96.549v-308.663c0-54.126 40.96-96.549 96.549-96.549h5.851v-215.040c0-40.96 33.646-74.606 74.606-74.606s74.606 33.646 74.606 74.606v216.503h5.851c26.331 0 49.737 10.24 67.291 27.794 17.554 19.017 27.794 43.886 26.331 68.754v307.2c1.463 55.589-39.497 96.549-95.086 96.549zM558.811 127.634c0-24.869-21.943-46.811-46.811-46.811s-46.811 21.943-46.811 46.811v215.040h93.623v-215.040zM659.749 439.223c0-19.017-5.851-35.109-19.017-48.274s-29.257-20.48-48.274-20.48h-162.377c-38.034 0-67.291 29.257-67.291 67.291v308.663c0 38.034 29.257 67.291 67.291 67.291h159.451c38.034 0 67.291-29.257 67.291-67.291v-307.2zM585.143 605.989h-143.36c-7.314 0-14.629-5.851-14.629-14.629 0-7.314 5.851-14.629 14.629-14.629h143.36c7.314 0 14.629 5.851 14.629 14.629-1.463 8.777-7.314 14.629-14.629 14.629z" />
<glyph unicode="&#xe91c;" glyph-name="Categories-Industrial" d="M886.491 570.88c-36.571-20.48-140.434-71.68-178.469-68.754-13.166 1.463-49.737 26.331-73.143 46.811v177.006c23.406 19.017 59.977 45.349 73.143 46.811 36.571 2.926 141.897-48.274 178.469-68.754 1.463-1.463 4.389-1.463 7.314-1.463 4.389 0 10.24 2.926 11.703 7.314 4.389 7.314 1.463 16.091-5.851 19.017-14.629 7.314-141.897 76.069-194.56 71.68-24.869-2.926-70.217-38.034-87.771-52.663h-83.383c-24.869 0-45.349-16.091-52.663-38.034h-146.286c-21.943 29.257-57.051 48.274-96.549 48.274-67.291 0-121.417-54.126-121.417-121.417 0-27.794 8.777-52.663 24.869-73.143l80.457-318.903c-27.794-4.389-46.811-26.331-46.811-55.589v-78.994c0-7.314 5.851-14.629 14.629-14.629h497.371c7.314 0 14.629 5.851 14.629 14.629v78.994c0 32.183-24.869 57.051-57.051 57.051h-206.263l-78.994 314.514h122.88c8.777-20.48 27.794-35.109 52.663-35.109h84.846c19.017-14.629 61.44-48.274 86.309-51.2 1.463 0 2.926 0 5.851 0 55.589 0 175.543 64.366 188.709 73.143 7.314 4.389 8.777 11.703 5.851 19.017-5.851 5.851-14.629 8.777-20.48 4.389zM238.446 728.869c32.183 0 59.977-16.091 76.069-39.497 0 0 0-1.463 1.463-1.463 10.24-14.629 16.091-33.646 16.091-52.663 0-1.463 0-2.926 0-2.926 0-2.926 0-4.389 0-7.314-4.389-33.646-26.331-61.44-55.589-74.606 0 0 0 0 0 0-4.389-1.463-8.777-2.926-13.166-4.389-2.926 0-4.389-1.463-7.314-1.463-1.463 0-2.926 0-4.389 0-4.389 0-7.314-1.463-11.703-1.463-2.926 0-7.314 0-10.24 0-1.463 0-1.463 0-2.926 0-2.926 0-4.389 0-7.314 1.463-1.463 0-2.926 0-2.926 1.463-1.463 0-4.389 1.463-5.851 1.463s-2.926 1.463-4.389 1.463c-1.463 0-2.926 1.463-5.851 1.463-1.463 0-2.926 1.463-4.389 1.463-1.463 1.463-2.926 1.463-4.389 2.926s-2.926 1.463-4.389 2.926c-1.463 1.463-2.926 1.463-4.389 2.926s-2.926 1.463-4.389 2.926c-1.463 0-1.463 1.463-2.926 1.463-19.017 17.554-32.183 42.423-32.183 70.217 1.463 52.663 43.886 93.623 95.086 93.623zM672.914 189.074v-64.366h-469.577v64.366c0 16.091 11.703 27.794 27.794 27.794h413.989c16.091 0 27.794-11.703 27.794-27.794zM250.149 247.589l-71.68 283.794c0 0 0 0 1.463 0 4.389-1.463 7.314-4.389 11.703-5.851 1.463 0 2.926-1.463 2.926-1.463 2.926-1.463 5.851-2.926 10.24-2.926 1.463 0 2.926-1.463 4.389-1.463 2.926-1.463 5.851-1.463 10.24-1.463 1.463 0 2.926 0 4.389 0 4.389 0 8.777-1.463 14.629-1.463 4.389 0 8.777 0 13.166 0 1.463 0 4.389 0 5.851 1.463 1.463 0 4.389 0 5.851 1.463 2.926 0 5.851 1.463 8.777 2.926 1.463 0 1.463 0 2.926 0 21.943 7.314 40.96 19.017 57.051 36.571l77.531-311.589h-159.451zM351.086 591.36c4.389 13.166 7.314 27.794 7.314 42.423 0 0 0 0 0 0s0 0 0 0c0 16.091-2.926 30.72-8.777 45.349h125.806c0-1.463 0-2.926 1.463-4.389v-87.771h-125.806v4.389zM607.086 553.326h-71.68c-13.166 0-23.406 8.777-26.331 20.48 0 1.463 0 4.389 0 5.851s0 4.389 0 8.777v105.326c0 16.091 11.703 27.794 27.794 27.794h71.68v-168.229z" />
<glyph unicode="&#xe91d;" glyph-name="Categories-Medical" d="M848.457 784.457c-38.034 38.034-87.771 58.514-141.897 58.514s-103.863-20.48-141.897-58.514l-389.12-390.583c-77.531-77.531-77.531-204.8 0-282.331 0 0 0 0 0 0 39.497-39.497 90.697-58.514 141.897-58.514s102.4 19.017 141.897 58.514l389.12 390.583c38.034 38.034 58.514 87.771 58.514 141.897 0 52.663-20.48 103.863-58.514 140.434zM438.857 132.023c-68.754-67.291-175.543-67.291-244.297 0-67.291 67.291-67.291 175.543 0 242.834l185.783 185.783 242.834-242.834-184.32-185.783zM829.44 522.606l-184.32-185.783-242.834 242.834 184.32 184.32c32.183 32.183 74.606 49.737 121.417 49.737s89.234-17.554 121.417-49.737c32.183-32.183 49.737-74.606 49.737-121.417 0-45.349-17.554-87.771-49.737-119.954z" />
<glyph unicode="&#xe91e;" glyph-name="Category-Animals" d="M225.28 465.554c-32.183 0-67.291 21.943-89.234 61.44-29.257 51.2-23.406 108.251 14.629 130.194 19.017 10.24 42.423 10.24 65.829 0 21.943-10.24 40.96-29.257 54.126-52.663s20.48-49.737 17.554-73.143c-1.463-26.331-13.166-45.349-32.183-57.051-10.24-7.314-20.48-8.777-30.72-8.777zM181.394 636.709c-5.851 0-11.703-1.463-16.091-4.389-23.406-13.166-24.869-55.589-4.389-92.16s58.514-55.589 81.92-42.423c10.24 5.851 17.554 19.017 19.017 35.109 1.463 17.554-2.926 38.034-14.629 57.051s-27.794 33.646-43.886 40.96c-7.314 2.926-16.091 5.851-21.943 5.851zM798.72 464.091c-10.24 0-21.943 2.926-30.72 8.777-19.017 10.24-30.72 30.72-32.183 57.051-1.463 23.406 4.389 49.737 17.554 73.143 29.257 51.2 81.92 74.606 119.954 52.663s43.886-78.994 14.629-130.194c-21.943-38.034-57.051-61.44-89.234-61.44zM842.606 635.246c-21.943 0-48.274-17.554-64.366-46.811-10.24-19.017-16.091-39.497-14.629-57.051 1.463-16.091 7.314-29.257 19.017-35.109 23.406-13.166 59.977 5.851 81.92 42.423 20.48 36.571 19.017 78.994-4.389 92.16-5.851 4.389-10.24 4.389-17.554 4.389zM621.714 595.749c-2.926 0-5.851 0-10.24 1.463-21.943 2.926-39.497 17.554-49.737 40.96-10.24 21.943-13.166 48.274-8.777 74.606v0c10.24 58.514 51.2 99.474 93.623 92.16 21.943-2.926 39.497-17.554 49.737-40.96 10.24-21.943 13.166-48.274 8.777-74.606-7.314-54.126-43.886-93.623-83.383-93.623zM580.754 709.851c-2.926-21.943-1.463-42.423 7.314-58.514 7.314-14.629 17.554-23.406 29.257-26.331 26.331-4.389 54.126 27.794 61.44 68.754 2.926 21.943 1.463 42.423-7.314 58.514-7.314 14.629-17.554 23.406-29.257 26.331-26.331 2.926-54.126-27.794-61.44-68.754v0zM397.897 595.749c-17.554 0-36.571 8.777-51.2 24.869-16.091 17.554-27.794 40.96-32.183 68.754-10.24 58.514 16.091 109.714 59.977 117.029v0c42.423 7.314 83.383-33.646 93.623-92.16s-16.091-109.714-59.977-117.029c-4.389 0-7.314-1.463-10.24-1.463zM377.417 778.606v0c-26.331-4.389-42.423-42.423-36.571-84.846 2.926-21.943 11.703-40.96 24.869-54.126 11.703-11.703 24.869-17.554 36.571-14.629 26.331 4.389 42.423 42.423 36.571 84.846-5.851 40.96-35.109 73.143-61.44 68.754zM370.103 89.6c-21.943 0-42.423 2.926-61.44 13.166-30.72 14.629-52.663 42.423-64.366 80.457-21.943 70.217 1.463 157.989 62.903 241.371s143.36 138.971 204.8 138.971c61.44 0 143.36-55.589 204.8-138.971s84.846-171.154 62.903-241.371c-11.703-39.497-33.646-65.829-64.366-80.457-54.126-26.331-124.343-7.314-172.617 11.703-19.017 7.314-39.497 7.314-59.977 0-32.183-13.166-73.143-24.869-112.64-24.869zM512 534.309c-51.2 0-127.269-52.663-181.394-127.269-55.589-76.069-77.531-155.063-58.514-216.503 10.24-32.183 26.331-52.663 49.737-64.366 48.274-23.406 114.103-1.463 150.674 13.166 26.331 10.24 54.126 10.24 80.457 0 35.109-14.629 102.4-35.109 150.674-13.166 23.406 11.703 40.96 32.183 49.737 64.366 19.017 61.44-2.926 140.434-58.514 216.503-55.589 74.606-131.657 127.269-182.857 127.269z" />
<glyph unicode="&#xe91f;" glyph-name="Category-Antiques" d="M738.743 641.097c0 0 0 0 0 0-57.051 58.514-77.531 80.457-32.183 157.989 4.389 10.24 4.389 20.48-1.463 29.257s-16.091 14.629-26.331 14.629h-332.069c-10.24 0-19.017-4.389-24.869-13.166s-7.314-20.48-2.926-30.72c0-1.463 0-1.463 1.463-1.463 45.349-77.531 23.406-98.011-33.646-156.526-51.2-51.2-48.274-152.137-35.109-228.206 17.554-100.937 62.903-220.891 119.954-321.829v0c5.851-11.703 32.183-36.571 140.434-36.571 96.549 0 133.12 20.48 140.434 36.571v0c57.051 98.011 100.937 217.966 119.954 323.291 19.017 103.863 5.851 184.32-33.646 226.743zM345.234 813.714c0 0 1.463 1.463 1.463 1.463h330.606c1.463 0 2.926-1.463 2.926-1.463 0-1.463 0-1.463 0-1.463s0 0 0 0c-14.629-26.331-23.406-48.274-26.331-65.829h-283.794c-2.926 19.017-11.703 39.497-26.331 65.829 0 0 0 1.463 1.463 1.463zM746.057 417.28c-19.017-100.937-62.903-217.966-117.029-313.051 0 0 0 0 0 0-2.926-2.926-24.869-21.943-115.566-21.943-92.16 0-112.64 19.017-115.566 21.943 0 0 0 0 0 1.463-55.589 98.011-99.474 215.040-117.029 313.051-16.091 98.011-7.314 169.691 27.794 203.337 33.646 35.109 59.977 61.44 64.366 96.549h283.794c4.389-35.109 30.72-61.44 64.366-96.549 30.72-35.109 39.497-109.714 24.869-204.8z" />
<glyph unicode="&#xe920;" glyph-name="Category-Apartment-1" d="M276.48 605.989c-7.314 0-14.629-5.851-14.629-14.629v-127.269c0-7.314 5.851-14.629 14.629-14.629s14.629 5.851 14.629 14.629v127.269c0 8.777-7.314 14.629-14.629 14.629zM431.543 605.989c-7.314 0-14.629-5.851-14.629-14.629v-127.269c0-7.314 5.851-14.629 14.629-14.629s14.629 5.851 14.629 14.629v127.269c0 8.777-7.314 14.629-14.629 14.629zM276.48 342.674c-7.314 0-14.629-5.851-14.629-14.629v-124.343c0-7.314 5.851-14.629 14.629-14.629s14.629 5.851 14.629 14.629v124.343c0 7.314-7.314 14.629-14.629 14.629zM431.543 342.674c-7.314 0-14.629-5.851-14.629-14.629v-124.343c0-7.314 5.851-14.629 14.629-14.629s14.629 5.851 14.629 14.629v124.343c0 7.314-7.314 14.629-14.629 14.629zM782.629 468.48c-7.314 0-14.629-5.851-14.629-14.629v-92.16c0-7.314 5.851-14.629 14.629-14.629 7.314 0 14.629 5.851 14.629 14.629v92.16c0 7.314-5.851 14.629-14.629 14.629zM668.526 468.48c-7.314 0-14.629-5.851-14.629-14.629v-92.16c0-7.314 5.851-14.629 14.629-14.629 7.314 0 14.629 5.851 14.629 14.629v92.16c0 7.314-7.314 14.629-14.629 14.629zM782.629 273.92c-7.314 0-14.629-5.851-14.629-14.629v-93.623c0-7.314 5.851-14.629 14.629-14.629 7.314 0 14.629 5.851 14.629 14.629v93.623c0 8.777-5.851 14.629-14.629 14.629zM668.526 273.92c-7.314 0-14.629-5.851-14.629-14.629v-93.623c0-7.314 5.851-14.629 14.629-14.629 7.314 0 14.629 5.851 14.629 14.629v93.623c0 8.777-7.314 14.629-14.629 14.629zM781.166 563.566c7.314 0 14.629 5.851 14.629 14.629v92.16c0 7.314-5.851 14.629-14.629 14.629-7.314 0-14.629-5.851-14.629-14.629v-92.16c1.463-7.314 7.314-14.629 14.629-14.629zM667.063 563.566c7.314 0 14.629 5.851 14.629 14.629v92.16c0 7.314-5.851 14.629-14.629 14.629-7.314 0-14.629-5.851-14.629-14.629v-92.16c0-7.314 7.314-14.629 14.629-14.629zM841.143 785.92h-258.926v1.463c0 19.017-10.24 38.034-26.331 48.274s-35.109 11.703-51.2 2.926l-346.697-156.526c-19.017-10.24-32.183-29.257-32.183-51.2v-522.24c0-32.183 24.869-57.051 57.051-57.051h656.823c32.183 0 57.051 24.869 57.051 57.051v620.251c0 32.183-24.869 57.051-55.589 57.051zM554.423 80.823h-371.566c-16.091 0-27.794 11.703-27.794 27.794v523.703c0 10.24 5.851 20.48 16.091 24.869l346.697 155.063c2.926 1.463 7.314 2.926 11.703 2.926s10.24-1.463 13.166-4.389c8.777-5.851 13.166-13.166 13.166-23.406v-706.56zM868.937 110.080c0-16.091-11.703-27.794-27.794-27.794h-258.926v674.377h258.926c16.091 0 27.794-11.703 27.794-27.794v-618.789z" />
<glyph unicode="&#xe921;" glyph-name="Category-Apartment" d="M270.629 667.429c-7.314 0-14.629-5.851-14.629-14.629v-130.194c0-7.314 5.851-14.629 14.629-14.629s14.629 5.851 14.629 14.629v130.194c0 8.777-7.314 14.629-14.629 14.629zM430.080 667.429c-7.314 0-14.629-5.851-14.629-14.629v-130.194c0-7.314 5.851-14.629 14.629-14.629 7.314 0 14.629 5.851 14.629 14.629v130.194c0 8.777-7.314 14.629-14.629 14.629zM270.629 398.263c-7.314 0-14.629-5.851-14.629-14.629v-128.731c0-7.314 5.851-14.629 14.629-14.629s14.629 5.851 14.629 14.629v128.731c0 8.777-7.314 14.629-14.629 14.629zM430.080 398.263c-7.314 0-14.629-5.851-14.629-14.629v-128.731c0-7.314 5.851-14.629 14.629-14.629 7.314 0 14.629 5.851 14.629 14.629v128.731c0 8.777-7.314 14.629-14.629 14.629zM789.943 526.994c-7.314 0-14.629-5.851-14.629-14.629v-93.623c0-7.314 5.851-14.629 14.629-14.629s14.629 5.851 14.629 14.629v95.086c0 7.314-7.314 13.166-14.629 13.166zM672.914 526.994c-7.314 0-14.629-5.851-14.629-14.629v-93.623c0-7.314 5.851-14.629 14.629-14.629s14.629 5.851 14.629 14.629v95.086c0 7.314-7.314 13.166-14.629 13.166zM789.943 328.046c-7.314 0-14.629-5.851-14.629-14.629v-95.086c0-7.314 5.851-14.629 14.629-14.629s14.629 5.851 14.629 14.629v95.086c0 8.777-7.314 14.629-14.629 14.629zM672.914 328.046c-7.314 0-14.629-5.851-14.629-14.629v-95.086c0-7.314 5.851-14.629 14.629-14.629s14.629 5.851 14.629 14.629v95.086c0 8.777-7.314 14.629-14.629 14.629zM849.92 619.154h-266.24v118.491c0 32.183-24.869 57.051-57.051 57.051h-352.549c-32.183 0-57.051-24.869-57.051-57.051v-577.829c0-32.183 24.869-57.051 57.051-57.051h677.303c32.183 0 57.051 24.869 57.051 57.051v402.286c-1.463 32.183-26.331 57.051-58.514 57.051zM555.886 130.56h-381.806c-16.091 0-27.794 11.703-27.794 27.794v579.291c0 16.091 11.703 27.794 27.794 27.794h354.011c16.091 0 27.794-11.703 27.794-27.794v-607.086zM879.177 158.354c0-16.091-11.703-27.794-27.794-27.794h-267.703v459.337h266.24c16.091 0 27.794-11.703 27.794-27.794v-403.749z" />
<glyph unicode="&#xe922;" glyph-name="Category-Boat" d="M901.12 518.217c-7.314 14.629-20.48 24.869-36.571 27.794l-57.051 11.703-61.44 212.114c-7.314 20.48-27.794 35.109-49.737 35.109h-371.566c-23.406 0-43.886-14.629-51.2-36.571l-58.514-210.651-57.051-11.703c-16.091-2.926-29.257-13.166-36.571-27.794s-7.314-30.72 0-45.349l124.343-250.149c8.777-19.017 24.869-35.109 45.349-42.423l184.32-80.457c11.703-5.851 23.406-7.314 36.571-7.314 11.703 0 24.869 2.926 36.571 7.314l182.857 80.457c17.554 8.777 33.646 21.943 45.349 42.423l124.343 250.149c7.314 14.629 7.314 30.72 0 45.349zM498.834 118.857c-4.389 1.463-8.777 2.926-13.166 4.389l-184.32 81.92c-13.166 5.851-24.869 16.091-32.183 29.257l-27.794 55.589 257.463-64.366v-106.789zM498.834 251.977l-272.091 67.291-81.92 165.303c-2.926 7.314-4.389 14.629 0 21.943 2.926 7.314 10.24 13.166 17.554 14.629l334.994 67.291v-336.457zM330.606 581.12c2.926 33.646 30.72 59.977 64.366 59.977 24.869 0 46.811-14.629 57.051-35.109l-121.417-24.869zM516.389 616.229c-1.463 0-2.926 1.463-4.389 1.463s-2.926 0-4.389-1.463c-1.463 0-4.389 0-5.851-1.463l-24.869-4.389c-14.629 33.646-46.811 55.589-83.383 55.589-49.737 0-90.697-40.96-90.697-90.697v0l-61.44-11.703 55.589 197.486c2.926 10.24 14.629 17.554 26.331 17.554h373.029c10.24 0 21.943-7.314 24.869-17.554l58.514-197.486-257.463 52.663c-1.463 0-4.389 0-5.851 0zM754.834 234.423c-8.777-14.629-19.017-24.869-32.183-30.72l-184.32-80.457c-4.389-1.463-8.777-2.926-13.166-4.389v106.789l257.463 64.366-27.794-55.589zM879.177 484.571l-81.92-163.84-272.091-67.291v336.457l269.166-54.126c0 0 1.463 0 1.463 0l64.366-13.166c7.314-1.463 14.629-7.314 19.017-14.629 2.926-8.777 2.926-16.091 0-23.406z" />
<glyph unicode="&#xe923;" glyph-name="Category-Car-delivery" d="M289.646 369.006h-55.589c-7.314 0-14.629-5.851-14.629-14.629s5.851-14.629 14.629-14.629h55.589c7.314 0 14.629 5.851 14.629 14.629s-7.314 14.629-14.629 14.629zM693.394 370.469h-55.589c-7.314 0-14.629-5.851-14.629-14.629s5.851-14.629 14.629-14.629h55.589c7.314 0 14.629 5.851 14.629 14.629s-5.851 14.629-14.629 14.629zM731.429 734.72c-68.754 0-127.269-39.497-156.526-96.549h-267.703c-38.034 0-70.217-23.406-81.92-58.514l-39.497-111.177h-54.126c-7.314 0-14.629-5.851-14.629-14.629 0-7.314 5.851-14.629 14.629-14.629h20.48c-4.389-7.314-5.851-14.629-5.851-23.406v-118.491c0-23.406 17.554-43.886 39.497-49.737v-48.274c0-2.926 1.463-5.851 1.463-7.314 2.926-17.554 19.017-30.72 38.034-30.72h36.571c21.943 0 38.034 16.091 38.034 38.034v48.274h320.366v-45.349c0-21.943 16.091-38.034 38.034-38.034h38.034c21.943 0 38.034 16.091 38.034 38.034v45.349c26.331 1.463 49.737 23.406 49.737 51.2v95.086c71.68 21.943 124.343 89.234 124.343 166.766-1.463 96.549-80.457 174.080-177.006 174.080zM251.611 570.88c7.314 23.406 30.72 39.497 55.589 39.497h257.463c-4.389-16.091-7.314-33.646-7.314-51.2 0-33.646 10.24-65.829 27.794-93.623h-177.006c-5.851 33.646-36.571 58.514-70.217 58.514-35.109 0-64.366-26.331-70.217-58.514h-51.2l35.109 105.326zM378.88 467.017h-83.383c5.851 17.554 21.943 30.72 40.96 30.72s36.571-13.166 42.423-30.72zM270.629 199.314c0-4.389-2.926-10.24-10.24-10.24h-36.571c-4.389 0-10.24 2.926-10.24 10.24 0 2.926 0 4.389-1.463 5.851v40.96h58.514v-46.811zM705.097 202.24c0-4.389-2.926-10.24-10.24-10.24h-38.034c-4.389 0-10.24 2.926-10.24 10.24v45.349h58.514v-45.349zM754.834 297.326c0-11.703-10.24-21.943-21.943-21.943h-536.869c-11.703 0-21.943 10.24-21.943 21.943v118.491c0 11.703 10.24 21.943 21.943 21.943h409.6c32.183-33.646 76.069-54.126 125.806-54.126 7.314 0 14.629 0 21.943 1.463v-87.771zM731.429 412.891c-40.96 0-78.994 17.554-105.326 45.349 0 1.463-1.463 1.463-1.463 1.463 0 1.463-1.463 1.463-1.463 2.926 0 0-1.463 0-1.463 1.463 0 0 0 0-1.463 0-21.943 26.331-35.109 58.514-35.109 95.086 0 80.457 65.829 146.286 146.286 146.286s146.286-65.829 146.286-146.286c1.463-80.457-64.366-146.286-146.286-146.286zM810.423 632.32l-102.4-115.566-54.126 52.663c-5.851 5.851-14.629 5.851-20.48 0s-5.851-14.629 0-20.48l64.366-62.903c2.926-2.926 5.851-4.389 10.24-4.389 0 0 0 0 0 0 4.389 0 7.314 1.463 10.24 4.389l112.64 127.269c5.851 5.851 4.389 14.629-1.463 20.48-4.389 5.851-13.166 4.389-19.017-1.463z" />
<glyph unicode="&#xe924;" glyph-name="Category-Caravan" d="M807.497 705.463h-590.994c-54.126 0-99.474-43.886-99.474-99.474v-294.034c0-30.72 24.869-57.051 57.051-57.051h244.297v14.629c0 52.663 42.423 95.086 95.086 95.086s95.086-42.423 95.086-95.086v-14.629h244.297c30.72 0 57.051 24.869 57.051 57.051v295.497c-2.926 54.126-46.811 98.011-102.4 98.011zM697.783 285.623v226.743c0 16.091 11.703 27.794 27.794 27.794h58.514c16.091 0 27.794-11.703 27.794-27.794v-226.743h-114.103zM879.177 311.954c0-16.091-13.166-27.794-27.794-27.794h-10.24v228.206c0 32.183-24.869 57.051-57.051 57.051h-58.514c-32.183 0-57.051-24.869-57.051-57.051v-228.206h-36.571c-7.314 61.44-58.514 108.251-121.417 108.251s-115.566-48.274-121.417-108.251h-215.040c-16.091 0-27.794 13.166-27.794 27.794v294.034c0 39.497 32.183 70.217 70.217 70.217h592.457c39.497 0 70.217-30.72 70.217-68.754v-295.497zM512 351.451c-43.886 0-80.457-36.571-80.457-80.457s36.571-80.457 80.457-80.457c43.886 0 80.457 36.571 80.457 80.457 0 45.349-36.571 80.457-80.457 80.457zM512 219.794c-29.257 0-52.663 23.406-52.663 52.663s23.406 52.663 52.663 52.663c29.257 0 52.663-23.406 52.663-52.663s-23.406-52.663-52.663-52.663zM413.989 622.080h-156.526c-32.183 0-57.051-24.869-57.051-57.051v-45.349c0-32.183 24.869-57.051 57.051-57.051h156.526c30.72 0 57.051 24.869 57.051 57.051v45.349c0 32.183-24.869 57.051-57.051 57.051zM443.246 519.68c0-16.091-13.166-27.794-27.794-27.794h-157.989c-16.091 0-27.794 11.703-27.794 27.794v45.349c0 16.091 11.703 27.794 27.794 27.794h156.526c16.091 0 27.794-11.703 27.794-27.794v-45.349z" />
<glyph unicode="&#xe925;" glyph-name="Category-Cars" d="M892.343 524.069h-61.44c0 0 0 0-1.463 0l-43.886 130.194c-14.629 39.497-52.663 65.829-93.623 65.829h-358.4c-42.423 0-80.457-26.331-93.623-65.829l-46.811-130.194c0 0-1.463 0-1.463 0h-59.977c-7.314 0-14.629-5.851-14.629-14.629 0-7.314 5.851-14.629 14.629-14.629h24.869c-5.851-8.777-8.777-19.017-8.777-29.257v-136.046c0-29.257 21.943-52.663 49.737-55.589v-55.589c0-23.406 19.017-42.423 42.423-42.423h42.423c23.406 0 42.423 17.554 42.423 42.423v55.589h368.64v-54.126c0-23.406 19.017-42.423 42.423-42.423h42.423c23.406 0 42.423 19.017 42.423 42.423v54.126c30.72 0 57.051 26.331 57.051 57.051v136.046c0 11.703-2.926 20.48-8.777 29.257h23.406c7.314 0 14.629 5.851 14.629 14.629 0 5.851-5.851 13.166-14.629 13.166zM315.977 524.069c5.851 21.943 26.331 39.497 49.737 39.497 24.869 0 45.349-17.554 49.737-39.497h-99.474zM267.703 644.023c8.777 27.794 36.571 46.811 67.291 46.811h358.4c29.257 0 57.051-19.017 67.291-46.811l40.96-121.417h-355.474c-5.851 38.034-39.497 67.291-78.994 67.291s-73.143-29.257-78.994-67.291h-62.903l42.423 121.417zM295.497 218.331c0-10.24-7.314-14.629-14.629-14.629h-42.423c-7.314 0-14.629 5.851-14.629 14.629v55.589h70.217v-55.589zM791.406 219.794c0-7.314-5.851-14.629-14.629-14.629h-42.423c-7.314 0-14.629 5.851-14.629 14.629v54.126h70.217v-54.126zM846.994 329.509c0-14.629-13.166-27.794-27.794-27.794h-8.777c-1.463 1.463-4.389 1.463-5.851 1.463h-99.474c-1.463 0-4.389 0-5.851-1.463h-494.446c-16.091 0-27.794 11.703-27.794 27.794v136.046c0 16.091 11.703 27.794 27.794 27.794h614.4c16.091 0 27.794-11.703 27.794-27.794v-136.046zM311.589 411.429h-61.44c-7.314 0-14.629-5.851-14.629-14.629 0-7.314 5.851-14.629 14.629-14.629h61.44c7.314 0 14.629 5.851 14.629 14.629s-7.314 14.629-14.629 14.629zM775.314 411.429h-61.44c-7.314 0-14.629-5.851-14.629-14.629 0-7.314 5.851-14.629 14.629-14.629h61.44c7.314 0 14.629 5.851 14.629 14.629s-5.851 14.629-14.629 14.629z" />
<glyph unicode="&#xe926;" glyph-name="Category-Filing-cabinet" d="M772.389 472.869v313.051c0 32.183-24.869 57.051-55.589 57.051h-411.063c-32.183 0-57.051-24.869-57.051-57.051v-642.194c0-26.331 17.554-48.274 42.423-54.126v-21.943c0-7.314 5.851-14.629 14.629-14.629s14.629 5.851 14.629 14.629v20.48h383.269v-20.48c0-7.314 5.851-14.629 14.629-14.629s14.629 5.851 14.629 14.629v23.406c10.24 2.926 19.017 7.314 26.331 16.091 10.24 10.24 16.091 24.869 14.629 38.034v314.514c1.463 1.463 1.463 4.389 1.463 5.851s-1.463 4.389-2.926 7.314zM588.069 815.177l-19.017-35.109c-4.389-8.777-13.166-14.629-23.406-14.629h-152.137c-10.24 0-19.017 5.851-24.869 14.629l-17.554 35.109h236.983zM277.943 785.92c0 16.091 11.703 27.794 27.794 27.794h13.166l24.869-46.811c8.777-19.017 27.794-30.72 49.737-30.72h150.674c20.48 0 39.497 11.703 48.274 29.257l26.331 48.274h98.011c16.091 0 27.794-11.703 27.794-27.794v-305.737h-466.651v305.737zM586.606 452.389l-19.017-35.109c-4.389-8.777-13.166-14.629-23.406-14.629h-150.674c-10.24 0-19.017 5.851-24.869 14.629l-17.554 35.109h235.52zM737.28 124.709c-5.851-5.851-13.166-8.777-20.48-8.777h-411.063c-16.091 0-27.794 11.703-27.794 27.794v307.2h40.96l24.869-46.811c8.777-19.017 27.794-30.72 49.737-30.72h150.674c20.48 0 39.497 11.703 49.737 30.72l26.331 48.274h125.806v-308.663c-1.463-5.851-2.926-13.166-8.777-19.017z" />
<glyph unicode="&#xe927;" glyph-name="Category-Freight" d="M892.343 224.183h-83.383c5.851 8.777 8.777 19.017 8.777 29.257v223.817c0 30.72-24.869 57.051-57.051 57.051h-108.251c4.389 8.777 7.314 17.554 7.314 27.794v223.817c0 32.183-24.869 57.051-57.051 57.051h-229.669c-32.183 0-57.051-24.869-57.051-57.051v-223.817c0-10.24 2.926-20.48 7.314-27.794h-103.863c-32.183 0-57.051-24.869-57.051-57.051v-223.817c0-11.703 2.926-20.48 8.777-29.257h-39.497c-7.314 0-14.629-5.851-14.629-14.629v-141.897c0-7.314 5.851-14.629 14.629-14.629h71.68c7.314 0 14.629 5.851 14.629 14.629v78.994h245.76v-78.994c0-7.314 5.851-14.629 14.629-14.629h71.68c7.314 0 14.629 5.851 14.629 14.629v78.994h244.297v-78.994c0-7.314 5.851-14.629 14.629-14.629h68.754c7.314 0 14.629 5.851 14.629 14.629v143.36c0 5.851-5.851 13.166-14.629 13.166zM700.709 407.040c5.851 4.389 8.777 11.703 8.777 19.017v80.457h52.663c16.091 0 27.794-13.166 27.794-27.794v-223.817c0-16.091-11.703-27.794-27.794-27.794h-229.669c-16.091 0-27.794 11.703-27.794 27.794v222.354c0 16.091 11.703 27.794 27.794 27.794h54.126v-80.457c0-8.777 4.389-17.554 11.703-20.48 2.926-1.463 5.851-1.463 8.777-1.463s5.851 0 8.777 1.463l32.183 13.166 33.646-13.166c7.314-2.926 13.166-1.463 19.017 2.926zM681.691 506.514v-71.68l-23.406 8.777c-5.851 2.926-13.166 2.926-17.554 0l-26.331-8.777v71.68h67.291zM457.874 815.177h65.829v-71.68l-23.406 8.777c-5.851 2.926-13.166 2.926-17.554 0l-23.406-8.777v71.68zM348.16 785.92c0 16.091 11.703 27.794 27.794 27.794h54.126v-80.457c0-8.777 4.389-17.554 11.703-20.48 2.926-1.463 5.851-1.463 8.777-1.463s5.851 0 8.777 1.463l32.183 13.166 33.646-13.166c5.851-1.463 11.703-1.463 17.554 2.926s8.777 11.703 8.777 19.017v80.457h52.663c16.091 0 27.794-11.703 27.794-27.794v-223.817c0-16.091-11.703-27.794-27.794-27.794h-229.669c-16.091 0-27.794 11.703-27.794 27.794v222.354zM301.349 506.514h65.829v-71.68l-23.406 8.777c-5.851 2.926-13.166 2.926-17.554 0l-23.406-8.777v71.68zM191.634 477.257c0 16.091 11.703 27.794 27.794 27.794h54.126v-80.457c0-8.777 4.389-17.554 11.703-20.48 2.926-1.463 5.851-1.463 8.777-1.463s5.851 0 8.777 1.463l32.183 13.166 33.646-13.166c5.851-1.463 11.703-1.463 17.554 2.926s8.777 11.703 8.777 19.017v80.457h52.663c16.091 0 27.794-13.166 27.794-27.794v-223.817c0-16.091-11.703-27.794-27.794-27.794h-228.206c-16.091 0-27.794 11.703-27.794 27.794v222.354zM188.709 80.823h-43.886v64.366h43.886v-64.366zM533.943 80.823h-43.886v64.366h43.886v-64.366zM879.177 80.823h-43.886v64.366h43.886v-64.366zM879.177 174.446h-734.354v20.48h732.891v-20.48z" />
<glyph unicode="&#xe928;" glyph-name="Category-Home-1" d="M845.531 610.377l-286.72 220.891c-19.017 14.629-45.349 16.091-67.291 1.463l-311.589-222.354c-14.629-11.703-23.406-27.794-23.406-45.349v-456.411c1.463-32.183 26.331-55.589 58.514-55.589h598.309c32.183 0 57.051 24.869 57.051 57.051v454.949c-2.926 17.554-10.24 33.646-24.869 45.349zM588.069 80.823h-152.137v247.223c0 16.091 11.703 27.794 27.794 27.794h95.086c16.091 0 27.794-11.703 27.794-27.794v-247.223zM839.68 110.080c0-16.091-11.703-27.794-27.794-27.794h-196.023v245.76c0 32.183-24.869 57.051-57.051 57.051h-95.086c-32.183 0-57.051-24.869-57.051-57.051v-247.223h-193.097c-16.091 0-29.257 11.703-29.257 27.794v456.411c0 7.314 4.389 16.091 13.166 21.943l310.126 222.354c5.851 2.926 11.703 4.389 17.554 4.389s13.166-1.463 17.554-5.851l288.183-220.891c7.314-5.851 11.703-13.166 11.703-21.943v-454.949z" />
<glyph unicode="&#xe929;" glyph-name="Category-Home-2" d="M905.509 579.657l-57.051 119.954c-2.926 4.389-7.314 8.777-13.166 8.777h-13.166v103.863c0 7.314-5.851 14.629-14.629 14.629h-90.697c-7.314 0-14.629-5.851-14.629-14.629v-103.863h-514.926c-5.851 0-10.24-2.926-13.166-8.777l-55.589-119.954c-1.463-4.389-1.463-10.24 1.463-13.166 2.926-4.389 7.314-5.851 11.703-5.851h30.72v-434.469c0-32.183 24.869-57.051 57.051-57.051h588.069c32.183 0 57.051 24.869 57.051 57.051v433.006h29.257c4.389 0 8.777 2.926 11.703 5.851 1.463 4.389 1.463 10.24 0 14.629zM729.966 797.623h64.366v-90.697h-64.366v90.697zM444.709 98.377h-115.566v190.171c0 7.314 2.926 14.629 8.777 20.48 4.389 4.389 11.703 7.314 19.017 7.314l61.44-1.463c14.629 0 26.331-11.703 26.331-26.331v-190.171zM835.291 126.171c0-16.091-11.703-27.794-27.794-27.794h-334.994v188.709c0 30.72-24.869 55.589-54.126 55.589l-59.977 1.463c-14.629 1.463-29.257-4.389-39.497-14.629-11.703-10.24-17.554-24.869-17.554-40.96v-190.171h-81.92c-16.091 0-27.794 11.703-27.794 27.794v433.006h645.12v-433.006zM848.457 586.971h-696.32l42.423 92.16h630.491l42.423-92.16h-19.017zM607.086 270.994h93.623c32.183 0 57.051 24.869 57.051 57.051v93.623c0 32.183-24.869 57.051-57.051 57.051h-93.623c-32.183 0-57.051-24.869-57.051-57.051v-93.623c0-33.646 24.869-57.051 57.051-57.051zM577.829 420.206c0 16.091 11.703 27.794 27.794 27.794h93.623c16.091 0 27.794-11.703 27.794-27.794v-93.623c0-16.091-11.703-27.794-27.794-27.794h-93.623c-16.091 0-27.794 11.703-27.794 27.794v93.623z" />
<glyph unicode="&#xe92a;" glyph-name="Category-Home-3" d="M867.474 449.463l-30.72 10.24v92.16c0 16.091-7.314 32.183-20.48 43.886l-292.571 232.594c-20.48 16.091-48.274 17.554-70.217 1.463l-314.514-234.057c-13.166-10.24-21.943-26.331-21.943-45.349v-438.857c0-32.183 24.869-57.051 57.051-57.051h677.303c32.183 0 57.051 24.869 57.051 58.514v282.331c-1.463 24.869-17.554 46.811-40.96 54.126zM412.526 82.286h-153.6v250.149c0 16.091 11.703 27.794 27.794 27.794h96.549c16.091 0 27.794-11.703 27.794-27.794v-250.149zM525.166 481.646v-370.103c0-10.24 2.926-20.48 7.314-27.794h-92.16v248.686c0 32.183-24.869 57.051-57.051 57.051h-96.549c-32.183 0-57.051-24.869-57.051-57.051v-250.149h-58.514c-16.091 0-27.794 11.703-27.794 27.794v440.32c0 8.777 4.389 17.554 11.703 21.943l314.514 234.057c10.24 7.314 24.869 7.314 35.109-1.463l291.109-232.594c4.389-4.389 10.24-11.703 10.24-21.943v-83.383l-207.726 68.754c-17.554 5.851-35.109 2.926-49.737-8.777-14.629-10.24-23.406-27.794-23.406-45.349zM879.177 113.006c0-16.091-11.703-29.257-27.794-29.257h-270.629c-16.091 0-27.794 11.703-27.794 27.794v370.103c0 8.777 4.389 17.554 11.703 23.406 4.389 4.389 10.24 5.851 16.091 5.851 2.926 0 5.851 0 7.314-1.463l269.166-86.309c11.703-4.389 20.48-16.091 20.48-27.794v-282.331zM716.8 338.286c-43.886 0-80.457-36.571-80.457-80.457s36.571-80.457 80.457-80.457 80.457 36.571 80.457 80.457-36.571 80.457-80.457 80.457zM716.8 205.166c-29.257 0-52.663 23.406-52.663 52.663s23.406 52.663 52.663 52.663c29.257 0 52.663-23.406 52.663-52.663s-24.869-52.663-52.663-52.663z" />
<glyph unicode="&#xe92b;" glyph-name="Category-Home-4" d="M845.531 610.377l-286.72 220.891c-19.017 14.629-45.349 16.091-67.291 1.463l-311.589-222.354c-14.629-11.703-23.406-27.794-23.406-45.349v-456.411c1.463-32.183 26.331-55.589 58.514-55.589h598.309c32.183 0 57.051 24.869 57.051 57.051v454.949c-2.926 17.554-10.24 33.646-24.869 45.349zM588.069 80.823h-152.137v247.223c0 16.091 11.703 27.794 27.794 27.794h95.086c16.091 0 27.794-11.703 27.794-27.794v-247.223zM839.68 110.080c0-16.091-11.703-27.794-27.794-27.794h-196.023v245.76c0 32.183-24.869 57.051-57.051 57.051h-95.086c-32.183 0-57.051-24.869-57.051-57.051v-247.223h-193.097c-16.091 0-29.257 11.703-29.257 27.794v456.411c0 7.314 4.389 16.091 13.166 21.943l310.126 222.354c5.851 2.926 11.703 4.389 17.554 4.389s13.166-1.463 17.554-5.851l288.183-220.891c7.314-5.851 11.703-13.166 11.703-21.943v-454.949zM512 680.594c-43.886 0-80.457-36.571-80.457-80.457s36.571-80.457 80.457-80.457c43.886 0 80.457 36.571 80.457 80.457s-35.109 80.457-80.457 80.457zM512 547.474c-29.257 0-52.663 23.406-52.663 52.663s23.406 52.663 52.663 52.663c29.257 0 52.663-23.406 52.663-52.663s-23.406-52.663-52.663-52.663z" />
<glyph unicode="&#xe92c;" glyph-name="Category-Home-5" d="M849.92 464.091h-324.754v206.263c0 26.331-17.554 48.274-43.886 54.126l-294.034 70.217c-16.091 4.389-33.646 1.463-48.274-10.24-13.166-8.777-21.943-26.331-21.943-42.423v-586.606c0-32.183 24.869-57.051 57.051-57.051h336.457c0 0 1.463 0 1.463 0s1.463 0 1.463 0h336.457c32.183 0 57.051 24.869 57.051 57.051v251.611c0 32.183-24.869 57.051-57.051 57.051zM373.029 126.171h-102.4v169.691c0 16.091 11.703 27.794 27.794 27.794h46.811c16.091 0 27.794-11.703 27.794-27.794v-169.691zM495.909 126.171h-96.549v169.691c0 32.183-24.869 57.051-57.051 57.051h-46.811c-32.183 0-57.051-24.869-57.051-57.051v-169.691h-67.291c-16.091 0-27.794 11.703-27.794 27.794v588.069c0 8.777 4.389 17.554 11.703 21.943 4.389 4.389 10.24 5.851 16.091 5.851 2.926 0 4.389 0 7.314-1.463l295.497-70.217c11.703-2.926 21.943-14.629 21.943-27.794v-544.183zM811.886 126.171h-217.966v51.2h217.966v-51.2zM811.886 205.166h-217.966v27.794h217.966v-27.794zM811.886 262.217h-217.966v26.331h217.966v-26.331zM593.92 316.343c0 16.091 11.703 27.794 27.794 27.794h162.377c16.091 0 27.794-11.703 27.794-27.794h-217.966zM879.177 153.966c0-16.091-11.703-27.794-27.794-27.794h-10.24v190.171c0 32.183-24.869 57.051-57.051 57.051h-162.377c-32.183 0-57.051-24.869-57.051-57.051v-190.171h-40.96v308.663h326.217c16.091 0 27.794-11.703 27.794-27.794v-253.074zM346.697 639.634v0h-51.2c-32.183 0-57.051-24.869-57.051-57.051v-49.737c0-32.183 24.869-57.051 57.051-57.051h51.2c32.183 0 57.051 24.869 57.051 57.051v49.737c0 32.183-26.331 57.051-57.051 57.051zM374.491 534.309c0-16.091-11.703-27.794-27.794-27.794h-48.274c-16.091 0-27.794 11.703-27.794 27.794v49.737c0 16.091 11.703 27.794 27.794 27.794h48.274c14.629 0 27.794-13.166 27.794-27.794v-49.737z" />
<glyph unicode="&#xe92d;" glyph-name="Category-Home" d="M885.029 502.126l-172.617 127.269c-1.463 1.463-2.926 4.389-2.926 8.777l-2.926 92.16c0 16.091-7.314 32.183-20.48 42.423-13.166 11.703-32.183 14.629-48.274 11.703l-476.891-119.954c-26.331-5.851-43.886-27.794-43.886-54.126v-444.709c0-32.183 24.869-57.051 57.051-57.051h677.303c32.183 0 57.051 24.869 57.051 57.051v291.109c-1.463 17.554-10.24 35.109-23.406 45.349zM482.743 137.874h-119.954v193.097c0 16.091 11.703 27.794 27.794 27.794h62.903c16.091 0 27.794-11.703 27.794-27.794v-193.097zM680.229 625.006v-487.131h-169.691v193.097c0 32.183-24.869 57.051-57.051 57.051h-62.903c-32.183 0-57.051-24.869-57.051-57.051v-193.097h-160.914c-16.091 0-27.794 11.703-27.794 27.794v444.709c0 13.166 8.777 24.869 21.943 27.794l475.429 119.954c1.463 0 4.389 0 5.851 0 7.314 0 13.166-2.926 19.017-7.314 7.314-5.851 10.24-13.166 10.24-21.943l2.926-92.16c0-2.926 0-5.851 1.463-8.777-1.463 0-1.463-1.463-1.463-2.926zM879.177 165.669c0-16.091-11.703-27.794-27.794-27.794h-141.897v459.337l159.451-118.491c7.314-4.389 11.703-13.166 11.703-21.943v-291.109z" />
<glyph unicode="&#xe92e;" glyph-name="Category-Man-power" d="M184.32 53.029c-1.463 0-4.389 0-5.851 1.463-5.851 2.926-8.777 7.314-8.777 13.166v326.217c0 5.851 2.926 10.24 8.777 13.166 45.349 20.48 93.623 32.183 137.509 33.646v0c45.349 0 89.234-13.166 127.269-38.034 2.926 1.463 81.92 33.646 157.989 26.331l-95.086 248.686c0 0 1.463 0 1.463 0v1.463c-24.869-14.629-89.234-17.554-89.234-17.554-43.886 0-65.829 16.091-65.829 48.274-1.463 109.714 38.034 133.12 71.68 133.12 49.737 0 112.64-49.737 152.137-98.011 16.091-20.48 36.571-38.034 57.051-55.589l16.091-14.629c42.423-36.571 156.526-134.583 171.154-283.794 0 0 0 0 0-1.463 5.851-4.389 29.257-23.406 30.72-49.737 0-19.017-8.777-35.109-29.257-51.2 0 0 0 0-1.463 0-71.68-93.623-222.354-109.714-239.909-111.177 0 0-1.463 0-1.463-1.463-17.554-13.166-124.343-92.16-234.057-92.16-17.554 0-33.646 2.926-49.737 5.851-1.463 0-4.389 1.463-5.851 2.926-2.926 0-8.777 1.463-16.091 1.463-27.794 0-55.589-13.166-81.92-36.571 0-2.926-2.926-4.389-7.314-4.389zM198.949 385.097v-288.183c24.869 17.554 51.2 26.331 77.531 26.331 14.629 0 24.869-1.463 29.257-4.389 13.166-2.926 26.331-4.389 40.96-4.389 108.251 0 216.503 86.309 217.966 86.309s1.463 1.463 2.926 1.463h1.463c2.926 1.463 5.851 2.926 11.703 2.926 1.463 0 150.674 11.703 219.429 98.011 1.463 2.926 2.926 4.389 5.851 7.314v0c0 0 0 0-1.463-1.463 20.48 16.091 20.48 26.331 20.48 29.257-1.463 11.703-14.629 24.869-19.017 27.794 0 0-1.463 1.463-1.463 1.463-4.389 2.926-10.24 10.24-10.24 20.48-13.166 136.046-121.417 229.669-160.914 264.777l-17.554 14.629c-21.943 19.017-43.886 38.034-61.44 59.977-35.109 43.886-92.16 87.771-130.194 87.771s-45.349-57.051-45.349-103.863c0-7.314 0-19.017 38.034-19.017 33.646 0 70.217 10.24 77.531 13.166 1.463 0 1.463 1.463 2.926 1.463 14.629 5.851 29.257-1.463 35.109-16.091l96.549-250.149c2.926-7.314 2.926-19.017-2.926-26.331s-13.166-10.24-23.406-10.24c-70.217 7.314-146.286-23.406-146.286-24.869-11.703-4.389-20.48-1.463-26.331 2.926-32.183 21.943-70.217 32.183-111.177 32.183-39.497-2.926-80.457-11.703-119.954-29.257zM286.72 104.229c0-1.463 0-2.926 0-2.926s0 1.463 0 2.926zM826.514 297.326c0 0 0 0 0 0s0 0 0 0zM604.16 431.909c0 0-1.463-1.463-1.463-1.463s0 0 1.463 1.463c0-1.463-1.463-1.463 0 0z" />
<glyph unicode="&#xe92f;" glyph-name="Category-Motorbikes" d="M751.909 790.309h-38.034c-4.389 0-8.777 2.926-11.703 7.314v4.389c0 23.406-17.554 40.96-40.96 40.96h-285.257c-21.943 0-40.96-19.017-40.96-40.96v-5.851c-1.463-4.389-5.851-5.851-11.703-5.851h-52.663c-36.571 0-65.829-29.257-65.829-65.829s27.794-64.366 65.829-64.366h70.217l20.48-24.869c-48.274-4.389-84.846-45.349-84.846-93.623v-318.903c0-52.663 42.423-95.086 95.086-95.086h59.977c7.314-42.423 45.349-74.606 90.697-74.606 43.886 0 81.92 32.183 90.697 74.606h38.034c52.663 0 95.086 42.423 95.086 95.086v318.903c0 43.886-30.72 81.92-71.68 92.16l21.943 26.331h57.051c36.571 0 65.829 29.257 65.829 65.829-1.463 36.571-29.257 64.366-67.291 64.366zM334.994 687.909h-62.903c-21.943 0-38.034 14.629-38.034 36.571 0 20.48 17.554 38.034 38.034 38.034h52.663c4.389 0 7.314 0 11.703 1.463v-76.069zM522.24 80.823c-35.109 0-62.903 27.794-62.903 62.903v136.046c0 35.109 27.794 62.903 62.903 62.903 33.646 0 62.903-29.257 62.903-62.903v-138.971c0-1.463 0-2.926 1.463-4.389-5.851-29.257-32.183-55.589-64.366-55.589zM716.8 541.623v-318.903c0-36.571-29.257-65.829-65.829-65.829h-36.571v124.343c0 51.2-40.96 92.16-92.16 92.16 0 0 0 0 0 0s0 0 0 0c-51.2 0-92.16-40.96-92.16-92.16v-125.806h-57.051c-36.571 0-65.829 29.257-65.829 65.829v320.366c0 36.571 29.257 65.829 65.829 65.829h71.68c7.314-36.571 39.497-64.366 77.531-64.366 20.48 0 40.96 8.777 55.589 23.406 11.703 11.703 17.554 26.331 20.48 42.423h52.663c35.109-1.463 65.829-30.72 65.829-67.291zM469.577 626.469c2.926 26.331 23.406 46.811 49.737 46.811s48.274-20.48 49.737-45.349c0-1.463-1.463-2.926-1.463-5.851 0-13.166-4.389-26.331-13.166-35.109s-21.943-14.629-35.109-14.629c-27.794 0-51.2 23.406-51.2 51.2 2.926 0 2.926 1.463 1.463 2.926zM672.914 803.474v-125.806l-33.646-40.96h-40.96c-7.314 36.571-39.497 64.366-77.531 64.366s-71.68-27.794-77.531-64.366h-43.886l-33.646 40.96v125.806c0 1.463 0 2.926 0 2.926 1.463 5.851 7.314 8.777 11.703 8.777h285.257c5.851 0 10.24-2.926 11.703-8.777-1.463-1.463-1.463-1.463-1.463-2.926zM751.909 687.909h-49.737v76.069c2.926-1.463 7.314-1.463 11.703-1.463h38.034c21.943 0 38.034-16.091 38.034-36.571s-17.554-38.034-38.034-38.034z" />
<glyph unicode="&#xe930;" glyph-name="Category-Office-move" d="M826.514 601.6h-64.366c-7.314 0-14.629-5.851-14.629-14.629 0-7.314 5.851-14.629 14.629-14.629h19.017l-23.406-187.246c-4.389 1.463-10.24 2.926-16.091 2.926h-17.554v397.897c0 32.183-24.869 57.051-57.051 57.051h-310.126c-32.183 0-57.051-24.869-57.051-57.051v-397.897h-19.017c-4.389 0-10.24-1.463-14.629-1.463l-23.406 190.171h19.017c7.314 0 14.629 5.851 14.629 14.629s-5.851 14.629-14.629 14.629h-64.366c-7.314 0-14.629-5.851-14.629-14.629s5.851-14.629 14.629-14.629h17.554l26.331-203.337c0 0 0 0 0-1.463-10.24-10.24-16.091-23.406-16.091-39.497v-11.703c0-32.183 24.869-57.051 57.051-57.051h215.040v-108.251l-131.657-30.72c0 19.017-14.629 33.646-33.646 33.646h-2.926c-19.017 0-33.646-14.629-33.646-33.646v-38.034c0-19.017 14.629-33.646 33.646-33.646h2.926c19.017 0 33.646 16.091 33.646 33.646v8.777l146.286 35.109 146.286-35.109v-8.777c0-19.017 16.091-33.646 33.646-33.646h2.926c19.017 0 33.646 14.629 33.646 33.646v38.034c0 19.017-14.629 33.646-33.646 33.646h-2.926c-19.017 0-33.646-14.629-33.646-33.646v0l-131.657 30.72v108.251h216.503c14.629 0 30.72 5.851 40.96 17.554 10.24 10.24 14.629 24.869 14.629 39.497v11.703c0 14.629-5.851 27.794-14.629 38.034 0 0 0 0 0 0l26.331 203.337h17.554c7.314 0 14.629 5.851 14.629 14.629-1.463 7.314-8.777 13.166-16.091 13.166zM336.457 86.674c0-2.926-2.926-5.851-5.851-5.851h-2.926c-2.926 0-5.851 1.463-5.851 5.851v38.034c0 2.926 1.463 5.851 5.851 5.851h2.926c2.926 0 5.851-1.463 5.851-5.851v-38.034zM687.543 124.709c0 2.926 1.463 5.851 5.851 5.851h2.926c2.926 0 5.851-1.463 5.851-5.851v-38.034c0-2.926-1.463-5.851-5.851-5.851h-2.926c-2.926 0-5.851 2.926-5.851 5.851v38.034zM400.823 815.177h220.891v-65.829c0-16.091-13.166-29.257-29.257-29.257h-162.377c-16.091 0-29.257 13.166-29.257 29.257v65.829zM329.143 785.92c0 16.091 11.703 27.794 27.794 27.794h16.091v-65.829c0-32.183 26.331-58.514 58.514-58.514h162.377c32.183 0 58.514 26.331 58.514 58.514v67.291h17.554c16.091 0 27.794-11.703 27.794-27.794v-397.897h-368.64v396.434zM762.149 301.714c-5.851-5.851-13.166-8.777-20.48-8.777h-459.337c-16.091 0-27.794 11.703-27.794 27.794v11.703c0 16.091 11.703 27.794 27.794 27.794h457.874c16.091 0 27.794-11.703 27.794-27.794v-11.703c1.463-7.314-1.463-14.629-5.851-19.017zM582.217 538.697h-140.434c-27.794 0-49.737-21.943-49.737-49.737v-13.166c0-7.314 5.851-14.629 14.629-14.629 7.314 0 14.629 5.851 14.629 14.629v13.166c0 11.703 8.777 20.48 20.48 20.48h140.434c11.703 0 20.48-8.777 20.48-20.48v-13.166c0-7.314 5.851-14.629 14.629-14.629s14.629 5.851 14.629 14.629v13.166c0 27.794-21.943 49.737-49.737 49.737z" />
<glyph unicode="&#xe931;" glyph-name="Category-Parcels-and-packages" d="M892.343 633.783v0 0c-4.389 7.314-10.24 14.629-16.091 20.48l-124.343 119.954c-17.554 17.554-42.423 27.794-68.754 27.794h-345.234c-26.331 0-51.2-10.24-68.754-27.794l-122.88-119.954c-5.851-5.851-10.24-13.166-14.629-20.48v0 0c-8.777-14.629-14.629-33.646-14.629-49.737v-392.046c0-54.126 43.886-99.474 99.474-99.474h592.457c54.126 0 99.474 43.886 99.474 99.474v392.046c-1.463 17.554-7.314 35.109-16.091 49.737zM732.891 755.2l124.343-119.954h-219.429l-59.977 138.971h106.789c19.017 0 36.571-7.314 48.274-19.017zM614.4 605.989v-174.080c0-1.463 0-1.463-1.463-2.926 0 0-1.463 0-2.926 0l-93.623 27.794c-5.851 2.926-13.166 2.926-19.017 0l-93.623-27.794h-1.463c0 0-1.463 0-1.463 1.463 0 0-1.463 1.463-1.463 1.463v174.080h215.040zM406.674 635.246l59.977 138.971h78.994l59.977-138.971h-198.949zM289.646 755.2c13.166 13.166 30.72 20.48 49.737 20.48h98.011l-59.977-138.971h-210.651l122.88 118.491zM879.177 192c0-39.497-32.183-70.217-70.217-70.217h-592.457c-39.497 0-70.217 32.183-70.217 70.217v392.046c0 7.314 1.463 14.629 4.389 21.943h220.891v-175.543c0-10.24 5.851-19.017 14.629-24.869 5.851-2.926 11.703-5.851 17.554-5.851 2.926 0 7.314 0 10.24 1.463l93.623 27.794h1.463l95.086-27.794c10.24-2.926 20.48-1.463 27.794 4.389s13.166 14.629 13.166 24.869v175.543h231.131c2.926-7.314 4.389-14.629 4.389-21.943v-392.046z" />
<glyph unicode="&#xe932;" glyph-name="Device-Notification-1" d="M497.371 674.743h-108.251c-7.314 0-14.629-5.851-14.629-14.629 0-7.314 5.851-14.629 14.629-14.629h108.251c7.314 0 14.629 5.851 14.629 14.629s-5.851 14.629-14.629 14.629zM769.463 456.777v209.189c0 58.514-46.811 105.326-105.326 105.326h-441.783c-58.514 0-105.326-46.811-105.326-105.326v-460.8c0-7.314 5.851-14.629 14.629-14.629s14.629 5.851 14.629 14.629v343.771h596.846v-90.697h-1.463c-92.16 0-166.766-74.606-166.766-166.766s74.606-166.766 166.766-166.766 165.303 76.069 165.303 168.229c0 81.92-58.514 149.211-137.509 163.84zM144.823 578.194v89.234c0 42.423 35.109 77.531 77.531 77.531h441.783c42.423 0 77.531-35.109 77.531-77.531v-89.234h-596.846zM740.206 153.966c-76.069 0-137.509 61.44-137.509 137.509s61.44 137.509 137.509 137.509 137.509-61.44 137.509-137.509-61.44-137.509-137.509-137.509zM740.206 257.829c-7.314 0-14.629 5.851-14.629 14.629v98.011c0 7.314 5.851 14.629 14.629 14.629s14.629-5.851 14.629-14.629v-98.011c0-8.777-5.851-14.629-14.629-14.629zM740.206 237.349c-10.24 0-17.554-7.314-17.554-17.554s7.314-17.554 17.554-17.554c10.24 0 17.554 7.314 17.554 17.554s-7.314 17.554-17.554 17.554z" />
<glyph unicode="&#xe933;" glyph-name="General-Wand" d="M887.954 721.554l-70.217 21.943-21.943 70.217c0 0 0 1.463 0 1.463-4.389 11.703-16.091 17.554-29.257 17.554-11.703-1.463-21.943-8.777-24.869-20.48l-21.943-70.217-68.754-21.943c-11.703-2.926-20.48-14.629-20.48-26.331s7.314-23.406 19.017-26.331l70.217-23.406 23.406-65.829c2.926-11.703 14.629-20.48 26.331-20.48s23.406 7.314 26.331 19.017l21.943 70.217 68.754 21.943c11.703 2.926 20.48 14.629 20.48 26.331s-7.314 23.406-19.017 26.331zM808.96 673.28c-8.777-2.926-16.091-10.24-17.554-17.554l-21.943-68.754-23.406 65.829c-2.926 8.777-10.24 16.091-17.554 17.554l-70.217 21.943 70.217 21.943c8.777 2.926 16.091 10.24 17.554 17.554l21.943 70.217c0 0 1.463 1.463 1.463 1.463l21.943-68.754c2.926-8.777 10.24-16.091 17.554-17.554l70.217-21.943-70.217-21.943zM807.497 396.8l-36.571 11.703-11.703 36.571c-2.926 10.24-11.703 17.554-21.943 17.554-11.703 0-21.943-5.851-26.331-17.554l-11.703-36.571-36.571-11.703c-10.24-2.926-17.554-11.703-19.017-21.943 0-11.703 5.851-21.943 17.554-26.331l36.571-11.703 11.703-36.571c2.926-10.24 11.703-17.554 21.943-19.017 0 0 1.463 0 1.463 0 10.24 0 20.48 7.314 24.869 17.554l11.703 36.571 36.571 11.703c10.24 2.926 17.554 11.703 19.017 21.943 0 13.166-5.851 23.406-17.554 27.794zM760.686 363.154c-8.777-2.926-14.629-8.777-17.554-17.554l-8.777-29.257-8.777 29.257c-2.926 8.777-8.777 14.629-17.554 17.554l-29.257 8.777 29.257 8.777c8.777 2.926 14.629 8.777 17.554 17.554l8.777 29.257 8.777-29.257c2.926-8.777 8.777-14.629 17.554-17.554l29.257-8.777-29.257-8.777zM668.526 524.069c0 14.629-5.851 29.257-16.091 39.497l-35.109 35.109c-21.943 21.943-58.514 21.943-78.994 0l-105.326-105.326c0 0 0 0 0 0l-299.886-299.886c-21.943-21.943-21.943-57.051 0-78.994l35.109-35.109c10.24-10.24 24.869-16.091 39.497-16.091s29.257 5.851 39.497 16.091l405.211 405.211c10.24 10.24 16.091 24.869 16.091 39.497zM631.954 505.051l-95.086-95.086-74.606 74.606 95.086 95.086c10.24 10.24 29.257 10.24 39.497 0l35.109-35.109c5.851-5.851 8.777-11.703 8.777-20.48 0-7.314-2.926-14.629-8.777-19.017z" />
<glyph unicode="&#xe934;" glyph-name="Inventory-Fridge-2" d="M773.851 842.971h-523.703c-30.72 0-55.589-24.869-55.589-55.589v-645.12c0-29.257 23.406-54.126 54.126-55.589v-19.017c0-7.314 5.851-14.629 14.629-14.629 7.314 0 14.629 5.851 14.629 14.629v20.48h466.651v-20.48c0-7.314 5.851-14.629 14.629-14.629 7.314 0 14.629 5.851 14.629 14.629v20.48h2.926c29.257 0 55.589 24.869 55.589 54.126v645.12c-2.926 30.72-27.794 55.589-58.514 55.589zM222.354 787.383c0 14.629 11.703 26.331 26.331 26.331h248.686v-526.629h-275.017v500.297zM801.646 142.263c0-13.166-11.703-24.869-26.331-24.869h-525.166c-14.629 0-26.331 11.703-26.331 26.331v117.029h577.829v-118.491zM801.646 288.549h-275.017v526.629h248.686c14.629 0 26.331-11.703 26.331-26.331v-500.297zM422.766 171.52h177.006c7.314 0 14.629 5.851 14.629 14.629s-5.851 14.629-14.629 14.629h-177.006c-7.314 0-14.629-5.851-14.629-14.629s7.314-14.629 14.629-14.629zM431.543 686.446c-7.314 0-14.629-5.851-14.629-14.629v-241.371c0-7.314 5.851-14.629 14.629-14.629 7.314 0 14.629 5.851 14.629 14.629v241.371c0 8.777-7.314 14.629-14.629 14.629zM592.457 686.446c-7.314 0-14.629-5.851-14.629-14.629v-241.371c0-7.314 5.851-14.629 14.629-14.629s14.629 5.851 14.629 14.629v241.371c0 8.777-7.314 14.629-14.629 14.629zM365.714 651.337h-102.4c-7.314 0-14.629-5.851-14.629-14.629v-171.154c0-7.314 5.851-14.629 14.629-14.629h102.4c7.314 0 14.629 5.851 14.629 14.629v171.154c-1.463 8.777-7.314 14.629-14.629 14.629zM351.086 480.183h-73.143v80.457h21.943v-27.794c0-7.314 5.851-14.629 14.629-14.629s14.629 5.851 14.629 14.629v27.794h21.943v-80.457zM351.086 588.434h-73.143v35.109h73.143v-35.109z" />
<glyph unicode="&#xe935;" glyph-name="Time-Clock" d="M512 842.971c-217.966 0-394.971-177.006-394.971-394.971s177.006-394.971 394.971-394.971 394.971 177.006 394.971 394.971-177.006 394.971-394.971 394.971zM512 80.823c-201.874 0-367.177 165.303-367.177 367.177s165.303 367.177 367.177 367.177 367.177-165.303 367.177-367.177-165.303-367.177-367.177-367.177zM751.909 462.629h-225.28v253.074c0 8.777-5.851 14.629-14.629 14.629s-14.629-5.851-14.629-14.629v-267.703c0-8.777 5.851-14.629 14.629-14.629h239.909c8.777 0 14.629 5.851 14.629 14.629s-5.851 14.629-14.629 14.629z" />
<glyph unicode="&#xe936;" glyph-name="Time-Clocks-back" d="M906.971 502.126c0 137.509-74.606 266.24-196.023 333.531-7.314 4.389-16.091 1.463-20.48-5.851s-1.463-16.091 5.851-20.48c112.64-59.977 181.394-178.469 181.394-307.2 0-174.080-131.657-323.291-299.886-346.697l40.96 58.514c4.389 7.314 2.926 16.091-2.926 20.48-7.314 4.389-16.091 2.926-20.48-2.926l-61.44-89.234c0-1.463 0-1.463-1.463-2.926 0-1.463-1.463-1.463-1.463-2.926s0-1.463 0-2.926 0-1.463 0-2.926 0-1.463 1.463-2.926c0-1.463 0-1.463 1.463-2.926 0-1.463 1.463-1.463 1.463-1.463l1.463-1.463 92.16-61.44c2.926-1.463 5.851-2.926 8.777-2.926 4.389 0 8.777 2.926 11.703 5.851 4.389 7.314 2.926 16.091-4.389 20.48l-64.366 43.886c184.32 24.869 326.217 187.246 326.217 374.491zM675.84 528.457c0 155.063-125.806 280.869-279.406 280.869s-279.406-125.806-279.406-280.869c0-153.6 125.806-279.406 279.406-279.406s279.406 125.806 279.406 279.406zM396.434 276.846c-138.971 0-251.611 112.64-251.611 251.611s112.64 253.074 251.611 253.074 251.611-114.103 251.611-253.074c0-138.971-114.103-251.611-251.611-251.611zM564.663 541.623h-153.6v174.080c0 8.777-5.851 14.629-14.629 14.629s-14.629-5.851-14.629-14.629v-187.246c0-8.777 5.851-14.629 14.629-14.629h168.229c8.777 0 14.629 5.851 14.629 14.629-1.463 8.777-7.314 13.166-14.629 13.166z" />
<glyph unicode="&#xe937;" glyph-name="Time-Clocks-forward" d="M327.68 83.749c-112.64 61.44-181.394 179.931-181.394 307.2 0 174.080 130.194 323.291 299.886 348.16l-40.96-58.514c-4.389-5.851-2.926-14.629 2.926-19.017 2.926-1.463 5.851-2.926 8.777-2.926 4.389 0 8.777 1.463 11.703 5.851l61.44 89.234c0 0 0 0 0 0s0 0 0 0c0 1.463 0 1.463 1.463 2.926 0 1.463 1.463 1.463 1.463 2.926s0 1.463 0 2.926 0 1.463 0 2.926 0 1.463-1.463 2.926c0 1.463 0 1.463-1.463 2.926 0 1.463-1.463 1.463-1.463 1.463s-1.463 1.463-1.463 1.463c0 0 0 0 0 0s0 0 0 0l-92.16 61.44c-5.851 4.389-14.629 2.926-19.017-4.389-4.389-5.851-2.926-14.629 4.389-19.017l64.366-43.886c-185.783-26.331-327.68-187.246-327.68-375.954 0-138.971 74.606-266.24 196.023-332.069 1.463-1.463 4.389-1.463 7.314-1.463 4.389 0 10.24 2.926 11.703 7.314 4.389 5.851 1.463 14.629-4.389 17.554zM627.566 645.486c-153.6 0-279.406-125.806-279.406-279.406 0-155.063 125.806-280.869 279.406-280.869s279.406 125.806 279.406 280.869c0 153.6-125.806 279.406-279.406 279.406zM627.566 114.469c-138.971 0-251.611 112.64-251.611 253.074 0 138.971 112.64 251.611 251.611 251.611s251.611-112.64 251.611-253.074c0-138.971-112.64-251.611-251.611-251.611zM794.331 380.709h-152.137v172.617c0 7.314-5.851 14.629-14.629 14.629-7.314 0-14.629-5.851-14.629-14.629v-185.783c0-7.314 5.851-14.629 14.629-14.629h166.766c7.314 0 14.629 5.851 14.629 14.629s-7.314 13.166-14.629 13.166z" />
<glyph unicode="&#xe938;" glyph-name="Box-Add-to-box" d="M797.257 306.103h-73.143v73.143c0 7.314-5.851 14.629-14.629 14.629s-14.629-5.851-14.629-14.629v-73.143h-74.606c-7.314 0-14.629-5.851-14.629-14.629s5.851-14.629 14.629-14.629h74.606v-73.143c0-7.314 5.851-14.629 14.629-14.629s14.629 5.851 14.629 14.629v73.143h73.143c7.314 0 14.629 5.851 14.629 14.629s-7.314 14.629-14.629 14.629zM851.383 428.983v168.229c0 24.869-10.24 51.2-27.794 67.291l-115.566 111.177c-17.554 17.554-40.96 26.331-64.366 26.331h-318.903c-23.406 0-45.349-8.777-64.366-26.331l-114.103-112.64c-17.554-16.091-29.257-40.96-29.257-67.291v-358.4c0-54.126 43.886-99.474 99.474-99.474h368.64c33.646-27.794 77.531-45.349 125.806-45.349 108.251 0 197.486 89.234 197.486 197.486-1.463 55.589-21.943 102.4-57.051 138.971zM498.834 772.754h144.823c17.554 0 33.646-7.314 45.349-19.017l115.566-111.177h-305.737v130.194zM279.406 753.737c13.166 13.166 29.257 19.017 45.349 19.017h146.286v-130.194h-305.737l114.103 111.177zM216.503 168.594c-39.497 0-70.217 32.183-70.217 70.217v358.4c0 5.851 1.463 11.703 2.926 19.017h672.914c1.463-5.851 2.926-11.703 2.926-19.017v-143.36c-32.183 23.406-71.68 36.571-114.103 36.571-108.251 0-197.486-89.234-197.486-197.486 0-46.811 16.091-90.697 43.886-124.343h-340.846zM709.486 123.246c-93.623 0-169.691 76.069-169.691 169.691s76.069 169.691 169.691 169.691 169.691-76.069 169.691-169.691-76.069-169.691-169.691-169.691z" />
<glyph unicode="&#xe939;" glyph-name="Category-Piano-type" d="M778.24 512.366v0c-11.703 4.389-24.869 7.314-39.497 10.24-52.663 13.166-118.491 27.794-124.343 98.011-7.314 130.194-103.863 225.28-226.743 222.354-121.417-1.463-219.429-103.863-219.429-226.743v-452.023c0-16.091 10.24-30.72 23.406-36.571v-17.554c0-32.183 24.869-57.051 57.051-57.051h528.091c30.72 0 55.589 23.406 58.514 57.051v19.017c13.166 7.314 20.48 20.48 20.48 35.109v201.874c1.463 52.663-17.554 122.88-77.531 146.286zM776.777 80.823h-528.091c-16.091 0-27.794 11.703-27.794 27.794v13.166h585.143v-11.703c-1.463-16.091-13.166-29.257-29.257-29.257zM826.514 366.080v-201.874c0-5.851-4.389-13.166-13.166-13.166h-604.16c-5.851 0-13.166 4.389-13.166 13.166v452.023c0 108.251 86.309 197.486 191.634 198.949 1.463 0 2.926 0 4.389 0 103.863 0 187.246-83.383 194.56-196.023 5.851-90.697 90.697-111.177 146.286-124.343 13.166-2.926 26.331-5.851 35.109-10.24 42.423-16.091 59.977-71.68 58.514-118.491z" />
<glyph unicode="&#xe93a;" glyph-name="Category-Piano" d="M807.497 781.531h-590.994c-55.589 0-99.474-45.349-99.474-99.474v-468.114c0-54.126 43.886-99.474 99.474-99.474h592.457c54.126 0 99.474 43.886 99.474 99.474v468.114c-1.463 54.126-45.349 99.474-100.937 99.474zM302.811 143.726h-87.771c-39.497 0-70.217 32.183-70.217 70.217v468.114c0 39.497 32.183 70.217 70.217 70.217h30.72v-315.977c0-32.183 24.869-57.051 57.051-57.051v-235.52zM497.371 143.726h-165.303v236.983h1.463c32.183 0 57.051 24.869 57.051 57.051v314.514h51.2v-315.977c0-32.183 24.869-57.051 57.051-57.051h-1.463v-235.52zM691.931 143.726h-165.303v236.983c32.183 0 57.051 24.869 57.051 57.051v314.514h54.126v-315.977c0-32.183 24.869-57.051 57.051-57.051v-235.52zM879.177 213.943c0-39.497-32.183-70.217-70.217-70.217h-87.771v236.983h1.463c32.183 0 57.051 24.869 57.051 57.051v314.514h29.257c39.497 0 70.217-32.183 70.217-70.217v-468.114z" />
<glyph unicode="&#xe93b;" glyph-name="Category-Specialist" d="M646.583 744.96h-270.629c-32.183 0-57.051-24.869-57.051-57.051v-478.354c0-32.183 24.869-57.051 57.051-57.051h269.166c30.72 0 55.589 23.406 58.514 57.051v479.817c0 30.72-24.869 55.589-57.051 55.589zM645.12 181.76h-269.166c-16.091 0-27.794 11.703-27.794 27.794v479.817c0 16.091 11.703 27.794 27.794 27.794h270.629c16.091 0 27.794-11.703 27.794-27.794v-478.354c0-17.554-13.166-29.257-29.257-29.257zM795.794 636.709c5.851 1.463 8.777 7.314 8.777 13.166v11.703c0 5.851-2.926 11.703-8.777 13.166-20.48 7.314-33.646 27.794-33.646 51.2 0 14.629 5.851 29.257 16.091 39.497 13.166 11.703 17.554 30.72 11.703 46.811-5.851 17.554-21.943 29.257-42.423 30.72h-16.091c-14.629 0-29.257-7.314-36.571-20.48-10.24-14.629-26.331-21.943-45.349-21.943-21.943 0-42.423 13.166-51.2 33.646 0 5.851-5.851 8.777-11.703 8.777h-11.703c-5.851 0-11.703-2.926-13.166-8.777-7.314-20.48-27.794-33.646-51.2-33.646-21.943 0-42.423 13.166-51.2 33.646 0 5.851-5.851 8.777-11.703 8.777h-11.703c-5.851 0-11.703-2.926-13.166-8.777-7.314-20.48-27.794-33.646-51.2-33.646-17.554 0-35.109 8.777-45.349 21.943-5.851 13.166-20.48 20.48-35.109 20.48h-16.091c-17.554 0-33.646-10.24-40.96-27.794s-4.389-38.034 8.777-49.737c10.24-10.24 17.554-26.331 17.554-39.497 0-21.943-13.166-42.423-33.646-51.2-4.389-1.463-7.314-7.314-7.314-13.166v-11.703c0-5.851 2.926-11.703 8.777-13.166 20.48-7.314 33.646-27.794 33.646-51.2 0-21.943-13.166-42.423-33.646-51.2-5.851-1.463-8.777-7.314-8.777-13.166v-11.703c0-5.851 2.926-11.703 8.777-13.166 20.48-7.314 33.646-27.794 33.646-51.2 0-21.943-13.166-42.423-33.646-51.2-5.851 1.463-8.777-4.389-8.777-10.24v-11.703c0-5.851 2.926-11.703 8.777-13.166 20.48-7.314 33.646-27.794 33.646-51.2s-13.166-42.423-33.646-51.2c-5.851-1.463-8.777-7.314-8.777-13.166v-11.703c0-5.851 2.926-11.703 8.777-13.166 20.48-7.314 33.646-27.794 33.646-51.2 0-14.629-5.851-29.257-16.091-39.497-13.166-11.703-17.554-30.72-11.703-46.811 5.851-17.554 21.943-29.257 42.423-30.72h16.091c14.629 0 29.257 7.314 36.571 20.48 10.24 14.629 26.331 21.943 45.349 21.943 21.943 0 42.423-13.166 51.2-33.646 1.463-5.851 7.314-8.777 13.166-8.777h11.703c5.851 0 11.703 2.926 13.166 8.777 7.314 20.48 27.794 33.646 51.2 33.646 21.943 0 42.423-13.166 51.2-33.646 1.463-5.851 7.314-8.777 13.166-8.777h11.703c5.851 0 11.703 2.926 13.166 8.777 7.314 20.48 27.794 33.646 51.2 33.646 17.554 0 35.109-8.777 45.349-21.943 8.777-13.166 23.406-20.48 36.571-20.48h16.091c17.554 0 33.646 10.24 40.96 27.794s4.389 38.034-10.24 51.2c-11.703 10.24-16.091 23.406-16.091 39.497 0 21.943 13.166 42.423 33.646 51.2 5.851 1.463 8.777 7.314 8.777 13.166v11.703c0 5.851-2.926 11.703-8.777 13.166-20.48 7.314-33.646 27.794-33.646 51.2 0 21.943 13.166 42.423 33.646 51.2 5.851 1.463 8.777 7.314 8.777 13.166v11.703c0 5.851-2.926 11.703-8.777 13.166-20.48 7.314-33.646 27.794-33.646 51.2 0 21.943 13.166 42.423 33.646 51.2 5.851 1.463 8.777 7.314 8.777 13.166v11.703c0 5.851-2.926 11.703-8.777 13.166-20.48 7.314-33.646 27.794-33.646 51.2-5.851 19.017 7.314 39.497 27.794 46.811zM734.354 586.971c0-27.794 14.629-54.126 36.571-68.754-21.943-14.629-36.571-40.96-36.571-68.754s14.629-54.126 36.571-68.754c-21.943-14.629-36.571-40.96-36.571-68.754s14.629-54.126 36.571-68.754c-21.943-14.629-36.571-40.96-36.571-68.754 0-23.406 8.777-45.349 24.869-59.977 5.851-5.851 5.851-14.629 2.926-19.017-1.463-2.926-5.851-10.24-14.629-10.24h-16.091c-4.389 0-10.24 2.926-14.629 8.777-16.091 21.943-40.96 33.646-67.291 33.646-27.794 0-54.126-14.629-68.754-36.571-14.629 21.943-40.96 36.571-68.754 36.571s-54.126-14.629-68.754-36.571c-14.629 21.943-40.96 36.571-68.754 36.571-26.331 0-51.2-11.703-68.754-35.109-2.926-4.389-8.777-7.314-13.166-7.314h-14.629c-8.777 0-14.629 7.314-16.091 11.703-1.463 2.926-2.926 10.24 2.926 16.091 16.091 14.629 26.331 36.571 26.331 59.977 0 27.794-14.629 54.126-36.571 68.754 21.943 14.629 36.571 40.96 36.571 68.754s-14.629 54.126-36.571 68.754c21.943 14.629 36.571 40.96 36.571 68.754s-14.629 54.126-36.571 68.754c21.943 14.629 36.571 40.96 36.571 68.754s-14.629 54.126-36.571 68.754c21.943 14.629 36.571 40.96 36.571 68.754 0 21.943-8.777 43.886-24.869 59.977-5.851 5.851-5.851 14.629-2.926 19.017 1.463 2.926 5.851 10.24 14.629 10.24h16.091c4.389 0 10.24-2.926 14.629-8.777 16.091-21.943 40.96-33.646 67.291-33.646 27.794 0 54.126 14.629 68.754 36.571 14.629-21.943 40.96-36.571 68.754-36.571s54.126 14.629 68.754 36.571c14.629-21.943 40.96-36.571 68.754-36.571 26.331 0 51.2 11.703 68.754 35.109 2.926 4.389 8.777 7.314 13.166 7.314h14.629c8.777 0 14.629-7.314 16.091-11.703 1.463-2.926 2.926-10.24-2.926-16.091-16.091-14.629-26.331-36.571-26.331-59.977 0-27.794 14.629-54.126 36.571-68.754-21.943-14.629-36.571-40.96-36.571-68.754z" />
<glyph unicode="&#xe93c;" glyph-name="Category-Storage-1" d="M807.497 766.903h-590.994c-55.589 0-99.474-43.886-99.474-99.474v-525.166c0-7.314 5.851-14.629 14.629-14.629h760.686c7.314 0 14.629 5.851 14.629 14.629v525.166c0 55.589-43.886 99.474-99.474 99.474zM781.166 156.891h-538.331v89.234h538.331v-89.234zM781.166 273.92h-538.331v87.771h538.331v-87.771zM781.166 389.486h-538.331v92.16h538.331v-92.16zM781.166 509.44h-538.331v51.2c0 21.943 17.554 39.497 39.497 39.497h459.337c21.943 0 39.497-17.554 39.497-39.497v-51.2zM879.177 156.891h-68.754v403.749c0 38.034-29.257 67.291-67.291 67.291h-460.8c-38.034 0-67.291-29.257-67.291-67.291v-403.749h-70.217v510.537c0 39.497 32.183 70.217 70.217 70.217h592.457c39.497 0 70.217-32.183 70.217-70.217v-510.537zM465.189 187.611h93.623c7.314 0 14.629 5.851 14.629 14.629s-5.851 14.629-14.629 14.629h-93.623c-7.314 0-14.629-5.851-14.629-14.629s7.314-14.629 14.629-14.629z" />
<glyph unicode="&#xe93d;" glyph-name="Category-Storage" d="M849.92 594.286h-102.4v52.663c0 32.183-24.869 57.051-57.051 57.051h-516.389c-32.183 0-57.051-24.869-57.051-57.051v-438.857c0-7.314 5.851-14.629 14.629-14.629h760.686c7.314 0 14.629 5.851 14.629 14.629v329.143c0 32.183-24.869 57.051-57.051 57.051zM642.194 221.257h-419.84v155.063h419.84v-155.063zM642.194 405.577h-419.84v65.829h419.84v-65.829zM643.657 499.2h-421.303v38.034c0 16.091 11.703 27.794 27.794 27.794h364.251c16.091 0 27.794-11.703 27.794-27.794l1.463-38.034zM719.726 579.657v-358.4h-49.737v166.766c0 1.463 0 1.463 0 2.926s0 1.463 0 2.926v90.697c0 0 0 0 0 1.463 0 0 0 0 0 1.463v51.2c0 32.183-24.869 57.051-57.051 57.051h-361.326c-32.183 0-57.051-24.869-57.051-57.051v-315.977h-49.737v424.229c0 16.091 11.703 27.794 27.794 27.794h517.851c16.091 0 27.794-11.703 27.794-27.794v-67.291zM879.177 221.257h-131.657v345.234h102.4c16.091 0 27.794-11.703 27.794-27.794v-317.44zM386.194 423.131h93.623c7.314 0 14.629 5.851 14.629 14.629 0 7.314-5.851 14.629-14.629 14.629h-93.623c-7.314 0-14.629-5.851-14.629-14.629 1.463-8.777 7.314-14.629 14.629-14.629z" />
<glyph unicode="&#xe93e;" glyph-name="Category-Vehicle-parts" d="M512 842.971c-217.966 0-394.971-177.006-394.971-394.971s177.006-394.971 394.971-394.971 394.971 177.006 394.971 394.971-177.006 394.971-394.971 394.971zM512 80.823c-201.874 0-367.177 165.303-367.177 367.177s165.303 367.177 367.177 367.177c201.874 0 367.177-163.84 367.177-367.177 0-201.874-165.303-367.177-367.177-367.177zM512 715.703c-147.749 0-267.703-119.954-267.703-267.703s119.954-267.703 267.703-267.703 267.703 119.954 267.703 267.703-119.954 267.703-267.703 267.703zM588.069 674.743c30.72-10.24 58.514-26.331 81.92-48.274l-38.034-26.331-46.811 29.257 2.926 45.349zM435.931 674.743l2.926-45.349-46.811-27.794-39.497 26.331c24.869 20.48 52.663 36.571 83.383 46.811zM272.091 448c0 19.017 2.926 36.571 5.851 54.126l39.497-20.48v-52.663l-42.423-21.943c-1.463 13.166-2.926 26.331-2.926 40.96zM435.931 221.257c-32.183 10.24-61.44 29.257-86.309 51.2l43.886 29.257 46.811-27.794-4.389-52.663zM588.069 221.257l-2.926 52.663 46.811 27.794 42.423-29.257c-23.406-23.406-52.663-40.96-86.309-51.2zM694.857 292.937l-61.44 42.423-77.531-45.349 4.389-76.069c-16.091-2.926-32.183-4.389-48.274-4.389s-32.183 1.463-48.274 4.389l5.851 76.069-77.531 45.349-62.903-42.423c-20.48 24.869-36.571 54.126-46.811 84.846l64.366 32.183v87.771l-59.977 30.72c10.24 29.257 26.331 55.589 46.811 77.531l58.514-39.497 77.531 45.349-5.851 68.754c16.091 2.926 32.183 4.389 48.274 4.389s33.646-1.463 48.274-4.389l-4.389-68.754 77.531-45.349 57.051 38.034c21.943-23.406 38.034-52.663 48.274-83.383l-59.977-29.257v-87.771l61.44-30.72c-10.24-30.72-26.331-57.051-45.349-80.457zM706.56 421.669v52.663l40.96 20.48c2.926-14.629 4.389-30.72 4.389-46.811s-1.463-32.183-4.389-46.811l-40.96 20.48zM512 532.846c-46.811 0-84.846-38.034-84.846-84.846s38.034-84.846 84.846-84.846 84.846 38.034 84.846 84.846-38.034 84.846-84.846 84.846zM512 390.949c-30.72 0-57.051 24.869-57.051 57.051 0 30.72 24.869 57.051 57.051 57.051 30.72 0 57.051-24.869 57.051-57.051 0-30.72-26.331-57.051-57.051-57.051z" />
</font>
</defs>
</svg>
