<svg width="2048" height="1344" viewBox="0 0 2048 1344" fill="none" xmlns="http://www.w3.org/2000/svg">
<rect width="2048" height="1344" fill="#F7F7F7"/>
<rect x="339" y="179" width="1370" height="886" rx="35" fill="white" stroke="#D8D8D8" stroke-width="10"/>
<mask id="mask0_1417_1144" style="mask-type:alpha" maskUnits="userSpaceOnUse" x="344" y="184" width="1360" height="876">
<rect x="349" y="189" width="1350" height="866" rx="25" fill="white" stroke="#D8D8D8" stroke-width="10"/>
</mask>
<g mask="url(#mask0_1417_1144)">
<rect x="344" y="184" width="213" height="876" fill="#006091"/>
<path d="M408 608.443C408 600.466 414.466 594 422.443 594H478.7C486.677 594 493.143 600.466 493.143 608.443V634.557C493.143 642.534 486.677 649 478.7 649H422.443C414.466 649 408 642.534 408 634.557V608.443Z" fill="#41A5DD"/>
<path d="M448.883 622.046C448.883 623.963 448.675 625.622 448.259 627.021C447.853 628.421 447.291 629.582 446.571 630.505C445.85 631.428 445.004 632.113 444.03 632.559C443.056 633.005 442.007 633.228 440.881 633.228C439.755 633.228 438.705 633.005 437.732 632.559C436.758 632.113 435.911 631.428 435.191 630.505C434.481 629.582 433.923 628.421 433.518 627.021C433.112 625.622 432.909 623.963 432.909 622.046C432.909 620.13 433.112 618.471 433.518 617.072C433.923 615.662 434.481 614.501 435.191 613.588C435.911 612.665 436.758 611.98 437.732 611.534C438.705 611.078 439.755 610.849 440.881 610.849C442.007 610.849 443.056 611.078 444.03 611.534C445.004 611.98 445.85 612.665 446.571 613.588C447.291 614.501 447.853 615.662 448.259 617.072C448.675 618.471 448.883 620.13 448.883 622.046ZM445.506 622.046C445.506 620.424 445.374 619.075 445.11 618C444.856 616.915 444.517 616.047 444.091 615.398C443.665 614.749 443.173 614.288 442.615 614.014C442.057 613.74 441.479 613.603 440.881 613.603C440.272 613.603 439.689 613.74 439.131 614.014C438.584 614.288 438.097 614.749 437.671 615.398C437.245 616.047 436.905 616.915 436.651 618C436.398 619.075 436.271 620.424 436.271 622.046C436.271 623.669 436.398 625.023 436.651 626.108C436.905 627.183 437.245 628.046 437.671 628.695C438.097 629.344 438.584 629.805 439.131 630.079C439.689 630.353 440.272 630.49 440.881 630.49C441.479 630.49 442.057 630.353 442.615 630.079C443.173 629.805 443.665 629.344 444.091 628.695C444.517 628.046 444.856 627.183 445.11 626.108C445.374 625.023 445.506 623.669 445.506 622.046ZM466.79 630.52V633H454.848V630.52H459.412V616.798C459.412 616.311 459.427 615.814 459.458 615.307L455.943 618.274C455.791 618.395 455.634 618.476 455.472 618.517C455.32 618.547 455.172 618.547 455.03 618.517C454.899 618.487 454.777 618.441 454.665 618.38C454.564 618.309 454.483 618.233 454.422 618.152L453.403 616.722L460.005 611.047H462.668V630.52H466.79Z" fill="white"/>
<rect x="557" y="184" width="1147" height="76" fill="#76C7F2"/>
<path d="M587 296C587 292.686 589.686 290 593 290H1668C1671.31 290 1674 292.686 1674 296V1060H587V296Z" fill="#1E4C71"/>
<path d="M1088 661.443C1088 653.466 1094.47 647 1102.44 647H1158.7C1166.68 647 1173.14 653.466 1173.14 661.443V687.557C1173.14 695.534 1166.68 702 1158.7 702H1102.44C1094.47 702 1088 695.534 1088 687.557V661.443Z" fill="#41A5DD"/>
<path d="M1128.88 675.046C1128.88 676.963 1128.68 678.622 1128.26 680.021C1127.85 681.421 1127.29 682.582 1126.57 683.505C1125.85 684.428 1125 685.113 1124.03 685.559C1123.06 686.005 1122.01 686.228 1120.88 686.228C1119.75 686.228 1118.71 686.005 1117.73 685.559C1116.76 685.113 1115.91 684.428 1115.19 683.505C1114.48 682.582 1113.92 681.421 1113.52 680.021C1113.11 678.622 1112.91 676.963 1112.91 675.046C1112.91 673.13 1113.11 671.471 1113.52 670.072C1113.92 668.662 1114.48 667.501 1115.19 666.588C1115.91 665.665 1116.76 664.98 1117.73 664.534C1118.71 664.078 1119.75 663.849 1120.88 663.849C1122.01 663.849 1123.06 664.078 1124.03 664.534C1125 664.98 1125.85 665.665 1126.57 666.588C1127.29 667.501 1127.85 668.662 1128.26 670.072C1128.68 671.471 1128.88 673.13 1128.88 675.046ZM1125.51 675.046C1125.51 673.424 1125.37 672.075 1125.11 671C1124.86 669.915 1124.52 669.047 1124.09 668.398C1123.66 667.749 1123.17 667.288 1122.62 667.014C1122.06 666.74 1121.48 666.603 1120.88 666.603C1120.27 666.603 1119.69 666.74 1119.13 667.014C1118.58 667.288 1118.1 667.749 1117.67 668.398C1117.24 669.047 1116.91 669.915 1116.65 671C1116.4 672.075 1116.27 673.424 1116.27 675.046C1116.27 676.669 1116.4 678.023 1116.65 679.108C1116.91 680.183 1117.24 681.046 1117.67 681.695C1118.1 682.344 1118.58 682.805 1119.13 683.079C1119.69 683.353 1120.27 683.49 1120.88 683.49C1121.48 683.49 1122.06 683.353 1122.62 683.079C1123.17 682.805 1123.66 682.344 1124.09 681.695C1124.52 681.046 1124.86 680.183 1125.11 679.108C1125.37 678.023 1125.51 676.669 1125.51 675.046ZM1132.96 670.117C1133.11 669.083 1133.4 668.175 1133.81 667.394C1134.24 666.613 1134.77 665.964 1135.41 665.447C1136.05 664.919 1136.78 664.524 1137.6 664.26C1138.43 663.986 1139.33 663.849 1140.29 663.849C1141.27 663.849 1142.15 663.991 1142.94 664.275C1143.74 664.549 1144.43 664.935 1145 665.432C1145.57 665.929 1146.01 666.522 1146.32 667.212C1146.63 667.901 1146.79 668.657 1146.79 669.478C1146.79 670.178 1146.7 670.797 1146.53 671.334C1146.37 671.862 1146.13 672.328 1145.82 672.734C1145.51 673.14 1145.14 673.479 1144.69 673.753C1144.24 674.027 1143.74 674.255 1143.18 674.438C1144.54 674.833 1145.56 675.467 1146.24 676.34C1146.92 677.202 1147.26 678.287 1147.26 679.595C1147.26 680.65 1147.06 681.588 1146.67 682.41C1146.27 683.231 1145.74 683.926 1145.06 684.494C1144.39 685.062 1143.6 685.498 1142.7 685.802C1141.81 686.096 1140.86 686.243 1139.85 686.243C1138.73 686.243 1137.75 686.112 1136.93 685.848C1136.11 685.574 1135.4 685.189 1134.8 684.692C1134.21 684.185 1133.72 683.576 1133.33 682.866C1132.93 682.156 1132.6 681.36 1132.32 680.478L1133.74 679.884C1134.11 679.722 1134.47 679.676 1134.8 679.747C1135.15 679.818 1135.4 680.006 1135.55 680.31C1135.71 680.635 1135.89 680.985 1136.1 681.36C1136.3 681.725 1136.56 682.065 1136.87 682.379C1137.2 682.684 1137.59 682.942 1138.06 683.155C1138.53 683.358 1139.12 683.459 1139.81 683.459C1140.51 683.459 1141.12 683.348 1141.63 683.125C1142.16 682.891 1142.6 682.597 1142.94 682.242C1143.3 681.877 1143.56 681.472 1143.73 681.025C1143.9 680.579 1143.99 680.138 1143.99 679.702C1143.99 679.154 1143.93 678.652 1143.79 678.196C1143.66 677.729 1143.4 677.334 1143.02 677.009C1142.64 676.684 1142.1 676.431 1141.4 676.248C1140.72 676.056 1139.81 675.959 1138.68 675.959V673.601C1139.6 673.591 1140.38 673.5 1141.01 673.327C1141.65 673.145 1142.16 672.901 1142.53 672.597C1142.92 672.283 1143.19 671.907 1143.35 671.471C1143.52 671.035 1143.61 670.559 1143.61 670.041C1143.61 669.483 1143.52 668.992 1143.35 668.566C1143.18 668.14 1142.94 667.785 1142.62 667.501C1142.32 667.207 1141.95 666.988 1141.53 666.847C1141.1 666.705 1140.63 666.634 1140.11 666.634C1139.61 666.634 1139.15 666.705 1138.73 666.847C1138.31 666.988 1137.94 667.186 1137.6 667.44C1137.28 667.693 1137 667.998 1136.78 668.353C1136.56 668.697 1136.39 669.078 1136.29 669.494C1136.15 669.909 1135.96 670.188 1135.72 670.33C1135.48 670.472 1135.14 670.503 1134.68 670.422L1132.96 670.117Z" fill="white"/>
<path d="M1088 208.443C1088 200.466 1094.47 194 1102.44 194H1158.7C1166.68 194 1173.14 200.466 1173.14 208.443V234.557C1173.14 242.534 1166.68 249 1158.7 249H1102.44C1094.47 249 1088 242.534 1088 234.557V208.443Z" fill="#41A5DD"/>
<path d="M1128.88 222.046C1128.88 223.963 1128.68 225.622 1128.26 227.021C1127.85 228.421 1127.29 229.582 1126.57 230.505C1125.85 231.428 1125 232.113 1124.03 232.559C1123.06 233.005 1122.01 233.228 1120.88 233.228C1119.75 233.228 1118.71 233.005 1117.73 232.559C1116.76 232.113 1115.91 231.428 1115.19 230.505C1114.48 229.582 1113.92 228.421 1113.52 227.021C1113.11 225.622 1112.91 223.963 1112.91 222.046C1112.91 220.13 1113.11 218.471 1113.52 217.072C1113.92 215.662 1114.48 214.501 1115.19 213.588C1115.91 212.665 1116.76 211.98 1117.73 211.534C1118.71 211.078 1119.75 210.849 1120.88 210.849C1122.01 210.849 1123.06 211.078 1124.03 211.534C1125 211.98 1125.85 212.665 1126.57 213.588C1127.29 214.501 1127.85 215.662 1128.26 217.072C1128.68 218.471 1128.88 220.13 1128.88 222.046ZM1125.51 222.046C1125.51 220.424 1125.37 219.075 1125.11 218C1124.86 216.915 1124.52 216.047 1124.09 215.398C1123.66 214.749 1123.17 214.288 1122.62 214.014C1122.06 213.74 1121.48 213.603 1120.88 213.603C1120.27 213.603 1119.69 213.74 1119.13 214.014C1118.58 214.288 1118.1 214.749 1117.67 215.398C1117.24 216.047 1116.91 216.915 1116.65 218C1116.4 219.075 1116.27 220.424 1116.27 222.046C1116.27 223.669 1116.4 225.023 1116.65 226.108C1116.91 227.183 1117.24 228.046 1117.67 228.695C1118.1 229.344 1118.58 229.805 1119.13 230.079C1119.69 230.353 1120.27 230.49 1120.88 230.49C1121.48 230.49 1122.06 230.353 1122.62 230.079C1123.17 229.805 1123.66 229.344 1124.09 228.695C1124.52 228.046 1124.86 227.183 1125.11 226.108C1125.37 225.023 1125.51 223.669 1125.51 222.046ZM1146.14 229.912C1146.49 229.912 1146.77 230.018 1146.97 230.231C1147.18 230.434 1147.28 230.698 1147.28 231.022V233H1132.46V231.889C1132.46 231.666 1132.51 231.433 1132.6 231.19C1132.69 230.946 1132.83 230.723 1133.04 230.52L1139.85 223.689C1140.43 223.111 1140.94 222.559 1141.39 222.031C1141.85 221.504 1142.23 220.976 1142.55 220.449C1142.87 219.922 1143.11 219.389 1143.28 218.852C1143.45 218.304 1143.53 217.731 1143.53 217.133C1143.53 216.554 1143.44 216.047 1143.26 215.611C1143.09 215.165 1142.85 214.8 1142.53 214.516C1142.23 214.222 1141.86 214.004 1141.42 213.862C1140.99 213.71 1140.52 213.634 1140.01 213.634C1139.51 213.634 1139.05 213.705 1138.62 213.847C1138.2 213.988 1137.83 214.186 1137.5 214.44C1137.17 214.693 1136.9 214.998 1136.67 215.353C1136.46 215.697 1136.3 216.078 1136.2 216.494C1136.05 216.909 1135.85 217.188 1135.61 217.33C1135.38 217.472 1135.03 217.503 1134.57 217.422L1132.85 217.117C1133.01 216.083 1133.29 215.175 1133.71 214.394C1134.13 213.613 1134.67 212.964 1135.3 212.447C1135.94 211.919 1136.67 211.524 1137.5 211.26C1138.33 210.986 1139.22 210.849 1140.19 210.849C1141.16 210.849 1142.05 210.997 1142.87 211.291C1143.69 211.575 1144.39 211.985 1144.98 212.523C1145.58 213.05 1146.04 213.694 1146.38 214.455C1146.71 215.216 1146.88 216.073 1146.88 217.026C1146.88 217.837 1146.76 218.588 1146.52 219.278C1146.28 219.967 1145.96 220.627 1145.56 221.255C1145.15 221.884 1144.68 222.498 1144.13 223.096C1143.59 223.684 1143.02 224.283 1142.42 224.891L1137.13 230.307C1137.57 230.186 1138 230.089 1138.44 230.018C1138.88 229.947 1139.31 229.912 1139.7 229.912H1146.14Z" fill="white"/>
</g>
</svg>
