<svg width="2048" height="1344" viewBox="0 0 2048 1344" fill="none" xmlns="http://www.w3.org/2000/svg">
<rect width="2048" height="1344" fill="#F7F7F7"/>
<rect x="339" y="179" width="1370" height="886" rx="35" fill="white" stroke="#D8D8D8" stroke-width="10"/>
<mask id="mask0_1417_1145" style="mask-type:alpha" maskUnits="userSpaceOnUse" x="344" y="184" width="1360" height="876">
<rect x="349" y="189" width="1350" height="866" rx="25" fill="white" stroke="#D8D8D8" stroke-width="10"/>
</mask>
<g mask="url(#mask0_1417_1145)">
<rect x="344" y="184" width="1360" height="75" fill="#006091"/>
<path d="M981 208.443C981 200.466 987.466 194 995.443 194H1051.7C1059.68 194 1066.14 200.466 1066.14 208.443V234.557C1066.14 242.534 1059.68 249 1051.7 249H995.443C987.466 249 981 242.534 981 234.557V208.443Z" fill="#41A5DD"/>
<path d="M1021.88 222.046C1021.88 223.963 1021.68 225.622 1021.26 227.021C1020.85 228.421 1020.29 229.582 1019.57 230.505C1018.85 231.428 1018 232.113 1017.03 232.559C1016.06 233.005 1015.01 233.228 1013.88 233.228C1012.75 233.228 1011.71 233.005 1010.73 232.559C1009.76 232.113 1008.91 231.428 1008.19 230.505C1007.48 229.582 1006.92 228.421 1006.52 227.021C1006.11 225.622 1005.91 223.963 1005.91 222.046C1005.91 220.13 1006.11 218.471 1006.52 217.072C1006.92 215.662 1007.48 214.501 1008.19 213.588C1008.91 212.665 1009.76 211.98 1010.73 211.534C1011.71 211.078 1012.75 210.849 1013.88 210.849C1015.01 210.849 1016.06 211.078 1017.03 211.534C1018 211.98 1018.85 212.665 1019.57 213.588C1020.29 214.501 1020.85 215.662 1021.26 217.072C1021.68 218.471 1021.88 220.13 1021.88 222.046ZM1018.51 222.046C1018.51 220.424 1018.37 219.075 1018.11 218C1017.86 216.915 1017.52 216.047 1017.09 215.398C1016.66 214.749 1016.17 214.288 1015.62 214.014C1015.06 213.74 1014.48 213.603 1013.88 213.603C1013.27 213.603 1012.69 213.74 1012.13 214.014C1011.58 214.288 1011.1 214.749 1010.67 215.398C1010.24 216.047 1009.91 216.915 1009.65 218C1009.4 219.075 1009.27 220.424 1009.27 222.046C1009.27 223.669 1009.4 225.023 1009.65 226.108C1009.91 227.183 1010.24 228.046 1010.67 228.695C1011.1 229.344 1011.58 229.805 1012.13 230.079C1012.69 230.353 1013.27 230.49 1013.88 230.49C1014.48 230.49 1015.06 230.353 1015.62 230.079C1016.17 229.805 1016.66 229.344 1017.09 228.695C1017.52 228.046 1017.86 227.183 1018.11 226.108C1018.37 225.023 1018.51 223.669 1018.51 222.046ZM1039.79 230.52V233H1027.85V230.52H1032.41V216.798C1032.41 216.311 1032.43 215.814 1032.46 215.307L1028.94 218.274C1028.79 218.395 1028.63 218.476 1028.47 218.517C1028.32 218.547 1028.17 218.547 1028.03 218.517C1027.9 218.487 1027.78 218.441 1027.67 218.38C1027.56 218.309 1027.48 218.233 1027.42 218.152L1026.4 216.722L1033.01 211.047H1035.67V230.52H1039.79Z" fill="white"/>
<path d="M480 296C480 292.686 482.686 290 486 290H1561C1564.31 290 1567 292.686 1567 296V1060H480V296Z" fill="#1E4C71"/>
<path d="M981 661.443C981 653.466 987.466 647 995.443 647H1051.7C1059.68 647 1066.14 653.466 1066.14 661.443V687.557C1066.14 695.534 1059.68 702 1051.7 702H995.443C987.466 702 981 695.534 981 687.557V661.443Z" fill="#41A5DD"/>
<path d="M1021.88 675.046C1021.88 676.963 1021.68 678.622 1021.26 680.021C1020.85 681.421 1020.29 682.582 1019.57 683.505C1018.85 684.428 1018 685.113 1017.03 685.559C1016.06 686.005 1015.01 686.228 1013.88 686.228C1012.75 686.228 1011.71 686.005 1010.73 685.559C1009.76 685.113 1008.91 684.428 1008.19 683.505C1007.48 682.582 1006.92 681.421 1006.52 680.021C1006.11 678.622 1005.91 676.963 1005.91 675.046C1005.91 673.13 1006.11 671.471 1006.52 670.072C1006.92 668.662 1007.48 667.501 1008.19 666.588C1008.91 665.665 1009.76 664.98 1010.73 664.534C1011.71 664.078 1012.75 663.849 1013.88 663.849C1015.01 663.849 1016.06 664.078 1017.03 664.534C1018 664.98 1018.85 665.665 1019.57 666.588C1020.29 667.501 1020.85 668.662 1021.26 670.072C1021.68 671.471 1021.88 673.13 1021.88 675.046ZM1018.51 675.046C1018.51 673.424 1018.37 672.075 1018.11 671C1017.86 669.915 1017.52 669.047 1017.09 668.398C1016.66 667.749 1016.17 667.288 1015.62 667.014C1015.06 666.74 1014.48 666.603 1013.88 666.603C1013.27 666.603 1012.69 666.74 1012.13 667.014C1011.58 667.288 1011.1 667.749 1010.67 668.398C1010.24 669.047 1009.91 669.915 1009.65 671C1009.4 672.075 1009.27 673.424 1009.27 675.046C1009.27 676.669 1009.4 678.023 1009.65 679.108C1009.91 680.183 1010.24 681.046 1010.67 681.695C1011.1 682.344 1011.58 682.805 1012.13 683.079C1012.69 683.353 1013.27 683.49 1013.88 683.49C1014.48 683.49 1015.06 683.353 1015.62 683.079C1016.17 682.805 1016.66 682.344 1017.09 681.695C1017.52 681.046 1017.86 680.183 1018.11 679.108C1018.37 678.023 1018.51 676.669 1018.51 675.046ZM1025.96 670.117C1026.11 669.083 1026.4 668.175 1026.81 667.394C1027.24 666.613 1027.77 665.964 1028.41 665.447C1029.05 664.919 1029.78 664.524 1030.6 664.26C1031.43 663.986 1032.33 663.849 1033.29 663.849C1034.27 663.849 1035.15 663.991 1035.94 664.275C1036.74 664.549 1037.43 664.935 1038 665.432C1038.57 665.929 1039.01 666.522 1039.32 667.212C1039.63 667.901 1039.79 668.657 1039.79 669.478C1039.79 670.178 1039.7 670.797 1039.53 671.334C1039.37 671.862 1039.13 672.328 1038.82 672.734C1038.51 673.14 1038.14 673.479 1037.69 673.753C1037.24 674.027 1036.74 674.255 1036.18 674.438C1037.54 674.833 1038.56 675.467 1039.24 676.34C1039.92 677.202 1040.26 678.287 1040.26 679.595C1040.26 680.65 1040.06 681.588 1039.67 682.41C1039.27 683.231 1038.74 683.926 1038.06 684.494C1037.39 685.062 1036.6 685.498 1035.7 685.802C1034.81 686.096 1033.86 686.243 1032.85 686.243C1031.73 686.243 1030.75 686.112 1029.93 685.848C1029.11 685.574 1028.4 685.189 1027.8 684.692C1027.21 684.185 1026.72 683.576 1026.33 682.866C1025.93 682.156 1025.6 681.36 1025.32 680.478L1026.74 679.884C1027.11 679.722 1027.47 679.676 1027.8 679.747C1028.15 679.818 1028.4 680.006 1028.55 680.31C1028.71 680.635 1028.89 680.985 1029.1 681.36C1029.3 681.725 1029.56 682.065 1029.87 682.379C1030.2 682.684 1030.59 682.942 1031.06 683.155C1031.53 683.358 1032.12 683.459 1032.81 683.459C1033.51 683.459 1034.12 683.348 1034.63 683.125C1035.16 682.891 1035.6 682.597 1035.94 682.242C1036.3 681.877 1036.56 681.472 1036.73 681.025C1036.9 680.579 1036.99 680.138 1036.99 679.702C1036.99 679.154 1036.93 678.652 1036.79 678.196C1036.66 677.729 1036.4 677.334 1036.02 677.009C1035.64 676.684 1035.1 676.431 1034.4 676.248C1033.72 676.056 1032.81 675.959 1031.68 675.959V673.601C1032.6 673.591 1033.38 673.5 1034.01 673.327C1034.65 673.145 1035.16 672.901 1035.53 672.597C1035.92 672.283 1036.19 671.907 1036.35 671.471C1036.52 671.035 1036.61 670.559 1036.61 670.041C1036.61 669.483 1036.52 668.992 1036.35 668.566C1036.18 668.14 1035.94 667.785 1035.62 667.501C1035.32 667.207 1034.95 666.988 1034.53 666.847C1034.1 666.705 1033.63 666.634 1033.11 666.634C1032.61 666.634 1032.15 666.705 1031.73 666.847C1031.31 666.988 1030.94 667.186 1030.6 667.44C1030.28 667.693 1030 667.998 1029.78 668.353C1029.56 668.697 1029.39 669.078 1029.29 669.494C1029.15 669.909 1028.96 670.188 1028.72 670.33C1028.48 670.472 1028.14 670.503 1027.68 670.422L1025.96 670.117Z" fill="white"/>
</g>
</svg>
