<svg xmlns="http://www.w3.org/2000/svg" viewBox="0 0 401.16 68"><defs><style>.cls-1,.cls-2{fill:#292929;}.cls-1{fill-rule:evenodd;}</style></defs><g id="Layer_2" data-name="Layer 2"><g id="Layer_1-2" data-name="Layer 1"><path class="cls-1" d="M166.57.05c-4.48,0-7.23,2.37-7.23,7.2V46.1h-.21L132.87,3.94A8.25,8.25,0,0,0,125.39,0C119,0,116,2.57,116,8.72v52c0,4.83,2.74,7.19,7.22,7.19s7.23-2.36,7.23-7.19V23h.15l26,41c1.9,3,3.48,4,8.23,4,6.32,0,8.86-3.36,8.86-9.29V7.19C173.79,2.42,171.05.05,166.57.05Z"/><path class="cls-1" d="M224.52.05c-3.12,0-4.75,1.11-6.49,4.36l-13,24L192,4.41c-1.53-2.89-3.21-4.36-6.75-4.36-2.9,0-7.59,1.74-7.59,6.83a7.75,7.75,0,0,0,1.27,3.94l18.34,30.4V60.54c0,4.47,2.9,7.46,7.49,7.46s7.49-3,7.49-7.46V41.22l18.35-30.4a7.74,7.74,0,0,0,1.26-3.94C231.9,1.79,227.26.05,224.52.05Z"/><path class="cls-1" d="M291.16,6.72c0-5-3.85-6.67-7.59-6.67-3.48,0-5.64,2.1-7,6.57L262.48,51.2h-.16L248.77,6.62C247.4,2.15,245.18.05,241.18.05c-3.75,0-7.6,1.63-7.6,6.67a12.86,12.86,0,0,0,.9,4.36L252.94,62.8c1.52,4.25,4.48,5.2,9.12,5.2s7.59-.89,9.12-5.2l19-51.72A12.11,12.11,0,0,0,291.16,6.72Z"/><path class="cls-1" d="M320.06,5.51C318.42.89,315.42.05,312,.05h-3.58c-3.64,0-6,1.21-7.33,4.57L281.67,55.71a21.57,21.57,0,0,0-1.47,5.73c0,4,2.84,6.56,7,6.56,3.58,0,5.64-1.21,6.69-4.1l4-10.92H322L325.8,63.9c1.11,2.89,3.49,4.1,6.75,4.1a6.83,6.83,0,0,0,7.07-6.56,19.21,19.21,0,0,0-1.48-5.73ZM301.13,42.59,310,16.28h.16l8.48,26.31Z"/><path class="cls-1" d="M394,.05c-4.48,0-7.22,2.37-7.22,7.2V46.1h-.16L360.34,3.94A8.26,8.26,0,0,0,352.85,0c-6.38,0-9.43,2.57-9.43,8.72v52c0,4.83,2.74,7.19,7.22,7.19s7.22-2.36,7.22-7.19V23H358l26.05,41c1.9,3,3.48,4,8.22,4,6.33,0,8.86-3.36,8.86-9.29V7.19C401.21,2.42,398.47.05,394,.05Z"/><path class="cls-2" d="M32.43,63.43a7.88,7.88,0,1,0-7.91-7.87A7.89,7.89,0,0,0,32.43,63.43Z"/><path class="cls-1" d="M94.44,5.51C92.8.89,89.8.05,86.37.05H82.78a6.11,6.11,0,0,0-1,.05H8.44A8.45,8.45,0,0,0,0,8.5V59.6A8.45,8.45,0,0,0,8.44,68h53v0h.16c3.58,0,5.64-1.21,6.7-4.1l4-10.92H96.44l3.85,10.92c1.11,2.89,3.48,4.1,6.75,4.1a6.78,6.78,0,0,0,7-6.57,19.46,19.46,0,0,0-1.48-5.72Zm-62,59.71a9.67,9.67,0,1,1,9.7-9.67A9.69,9.69,0,0,1,32.43,65.22Zm20.51-8.93H44c0-1.89-.79-12.39-11.87-12.39S20.62,56.39,20.62,56.39H18.24s-6.9-2.78-8.33-3.51S8.33,48.2,8.33,48.2V44.79H9.54V41.32c.58-7.35,18.67-14,18.67-14s15.19-14.92,17.56-17C50.88,5.88,71.6,6.88,71.6,6.88ZM75.51,42.58l8.85-26.3h.16L93,42.58Z"/><path class="cls-2" d="M32.43,63.43a7.88,7.88,0,1,0-7.91-7.87A7.89,7.89,0,0,0,32.43,63.43Z"/><path class="cls-1" d="M94.44,5.51C92.8.89,89.8.05,86.37.05H82.78a6.11,6.11,0,0,0-1,.05H8.44A8.45,8.45,0,0,0,0,8.5V59.6A8.45,8.45,0,0,0,8.44,68h53v0h.16c3.58,0,5.64-1.21,6.7-4.1l4-10.92H96.44l3.85,10.92c1.11,2.89,3.48,4.1,6.75,4.1a6.78,6.78,0,0,0,7-6.57,19.46,19.46,0,0,0-1.48-5.72Zm-62,59.71a9.67,9.67,0,1,1,9.7-9.67A9.69,9.69,0,0,1,32.43,65.22Zm20.51-8.93H44c0-1.89-.79-12.39-11.87-12.39S20.62,56.39,20.62,56.39H18.24s-6.9-2.78-8.33-3.51S8.33,48.2,8.33,48.2V44.79H9.54V41.32c.58-7.35,18.67-14,18.67-14s15.19-14.92,17.56-17C50.88,5.88,71.6,6.88,71.6,6.88ZM75.51,42.58l8.85-26.3h.16L93,42.58Z"/><path class="cls-1" d="M21.78,36.23c-.64-.16-3-.16-4-.21a1.2,1.2,0,0,0-.84.32,11.58,11.58,0,0,0-1.9,2,16.41,16.41,0,0,0-1.74,3.2.51.51,0,0,0,.47.74l1.74.37a.59.59,0,0,0,.58-.16l5.8-5C21.88,37.44,22.73,36.44,21.78,36.23Z"/><path class="cls-1" d="M61,11.29c-.79,0-8.12.79-9.54,1.05a11.41,11.41,0,0,0-3.53,1.89l-9,9.92v5.31L58,25.78a3.89,3.89,0,0,0,2.85-3.62C61.16,19,62,12.29,62,12.29S61.74,11.29,61,11.29Z"/></g></g></svg>