<?xml version="1.0" encoding="utf-8"?>
<!-- Generator: Adobe Illustrator 25.4.1, SVG Export Plug-In . SVG Version: 6.00 Build 0)  -->
<svg version="1.1" id="Layer_1" xmlns="http://www.w3.org/2000/svg" xmlns:xlink="http://www.w3.org/1999/xlink" x="0px" y="0px"
	 viewBox="0 0 208.6 39.5" style="enable-background:new 0 0 208.6 39.5;" xml:space="preserve">
<style type="text/css">
	.st0{fill:none;stroke:#292929;stroke-width:2.5;stroke-linecap:round;stroke-linejoin:round;}
</style>
<g id="Layer_2_00000035505969865684669490000015477308245126067645_">
	<g id="Layer_1-2">
		<polyline class="st0" points="43,38.5 43,1.6 22,22.6 1,1.6 1,38.5 		"/>
		<polyline class="st0" points="113.1,1.6 134.1,38.5 155.1,1.6 		"/>
		<polyline class="st0" points="207.6,1 171.4,1 171.4,38.5 207.6,38.5 		"/>
		<line class="st0" x1="171.4" y1="19.8" x2="207.6" y2="19.8"/>
		<path class="st0" d="M61.2,27.9c-4.5-9.3-0.6-20.5,8.8-25c5.1-2.5,11.1-2.5,16.2,0"/>
		<path class="st0" d="M94.9,11.6c4.5,9.3,0.6,20.5-8.7,25c-5.1,2.5-11.1,2.5-16.3,0"/>
		<circle class="st0" cx="92.9" cy="8.6" r="3"/>
		<polygon class="st0" points="65.8,26.8 62.4,26.8 60.6,29.8 62.4,32.8 65.8,32.8 67.6,29.8 		"/>
	</g>
</g>
</svg>
