<svg width="1204" height="678" viewBox="0 0 1204 678" fill="none" xmlns="http://www.w3.org/2000/svg">
<rect width="1204" height="677.25" fill="white"/>
<rect x="225.645" y="372.677" width="262.452" height="55.7419" rx="6.96774" fill="#41A5DD"/>
<rect x="225.645" y="292.548" width="225.29" height="55.7419" rx="6.96774" fill="#41A5DD"/>
<rect x="225.645" y="250.742" width="169.548" height="33.6774" rx="6.96774" fill="#41A5DD"/>
<rect x="225.645" y="195" width="262.452" height="39.4839" rx="6.96774" fill="#41A5DD"/>
<rect x="715.709" y="195" width="262.452" height="27.871" rx="6.96774" fill="#41A5DD"/>
<rect x="715.709" y="246.097" width="262.452" height="17.4194" rx="6.96774" fill="#41A5DD"/>
<rect x="715.709" y="286.742" width="262.452" height="34.8387" rx="6.96774" fill="#41A5DD"/>
<rect x="715.709" y="344.807" width="262.452" height="69.6774" rx="6.96774" fill="#41A5DD"/>
<path d="M185.906 212.719C185.971 212.263 186.096 211.862 186.282 211.513C186.468 211.16 186.702 210.865 186.986 210.628C187.274 210.391 187.601 210.213 187.968 210.092C188.34 209.966 188.739 209.904 189.167 209.904C189.589 209.904 189.98 209.964 190.337 210.085C190.695 210.206 191.002 210.378 191.257 210.601C191.517 210.823 191.719 211.093 191.863 211.409C192.007 211.725 192.079 212.075 192.079 212.461C192.079 212.777 192.037 213.06 191.954 213.311C191.875 213.557 191.759 213.773 191.605 213.959C191.457 214.145 191.276 214.303 191.062 214.433C190.848 214.563 190.609 214.67 190.344 214.753C190.995 214.921 191.482 215.209 191.807 215.617C192.137 216.021 192.302 216.528 192.302 217.136C192.302 217.596 192.214 218.01 192.037 218.377C191.866 218.743 191.629 219.057 191.327 219.317C191.025 219.573 190.672 219.77 190.268 219.909C189.868 220.044 189.438 220.111 188.979 220.111C188.449 220.111 187.996 220.046 187.62 219.916C187.244 219.782 186.925 219.598 186.665 219.366C186.405 219.134 186.191 218.86 186.024 218.544C185.857 218.223 185.715 217.877 185.599 217.506L186.136 217.283C186.275 217.222 186.41 217.206 186.54 217.234C186.675 217.262 186.772 217.338 186.833 217.464C186.893 217.594 186.967 217.749 187.055 217.931C187.148 218.112 187.274 218.286 187.432 218.453C187.59 218.62 187.789 218.762 188.031 218.878C188.277 218.994 188.588 219.052 188.965 219.052C189.313 219.052 189.617 218.997 189.877 218.885C190.142 218.769 190.361 218.62 190.532 218.439C190.709 218.258 190.841 218.056 190.93 217.833C191.018 217.61 191.062 217.389 191.062 217.171C191.062 216.902 191.027 216.655 190.957 216.433C190.888 216.21 190.758 216.017 190.567 215.854C190.377 215.692 190.114 215.564 189.78 215.471C189.45 215.378 189.025 215.332 188.505 215.332V214.433C188.932 214.428 189.294 214.382 189.592 214.293C189.894 214.205 190.138 214.084 190.323 213.931C190.514 213.778 190.651 213.594 190.734 213.381C190.823 213.167 190.867 212.93 190.867 212.67C190.867 212.382 190.82 212.131 190.727 211.917C190.639 211.704 190.516 211.527 190.358 211.388C190.2 211.249 190.012 211.144 189.794 211.074C189.58 211.005 189.348 210.97 189.097 210.97C188.846 210.97 188.612 211.007 188.393 211.081C188.18 211.156 187.989 211.26 187.822 211.395C187.659 211.525 187.522 211.681 187.411 211.862C187.299 212.043 187.22 212.243 187.174 212.461C187.114 212.623 187.037 212.733 186.944 212.788C186.856 212.839 186.726 212.853 186.554 212.83L185.906 212.719ZM198.17 216.398V212.28C198.17 212.159 198.175 212.027 198.184 211.883C198.193 211.739 198.207 211.592 198.226 211.444L194.589 216.398H198.17ZM200.769 216.398V217.108C200.769 217.183 200.746 217.245 200.699 217.297C200.658 217.348 200.59 217.373 200.497 217.373H199.257V220H198.17V217.373H193.739C193.646 217.373 193.564 217.348 193.495 217.297C193.43 217.241 193.388 217.173 193.369 217.094L193.244 216.46L198.1 210.015H199.257V216.398H200.769Z" fill="black"/>
<path d="M996.651 212.822C996.785 212.822 996.892 212.862 996.971 212.941C997.05 213.02 997.09 213.122 997.09 213.247V214H990.428V213.575C990.428 213.487 990.447 213.396 990.484 213.303C990.521 213.21 990.579 213.124 990.658 213.045L993.857 209.833C994.121 209.564 994.363 209.306 994.581 209.06C994.8 208.809 994.985 208.558 995.139 208.307C995.292 208.057 995.41 207.803 995.494 207.548C995.578 207.288 995.619 207.011 995.619 206.719C995.619 206.426 995.573 206.171 995.48 205.952C995.387 205.729 995.259 205.546 995.097 205.402C994.939 205.258 994.751 205.151 994.532 205.081C994.314 205.007 994.08 204.97 993.829 204.97C993.573 204.97 993.339 205.007 993.125 205.081C992.911 205.156 992.721 205.26 992.554 205.395C992.391 205.525 992.254 205.681 992.142 205.862C992.031 206.043 991.952 206.243 991.906 206.461C991.85 206.623 991.773 206.733 991.676 206.788C991.583 206.839 991.45 206.853 991.278 206.83L990.63 206.719C990.696 206.263 990.821 205.862 991.007 205.513C991.197 205.16 991.434 204.865 991.717 204.628C992.005 204.391 992.333 204.213 992.7 204.092C993.067 203.966 993.464 203.904 993.891 203.904C994.314 203.904 994.709 203.966 995.076 204.092C995.443 204.217 995.761 204.401 996.03 204.642C996.3 204.879 996.511 205.17 996.665 205.513C996.818 205.857 996.894 206.247 996.894 206.684C996.894 207.055 996.839 207.402 996.727 207.722C996.616 208.038 996.465 208.34 996.274 208.628C996.084 208.916 995.863 209.197 995.612 209.471C995.366 209.745 995.104 210.021 994.825 210.3L992.191 212.99C992.377 212.939 992.565 212.899 992.756 212.871C992.946 212.839 993.13 212.822 993.306 212.822H996.651ZM1002.94 210.398V206.28C1002.94 206.159 1002.95 206.027 1002.96 205.883C1002.97 205.739 1002.98 205.592 1003 205.444L999.362 210.398H1002.94ZM1005.54 210.398V211.108C1005.54 211.183 1005.52 211.245 1005.47 211.297C1005.43 211.348 1005.36 211.373 1005.27 211.373H1004.03V214H1002.94V211.373H998.512C998.419 211.373 998.338 211.348 998.268 211.297C998.203 211.241 998.161 211.173 998.143 211.094L998.017 210.46L1002.87 204.015H1004.03V210.398H1005.54Z" fill="black"/>
<path d="M996.867 259.149V260.097H991.515V259.149H993.654V252.342C993.654 252.137 993.661 251.93 993.675 251.721L991.899 253.247C991.838 253.298 991.778 253.331 991.717 253.345C991.657 253.354 991.601 253.354 991.55 253.345C991.499 253.336 991.45 253.317 991.404 253.289C991.362 253.261 991.33 253.231 991.306 253.199L990.916 252.662L993.891 250.091H994.902V259.149H996.867ZM1000.38 253.881C1000.9 253.77 1001.38 253.714 1001.81 253.714C1002.34 253.714 1002.79 253.791 1003.19 253.944C1003.59 254.097 1003.93 254.309 1004.19 254.578C1004.46 254.848 1004.66 255.166 1004.8 255.533C1004.94 255.9 1005.01 256.299 1005.01 256.731C1005.01 257.261 1004.91 257.739 1004.73 258.167C1004.55 258.594 1004.29 258.961 1003.97 259.268C1003.65 259.569 1003.27 259.802 1002.83 259.964C1002.4 260.127 1001.92 260.208 1001.42 260.208C1001.12 260.208 1000.84 260.178 1000.57 260.118C1000.31 260.062 1000.05 259.985 999.815 259.888C999.583 259.79 999.367 259.679 999.167 259.553C998.967 259.428 998.791 259.295 998.637 259.156L999.021 258.626C999.104 258.506 999.213 258.445 999.348 258.445C999.441 258.445 999.546 258.482 999.662 258.557C999.778 258.626 999.92 258.705 1000.09 258.794C1000.25 258.882 1000.45 258.963 1000.67 259.038C1000.9 259.107 1001.17 259.142 1001.48 259.142C1001.83 259.142 1002.14 259.086 1002.42 258.975C1002.7 258.863 1002.94 258.705 1003.14 258.501C1003.34 258.292 1003.49 258.044 1003.6 257.756C1003.71 257.468 1003.76 257.145 1003.76 256.787C1003.76 256.476 1003.71 256.195 1003.62 255.944C1003.53 255.693 1003.39 255.479 1003.21 255.303C1003.03 255.126 1002.8 254.989 1002.53 254.892C1002.25 254.794 1001.93 254.745 1001.56 254.745C1001.31 254.745 1001.05 254.766 1000.78 254.808C1000.51 254.85 1000.23 254.917 999.947 255.01L999.167 254.78L999.968 250.112H1004.7V250.655C1004.7 250.832 1004.64 250.978 1004.53 251.094C1004.43 251.206 1004.24 251.262 1003.97 251.262H1000.84L1000.38 253.881Z" fill="black"/>
<path d="M990.679 302.46C990.744 302.005 990.87 301.603 991.056 301.255C991.241 300.902 991.476 300.607 991.759 300.37C992.047 300.133 992.375 299.954 992.742 299.834C993.113 299.708 993.513 299.645 993.94 299.645C994.363 299.645 994.753 299.706 995.111 299.827C995.468 299.947 995.775 300.119 996.03 300.342C996.291 300.565 996.493 300.835 996.637 301.15C996.781 301.466 996.853 301.817 996.853 302.203C996.853 302.518 996.811 302.802 996.727 303.053C996.648 303.299 996.532 303.515 996.379 303.701C996.23 303.886 996.049 304.044 995.835 304.174C995.622 304.305 995.382 304.411 995.118 304.495C995.768 304.662 996.256 304.95 996.581 305.359C996.911 305.763 997.076 306.269 997.076 306.878C997.076 307.338 996.987 307.751 996.811 308.118C996.639 308.485 996.402 308.799 996.1 309.059C995.798 309.314 995.445 309.512 995.041 309.651C994.642 309.786 994.212 309.853 993.752 309.853C993.222 309.853 992.77 309.788 992.393 309.658C992.017 309.523 991.699 309.34 991.439 309.108C991.179 308.875 990.965 308.601 990.798 308.285C990.63 307.965 990.489 307.619 990.373 307.247L990.909 307.024C991.049 306.964 991.183 306.948 991.313 306.976C991.448 307.003 991.546 307.08 991.606 307.205C991.666 307.336 991.741 307.491 991.829 307.672C991.922 307.853 992.047 308.028 992.205 308.195C992.363 308.362 992.563 308.504 992.804 308.62C993.051 308.736 993.362 308.794 993.738 308.794C994.086 308.794 994.391 308.738 994.651 308.627C994.916 308.511 995.134 308.362 995.306 308.181C995.482 308 995.615 307.798 995.703 307.575C995.791 307.352 995.835 307.131 995.835 306.913C995.835 306.643 995.801 306.397 995.731 306.174C995.661 305.951 995.531 305.758 995.341 305.596C995.15 305.433 994.888 305.306 994.553 305.213C994.224 305.12 993.798 305.073 993.278 305.073V304.174C993.706 304.17 994.068 304.123 994.365 304.035C994.667 303.947 994.911 303.826 995.097 303.673C995.287 303.52 995.424 303.336 995.508 303.122C995.596 302.909 995.64 302.672 995.64 302.412C995.64 302.124 995.594 301.873 995.501 301.659C995.413 301.445 995.29 301.269 995.132 301.13C994.974 300.99 994.786 300.886 994.567 300.816C994.354 300.746 994.121 300.712 993.87 300.712C993.62 300.712 993.385 300.749 993.167 300.823C992.953 300.897 992.763 301.002 992.595 301.137C992.433 301.267 992.296 301.422 992.184 301.603C992.073 301.785 991.994 301.984 991.947 302.203C991.887 302.365 991.81 302.474 991.717 302.53C991.629 302.581 991.499 302.595 991.327 302.572L990.679 302.46ZM1005.52 304.753C1005.52 305.626 1005.43 306.383 1005.24 307.024C1005.05 307.661 1004.79 308.188 1004.47 308.606C1004.14 309.024 1003.76 309.335 1003.31 309.54C1002.87 309.744 1002.4 309.846 1001.89 309.846C1001.38 309.846 1000.9 309.744 1000.46 309.54C1000.03 309.335 999.645 309.024 999.32 308.606C998.995 308.188 998.74 307.661 998.554 307.024C998.368 306.383 998.275 305.626 998.275 304.753C998.275 303.88 998.368 303.122 998.554 302.481C998.74 301.84 998.995 301.311 999.32 300.893C999.645 300.47 1000.03 300.156 1000.46 299.952C1000.9 299.748 1001.38 299.645 1001.89 299.645C1002.4 299.645 1002.87 299.748 1003.31 299.952C1003.76 300.156 1004.14 300.47 1004.47 300.893C1004.79 301.311 1005.05 301.84 1005.24 302.481C1005.43 303.122 1005.52 303.88 1005.52 304.753ZM1004.23 304.753C1004.23 303.991 1004.17 303.352 1004.04 302.837C1003.91 302.316 1003.74 301.898 1003.52 301.582C1003.31 301.267 1003.06 301.041 1002.78 300.907C1002.49 300.767 1002.2 300.698 1001.89 300.698C1001.58 300.698 1001.29 300.767 1001.01 300.907C1000.72 301.041 1000.47 301.267 1000.26 301.582C1000.05 301.898 999.875 302.316 999.745 302.837C999.62 303.352 999.557 303.991 999.557 304.753C999.557 305.515 999.62 306.153 999.745 306.669C999.875 307.185 1000.05 307.6 1000.26 307.916C1000.47 308.232 1000.72 308.46 1001.01 308.599C1001.29 308.734 1001.58 308.801 1001.89 308.801C1002.2 308.801 1002.49 308.734 1002.78 308.599C1003.06 308.46 1003.31 308.232 1003.52 307.916C1003.74 307.6 1003.91 307.185 1004.04 306.669C1004.17 306.153 1004.23 305.515 1004.23 304.753Z" fill="black"/>
<path d="M993.801 383.887C994.135 383.887 994.437 383.833 994.707 383.727C994.981 383.62 995.213 383.471 995.403 383.281C995.598 383.09 995.747 382.865 995.849 382.605C995.956 382.345 996.01 382.061 996.01 381.755C996.01 381.43 995.958 381.137 995.856 380.877C995.754 380.612 995.608 380.389 995.417 380.208C995.232 380.022 995.009 379.88 994.748 379.783C994.488 379.685 994.203 379.637 993.891 379.637C993.557 379.637 993.255 379.695 992.986 379.811C992.716 379.922 992.486 380.076 992.296 380.271C992.11 380.461 991.966 380.684 991.864 380.94C991.766 381.19 991.717 381.453 991.717 381.727C991.717 382.047 991.764 382.34 991.857 382.605C991.95 382.87 992.084 383.097 992.261 383.288C992.442 383.478 992.66 383.627 992.916 383.734C993.176 383.836 993.471 383.887 993.801 383.887ZM993.076 378.564C992.988 378.675 992.902 378.784 992.818 378.891C992.739 378.993 992.663 379.095 992.588 379.198C992.825 379.035 993.085 378.91 993.369 378.821C993.652 378.733 993.961 378.689 994.296 378.689C994.7 378.689 995.081 378.756 995.438 378.891C995.796 379.021 996.107 379.214 996.372 379.469C996.641 379.72 996.855 380.031 997.013 380.403C997.171 380.77 997.25 381.19 997.25 381.664C997.25 382.124 997.166 382.551 996.999 382.946C996.832 383.341 996.597 383.685 996.295 383.977C995.998 384.27 995.638 384.5 995.215 384.667C994.797 384.835 994.335 384.918 993.829 384.918C993.327 384.918 992.872 384.839 992.463 384.681C992.054 384.519 991.706 384.291 991.418 383.998C991.134 383.701 990.914 383.343 990.756 382.925C990.603 382.503 990.526 382.031 990.526 381.511C990.526 381.074 990.621 380.61 990.812 380.117C991.007 379.62 991.316 379.091 991.738 378.529L994.275 375.121C994.34 375.038 994.428 374.968 994.539 374.912C994.656 374.852 994.788 374.822 994.937 374.822H996.037L993.076 378.564ZM1005.52 379.818C1005.52 380.691 1005.43 381.448 1005.24 382.089C1005.05 382.726 1004.79 383.253 1004.47 383.671C1004.14 384.089 1003.76 384.4 1003.31 384.605C1002.87 384.809 1002.4 384.911 1001.89 384.911C1001.38 384.911 1000.9 384.809 1000.46 384.605C1000.03 384.4 999.645 384.089 999.32 383.671C998.995 383.253 998.74 382.726 998.554 382.089C998.368 381.448 998.275 380.691 998.275 379.818C998.275 378.944 998.368 378.187 998.554 377.546C998.74 376.905 998.995 376.376 999.32 375.958C999.645 375.535 1000.03 375.221 1000.46 375.017C1000.9 374.813 1001.38 374.71 1001.89 374.71C1002.4 374.71 1002.87 374.813 1003.31 375.017C1003.76 375.221 1004.14 375.535 1004.47 375.958C1004.79 376.376 1005.05 376.905 1005.24 377.546C1005.43 378.187 1005.52 378.944 1005.52 379.818ZM1004.23 379.818C1004.23 379.056 1004.17 378.417 1004.04 377.902C1003.91 377.381 1003.74 376.963 1003.52 376.647C1003.31 376.332 1003.06 376.106 1002.78 375.972C1002.49 375.832 1002.2 375.763 1001.89 375.763C1001.58 375.763 1001.29 375.832 1001.01 375.972C1000.72 376.106 1000.47 376.332 1000.26 376.647C1000.05 376.963 999.875 377.381 999.745 377.902C999.62 378.417 999.557 379.056 999.557 379.818C999.557 380.58 999.62 381.218 999.745 381.734C999.875 382.249 1000.05 382.665 1000.26 382.981C1000.47 383.297 1000.72 383.525 1001.01 383.664C1001.29 383.799 1001.58 383.866 1001.89 383.866C1002.2 383.866 1002.49 383.799 1002.78 383.664C1003.06 383.525 1003.31 383.297 1003.52 382.981C1003.74 382.665 1003.91 382.249 1004.04 381.734C1004.17 381.218 1004.23 380.58 1004.23 379.818Z" fill="black"/>
<path d="M791.642 472.041C791.707 471.586 791.832 471.184 792.018 470.836C792.204 470.483 792.438 470.188 792.722 469.951C793.01 469.714 793.337 469.535 793.704 469.415C794.076 469.289 794.475 469.226 794.902 469.226C795.325 469.226 795.715 469.287 796.073 469.408C796.431 469.528 796.737 469.7 796.993 469.923C797.253 470.146 797.455 470.416 797.599 470.732C797.743 471.047 797.815 471.398 797.815 471.784C797.815 472.1 797.773 472.383 797.69 472.634C797.611 472.88 797.494 473.096 797.341 473.282C797.192 473.468 797.011 473.625 796.798 473.756C796.584 473.886 796.345 473.992 796.08 474.076C796.73 474.243 797.218 474.531 797.543 474.94C797.873 475.344 798.038 475.85 798.038 476.459C798.038 476.919 797.95 477.332 797.773 477.699C797.601 478.066 797.364 478.38 797.062 478.64C796.76 478.895 796.407 479.093 796.003 479.232C795.604 479.367 795.174 479.434 794.714 479.434C794.185 479.434 793.732 479.369 793.356 479.239C792.979 479.104 792.661 478.921 792.401 478.689C792.141 478.456 791.927 478.182 791.76 477.866C791.593 477.546 791.451 477.2 791.335 476.828L791.871 476.605C792.011 476.545 792.146 476.529 792.276 476.557C792.41 476.584 792.508 476.661 792.568 476.786C792.629 476.917 792.703 477.072 792.791 477.253C792.884 477.434 793.01 477.609 793.167 477.776C793.325 477.943 793.525 478.085 793.767 478.201C794.013 478.317 794.324 478.375 794.7 478.375C795.049 478.375 795.353 478.319 795.613 478.208C795.878 478.092 796.096 477.943 796.268 477.762C796.445 477.581 796.577 477.379 796.665 477.156C796.754 476.933 796.798 476.712 796.798 476.494C796.798 476.224 796.763 475.978 796.693 475.755C796.623 475.532 796.493 475.34 796.303 475.177C796.112 475.014 795.85 474.887 795.516 474.794C795.186 474.701 794.761 474.654 794.24 474.654V473.756C794.668 473.751 795.03 473.704 795.327 473.616C795.629 473.528 795.873 473.407 796.059 473.254C796.25 473.101 796.387 472.917 796.47 472.703C796.558 472.49 796.603 472.253 796.603 471.993C796.603 471.705 796.556 471.454 796.463 471.24C796.375 471.026 796.252 470.85 796.094 470.711C795.936 470.571 795.748 470.467 795.53 470.397C795.316 470.327 795.084 470.293 794.833 470.293C794.582 470.293 794.347 470.33 794.129 470.404C793.915 470.478 793.725 470.583 793.558 470.718C793.395 470.848 793.258 471.003 793.147 471.184C793.035 471.366 792.956 471.565 792.91 471.784C792.849 471.946 792.773 472.055 792.68 472.111C792.591 472.162 792.461 472.176 792.29 472.153L791.642 472.041ZM801.049 477.623C801.277 477.929 801.525 478.145 801.795 478.271C802.064 478.396 802.366 478.459 802.7 478.459C803.36 478.459 803.866 478.224 804.219 477.755C804.572 477.286 804.749 476.617 804.749 475.748C804.749 475.288 804.707 474.894 804.623 474.564C804.545 474.234 804.428 473.965 804.275 473.756C804.122 473.542 803.934 473.386 803.711 473.289C803.488 473.191 803.235 473.142 802.951 473.142C802.547 473.142 802.192 473.235 801.885 473.421C801.583 473.607 801.305 473.869 801.049 474.208V477.623ZM800.986 473.358C801.284 472.991 801.627 472.696 802.018 472.473C802.408 472.25 802.854 472.139 803.355 472.139C803.764 472.139 804.133 472.218 804.463 472.376C804.793 472.529 805.074 472.759 805.306 473.066C805.539 473.368 805.717 473.744 805.843 474.194C805.968 474.645 806.031 475.163 806.031 475.748C806.031 476.269 805.961 476.754 805.822 477.205C805.683 477.65 805.481 478.038 805.216 478.368C804.956 478.693 804.635 478.951 804.254 479.142C803.878 479.327 803.453 479.42 802.979 479.42C802.547 479.42 802.175 479.348 801.864 479.204C801.558 479.056 801.286 478.851 801.049 478.591V481.713H799.802V472.264H800.547C800.724 472.264 800.833 472.35 800.875 472.522L800.986 473.358ZM813.138 479.323H811.947C811.845 479.323 811.763 479.297 811.703 479.246C811.647 479.19 811.601 479.13 811.564 479.065L809.787 476.299C809.768 476.364 809.747 476.429 809.724 476.494C809.706 476.554 809.678 476.61 809.64 476.661L807.996 479.065C807.95 479.13 807.899 479.19 807.843 479.246C807.792 479.297 807.72 479.323 807.627 479.323H806.519L808.992 475.7L806.616 472.264H807.808C807.91 472.264 807.984 472.281 808.031 472.313C808.077 472.346 808.119 472.392 808.156 472.453L809.891 475.1C809.928 474.966 809.987 474.836 810.066 474.71L811.584 472.48C811.626 472.415 811.67 472.364 811.717 472.327C811.768 472.285 811.828 472.264 811.898 472.264H813.041L810.665 475.637L813.138 479.323ZM821.958 473.428C821.902 473.53 821.816 473.581 821.7 473.581C821.631 473.581 821.552 473.556 821.463 473.505C821.375 473.454 821.266 473.398 821.136 473.337C821.011 473.272 820.86 473.214 820.683 473.163C820.507 473.108 820.298 473.08 820.056 473.08C819.847 473.08 819.659 473.108 819.492 473.163C819.324 473.214 819.18 473.286 819.06 473.379C818.943 473.472 818.853 473.581 818.788 473.707C818.727 473.828 818.697 473.96 818.697 474.104C818.697 474.285 818.748 474.436 818.851 474.557C818.957 474.678 819.097 474.782 819.269 474.87C819.44 474.959 819.636 475.038 819.854 475.107C820.072 475.172 820.295 475.244 820.523 475.323C820.755 475.398 820.98 475.481 821.199 475.574C821.417 475.667 821.612 475.783 821.784 475.922C821.956 476.062 822.093 476.234 822.195 476.438C822.302 476.638 822.355 476.879 822.355 477.163C822.355 477.488 822.297 477.79 822.181 478.069C822.065 478.343 821.893 478.582 821.666 478.786C821.438 478.986 821.159 479.144 820.829 479.26C820.5 479.376 820.119 479.434 819.687 479.434C819.194 479.434 818.748 479.355 818.349 479.197C817.949 479.035 817.61 478.828 817.332 478.577L817.624 478.103C817.661 478.043 817.706 477.997 817.757 477.964C817.808 477.932 817.873 477.915 817.952 477.915C818.035 477.915 818.124 477.948 818.216 478.013C818.309 478.078 818.421 478.15 818.551 478.229C818.686 478.308 818.848 478.38 819.039 478.445C819.229 478.51 819.466 478.542 819.749 478.542C819.991 478.542 820.202 478.512 820.383 478.452C820.565 478.387 820.716 478.301 820.836 478.194C820.957 478.087 821.045 477.964 821.101 477.825C821.162 477.685 821.192 477.537 821.192 477.379C821.192 477.184 821.138 477.023 821.031 476.898C820.929 476.768 820.792 476.659 820.62 476.57C820.448 476.478 820.251 476.399 820.028 476.334C819.81 476.264 819.584 476.192 819.352 476.118C819.125 476.043 818.899 475.96 818.676 475.867C818.458 475.769 818.263 475.648 818.091 475.504C817.919 475.36 817.78 475.184 817.673 474.975C817.571 474.761 817.52 474.503 817.52 474.201C817.52 473.932 817.575 473.674 817.687 473.428C817.798 473.177 817.961 472.959 818.175 472.773C818.388 472.583 818.651 472.432 818.962 472.32C819.273 472.209 819.629 472.153 820.028 472.153C820.493 472.153 820.908 472.227 821.275 472.376C821.647 472.52 821.967 472.72 822.237 472.975L821.958 473.428ZM825.123 477.623C825.351 477.929 825.599 478.145 825.869 478.271C826.138 478.396 826.44 478.459 826.774 478.459C827.434 478.459 827.94 478.224 828.293 477.755C828.646 477.286 828.823 476.617 828.823 475.748C828.823 475.288 828.781 474.894 828.698 474.564C828.619 474.234 828.502 473.965 828.349 473.756C828.196 473.542 828.008 473.386 827.785 473.289C827.562 473.191 827.309 473.142 827.025 473.142C826.621 473.142 826.266 473.235 825.959 473.421C825.657 473.607 825.379 473.869 825.123 474.208V477.623ZM825.06 473.358C825.358 472.991 825.701 472.696 826.092 472.473C826.482 472.25 826.928 472.139 827.429 472.139C827.838 472.139 828.208 472.218 828.537 472.376C828.867 472.529 829.148 472.759 829.38 473.066C829.613 473.368 829.792 473.744 829.917 474.194C830.042 474.645 830.105 475.163 830.105 475.748C830.105 476.269 830.035 476.754 829.896 477.205C829.757 477.65 829.555 478.038 829.29 478.368C829.03 478.693 828.709 478.951 828.328 479.142C827.952 479.327 827.527 479.42 827.053 479.42C826.621 479.42 826.25 479.348 825.938 479.204C825.632 479.056 825.36 478.851 825.123 478.591V481.713H823.876V472.264H824.621C824.798 472.264 824.907 472.35 824.949 472.522L825.06 473.358ZM835.513 476.145C834.941 476.164 834.454 476.21 834.049 476.285C833.65 476.354 833.323 476.447 833.067 476.564C832.816 476.68 832.633 476.817 832.517 476.975C832.405 477.133 832.349 477.309 832.349 477.504C832.349 477.69 832.38 477.85 832.44 477.985C832.5 478.12 832.582 478.231 832.684 478.319C832.791 478.403 832.914 478.466 833.053 478.508C833.197 478.545 833.35 478.563 833.513 478.563C833.731 478.563 833.931 478.542 834.112 478.501C834.293 478.454 834.463 478.389 834.621 478.305C834.783 478.222 834.937 478.122 835.081 478.006C835.229 477.89 835.373 477.757 835.513 477.609V476.145ZM831.506 473.261C831.896 472.885 832.317 472.604 832.767 472.418C833.218 472.232 833.717 472.139 834.265 472.139C834.66 472.139 835.011 472.204 835.318 472.334C835.624 472.464 835.882 472.645 836.091 472.878C836.3 473.11 836.458 473.391 836.565 473.721C836.672 474.05 836.725 474.413 836.725 474.808V479.323H836.175C836.054 479.323 835.961 479.304 835.896 479.267C835.831 479.225 835.78 479.146 835.743 479.03L835.603 478.361C835.417 478.533 835.236 478.686 835.06 478.821C834.883 478.951 834.697 479.063 834.502 479.156C834.307 479.244 834.098 479.311 833.875 479.358C833.657 479.409 833.413 479.434 833.144 479.434C832.87 479.434 832.612 479.397 832.37 479.323C832.129 479.244 831.917 479.128 831.736 478.974C831.56 478.821 831.418 478.628 831.311 478.396C831.209 478.159 831.158 477.88 831.158 477.56C831.158 477.281 831.235 477.014 831.388 476.759C831.541 476.498 831.79 476.269 832.133 476.069C832.477 475.869 832.925 475.706 833.478 475.581C834.031 475.451 834.709 475.377 835.513 475.358V474.808C835.513 474.26 835.394 473.846 835.157 473.567C834.92 473.284 834.574 473.142 834.119 473.142C833.813 473.142 833.555 473.182 833.346 473.261C833.141 473.335 832.963 473.421 832.809 473.519C832.661 473.612 832.531 473.697 832.419 473.776C832.312 473.851 832.205 473.888 832.099 473.888C832.015 473.888 831.943 473.867 831.883 473.825C831.822 473.779 831.771 473.723 831.729 473.658L831.506 473.261ZM845.069 479.323H843.828V473.303H840.191V477.539C840.191 477.836 840.263 478.057 840.407 478.201C840.551 478.345 840.737 478.417 840.965 478.417C841.095 478.417 841.206 478.401 841.299 478.368C841.397 478.331 841.48 478.292 841.55 478.25C841.62 478.208 841.678 478.171 841.724 478.138C841.775 478.101 841.819 478.082 841.857 478.082C841.922 478.082 841.98 478.122 842.031 478.201L842.393 478.793C842.179 478.993 841.922 479.151 841.62 479.267C841.318 479.378 841.007 479.434 840.686 479.434C840.129 479.434 839.699 479.279 839.397 478.967C839.1 478.656 838.951 478.208 838.951 477.623V473.303H838.101C838.027 473.303 837.964 473.282 837.913 473.24C837.862 473.193 837.836 473.124 837.836 473.031V472.536L838.993 472.383L839.279 470.209C839.292 470.139 839.323 470.084 839.369 470.042C839.42 469.995 839.485 469.972 839.564 469.972H840.191V472.404H845.069V479.323ZM845.375 470C845.375 470.121 845.35 470.234 845.299 470.341C845.252 470.444 845.187 470.534 845.104 470.613C845.025 470.692 844.932 470.755 844.825 470.801C844.718 470.848 844.604 470.871 844.483 470.871C844.363 470.871 844.249 470.848 844.142 470.801C844.04 470.755 843.949 470.692 843.87 470.613C843.791 470.534 843.729 470.444 843.682 470.341C843.636 470.234 843.612 470.121 843.612 470C843.612 469.879 843.636 469.765 843.682 469.658C843.729 469.547 843.791 469.452 843.87 469.373C843.949 469.289 844.04 469.224 844.142 469.178C844.249 469.131 844.363 469.108 844.483 469.108C844.604 469.108 844.718 469.131 844.825 469.178C844.932 469.224 845.025 469.289 845.104 469.373C845.187 469.452 845.252 469.547 845.299 469.658C845.35 469.765 845.375 469.879 845.375 470ZM850.932 476.145C850.36 476.164 849.872 476.21 849.468 476.285C849.069 476.354 848.741 476.447 848.486 476.564C848.235 476.68 848.052 476.817 847.935 476.975C847.824 477.133 847.768 477.309 847.768 477.504C847.768 477.69 847.798 477.85 847.859 477.985C847.919 478.12 848 478.231 848.103 478.319C848.209 478.403 848.333 478.466 848.472 478.508C848.616 478.545 848.769 478.563 848.932 478.563C849.15 478.563 849.35 478.542 849.531 478.501C849.712 478.454 849.882 478.389 850.04 478.305C850.202 478.222 850.356 478.122 850.5 478.006C850.648 477.89 850.792 477.757 850.932 477.609V476.145ZM846.925 473.261C847.315 472.885 847.736 472.604 848.186 472.418C848.637 472.232 849.136 472.139 849.684 472.139C850.079 472.139 850.43 472.204 850.736 472.334C851.043 472.464 851.301 472.645 851.51 472.878C851.719 473.11 851.877 473.391 851.984 473.721C852.091 474.05 852.144 474.413 852.144 474.808V479.323H851.593C851.473 479.323 851.38 479.304 851.315 479.267C851.25 479.225 851.199 479.146 851.161 479.03L851.022 478.361C850.836 478.533 850.655 478.686 850.479 478.821C850.302 478.951 850.116 479.063 849.921 479.156C849.726 479.244 849.517 479.311 849.294 479.358C849.076 479.409 848.832 479.434 848.563 479.434C848.288 479.434 848.031 479.397 847.789 479.323C847.548 479.244 847.336 479.128 847.155 478.974C846.979 478.821 846.837 478.628 846.73 478.396C846.628 478.159 846.577 477.88 846.577 477.56C846.577 477.281 846.653 477.014 846.807 476.759C846.96 476.498 847.208 476.269 847.552 476.069C847.896 475.869 848.344 475.706 848.897 475.581C849.45 475.451 850.128 475.377 850.932 475.358V474.808C850.932 474.26 850.813 473.846 850.576 473.567C850.339 473.284 849.993 473.142 849.538 473.142C849.231 473.142 848.974 473.182 848.765 473.261C848.56 473.335 848.381 473.421 848.228 473.519C848.079 473.612 847.949 473.697 847.838 473.776C847.731 473.851 847.624 473.888 847.517 473.888C847.434 473.888 847.362 473.867 847.301 473.825C847.241 473.779 847.19 473.723 847.148 473.658L846.925 473.261ZM855.315 469.059V479.323H854.075V469.059H855.315ZM865.003 473.428C864.947 473.53 864.861 473.581 864.745 473.581C864.676 473.581 864.597 473.556 864.508 473.505C864.42 473.454 864.311 473.398 864.181 473.337C864.055 473.272 863.904 473.214 863.728 473.163C863.551 473.108 863.342 473.08 863.101 473.08C862.892 473.08 862.704 473.108 862.536 473.163C862.369 473.214 862.225 473.286 862.104 473.379C861.988 473.472 861.898 473.581 861.833 473.707C861.772 473.828 861.742 473.96 861.742 474.104C861.742 474.285 861.793 474.436 861.895 474.557C862.002 474.678 862.142 474.782 862.313 474.87C862.485 474.959 862.68 475.038 862.899 475.107C863.117 475.172 863.34 475.244 863.568 475.323C863.8 475.398 864.025 475.481 864.244 475.574C864.462 475.667 864.657 475.783 864.829 475.922C865.001 476.062 865.138 476.234 865.24 476.438C865.347 476.638 865.4 476.879 865.4 477.163C865.4 477.488 865.342 477.79 865.226 478.069C865.11 478.343 864.938 478.582 864.71 478.786C864.483 478.986 864.204 479.144 863.874 479.26C863.544 479.376 863.164 479.434 862.732 479.434C862.239 479.434 861.793 479.355 861.394 479.197C860.994 479.035 860.655 478.828 860.376 478.577L860.669 478.103C860.706 478.043 860.75 477.997 860.801 477.964C860.853 477.932 860.918 477.915 860.997 477.915C861.08 477.915 861.168 477.948 861.261 478.013C861.354 478.078 861.466 478.15 861.596 478.229C861.73 478.308 861.893 478.38 862.084 478.445C862.274 478.51 862.511 478.542 862.794 478.542C863.036 478.542 863.247 478.512 863.428 478.452C863.609 478.387 863.76 478.301 863.881 478.194C864.002 478.087 864.09 477.964 864.146 477.825C864.206 477.685 864.237 477.537 864.237 477.379C864.237 477.184 864.183 477.023 864.076 476.898C863.974 476.768 863.837 476.659 863.665 476.57C863.493 476.478 863.296 476.399 863.073 476.334C862.855 476.264 862.629 476.192 862.397 476.118C862.169 476.043 861.944 475.96 861.721 475.867C861.503 475.769 861.308 475.648 861.136 475.504C860.964 475.36 860.825 475.184 860.718 474.975C860.616 474.761 860.565 474.503 860.565 474.201C860.565 473.932 860.62 473.674 860.732 473.428C860.843 473.177 861.006 472.959 861.22 472.773C861.433 472.583 861.696 472.432 862.007 472.32C862.318 472.209 862.673 472.153 863.073 472.153C863.537 472.153 863.953 472.227 864.32 472.376C864.692 472.52 865.012 472.72 865.282 472.975L865.003 473.428ZM872.888 472.264L868.951 481.406C868.91 481.499 868.856 481.573 868.791 481.629C868.731 481.685 868.635 481.713 868.505 481.713H867.586L868.875 478.912L865.962 472.264H867.035C867.142 472.264 867.226 472.292 867.286 472.348C867.351 472.399 867.395 472.457 867.418 472.522L869.307 476.968C869.381 477.163 869.444 477.367 869.495 477.581C869.56 477.362 869.63 477.156 869.704 476.961L871.536 472.522C871.564 472.448 871.611 472.388 871.676 472.341C871.745 472.29 871.822 472.264 871.906 472.264H872.888ZM877.972 473.428C877.917 473.53 877.831 473.581 877.714 473.581C877.645 473.581 877.566 473.556 877.478 473.505C877.389 473.454 877.28 473.398 877.15 473.337C877.025 473.272 876.874 473.214 876.697 473.163C876.521 473.108 876.312 473.08 876.07 473.08C875.861 473.08 875.673 473.108 875.506 473.163C875.338 473.214 875.194 473.286 875.074 473.379C874.958 473.472 874.867 473.581 874.802 473.707C874.742 473.828 874.711 473.96 874.711 474.104C874.711 474.285 874.762 474.436 874.865 474.557C874.971 474.678 875.111 474.782 875.283 474.87C875.455 474.959 875.65 475.038 875.868 475.107C876.086 475.172 876.309 475.244 876.537 475.323C876.769 475.398 876.994 475.481 877.213 475.574C877.431 475.667 877.626 475.783 877.798 475.922C877.97 476.062 878.107 476.234 878.209 476.438C878.316 476.638 878.369 476.879 878.369 477.163C878.369 477.488 878.311 477.79 878.195 478.069C878.079 478.343 877.907 478.582 877.68 478.786C877.452 478.986 877.173 479.144 876.843 479.26C876.514 479.376 876.133 479.434 875.701 479.434C875.208 479.434 874.762 479.355 874.363 479.197C873.963 479.035 873.624 478.828 873.346 478.577L873.638 478.103C873.675 478.043 873.72 477.997 873.771 477.964C873.822 477.932 873.887 477.915 873.966 477.915C874.049 477.915 874.138 477.948 874.231 478.013C874.323 478.078 874.435 478.15 874.565 478.229C874.7 478.308 874.862 478.38 875.053 478.445C875.243 478.51 875.48 478.542 875.763 478.542C876.005 478.542 876.216 478.512 876.398 478.452C876.579 478.387 876.73 478.301 876.85 478.194C876.971 478.087 877.059 477.964 877.115 477.825C877.176 477.685 877.206 477.537 877.206 477.379C877.206 477.184 877.152 477.023 877.046 476.898C876.943 476.768 876.806 476.659 876.634 476.57C876.463 476.478 876.265 476.399 876.042 476.334C875.824 476.264 875.599 476.192 875.366 476.118C875.139 476.043 874.913 475.96 874.69 475.867C874.472 475.769 874.277 475.648 874.105 475.504C873.933 475.36 873.794 475.184 873.687 474.975C873.585 474.761 873.534 474.503 873.534 474.201C873.534 473.932 873.59 473.674 873.701 473.428C873.813 473.177 873.975 472.959 874.189 472.773C874.402 472.583 874.665 472.432 874.976 472.32C875.287 472.209 875.643 472.153 876.042 472.153C876.507 472.153 876.922 472.227 877.289 472.376C877.661 472.52 877.982 472.72 878.251 472.975L877.972 473.428ZM882.057 479.434C881.5 479.434 881.07 479.279 880.768 478.967C880.471 478.656 880.322 478.208 880.322 477.623V473.303H879.472C879.398 473.303 879.335 473.282 879.284 473.24C879.233 473.193 879.207 473.124 879.207 473.031V472.536L880.364 472.39L880.65 470.209C880.663 470.139 880.694 470.084 880.74 470.042C880.791 469.995 880.856 469.972 880.935 469.972H881.562V472.404H883.604V473.303H881.562V477.539C881.562 477.836 881.634 478.057 881.778 478.201C881.922 478.345 882.108 478.417 882.336 478.417C882.466 478.417 882.577 478.401 882.67 478.368C882.768 478.331 882.851 478.292 882.921 478.25C882.991 478.208 883.049 478.171 883.095 478.138C883.146 478.101 883.19 478.082 883.228 478.082C883.293 478.082 883.351 478.122 883.402 478.201L883.764 478.793C883.55 478.993 883.293 479.151 882.991 479.267C882.689 479.378 882.378 479.434 882.057 479.434ZM889.568 475.024C889.568 474.736 889.526 474.473 889.442 474.236C889.363 473.995 889.245 473.788 889.087 473.616C888.934 473.44 888.746 473.305 888.523 473.212C888.3 473.114 888.046 473.066 887.763 473.066C887.169 473.066 886.697 473.24 886.349 473.588C886.005 473.932 885.791 474.41 885.708 475.024H889.568ZM890.571 478.333C890.418 478.519 890.234 478.682 890.021 478.821C889.807 478.956 889.577 479.067 889.331 479.156C889.089 479.244 888.838 479.309 888.578 479.351C888.318 479.397 888.06 479.42 887.805 479.42C887.317 479.42 886.867 479.339 886.453 479.176C886.044 479.009 885.689 478.768 885.387 478.452C885.09 478.131 884.858 477.736 884.69 477.267C884.523 476.798 884.44 476.259 884.44 475.651C884.44 475.158 884.514 474.698 884.662 474.271C884.816 473.844 885.034 473.474 885.317 473.163C885.601 472.847 885.947 472.601 886.356 472.425C886.764 472.244 887.224 472.153 887.735 472.153C888.158 472.153 888.548 472.225 888.906 472.369C889.268 472.508 889.579 472.713 889.84 472.982C890.104 473.247 890.311 473.577 890.46 473.972C890.608 474.362 890.683 474.808 890.683 475.309C890.683 475.504 890.662 475.634 890.62 475.7C890.578 475.765 890.499 475.797 890.383 475.797H885.666C885.68 476.243 885.74 476.631 885.847 476.961C885.958 477.29 886.112 477.567 886.307 477.79C886.502 478.008 886.734 478.173 887.004 478.285C887.273 478.391 887.575 478.445 887.909 478.445C888.221 478.445 888.488 478.41 888.711 478.34C888.938 478.266 889.133 478.187 889.296 478.103C889.459 478.02 889.593 477.943 889.7 477.873C889.812 477.799 889.907 477.762 889.986 477.762C890.088 477.762 890.167 477.801 890.223 477.88L890.571 478.333ZM892.206 479.323V472.264H892.952C893.128 472.264 893.237 472.35 893.279 472.522L893.37 473.247C893.63 472.926 893.922 472.664 894.248 472.46C894.573 472.255 894.949 472.153 895.376 472.153C895.85 472.153 896.233 472.285 896.526 472.55C896.823 472.815 897.037 473.173 897.167 473.623C897.269 473.368 897.399 473.147 897.557 472.961C897.72 472.775 897.901 472.622 898.101 472.501C898.301 472.381 898.512 472.292 898.735 472.237C898.962 472.181 899.192 472.153 899.425 472.153C899.796 472.153 900.126 472.213 900.414 472.334C900.707 472.45 900.953 472.622 901.153 472.85C901.357 473.077 901.513 473.358 901.619 473.693C901.726 474.023 901.78 474.401 901.78 474.829V479.323H900.533V474.829C900.533 474.276 900.412 473.858 900.17 473.574C899.929 473.286 899.58 473.142 899.125 473.142C898.921 473.142 898.726 473.18 898.54 473.254C898.359 473.324 898.198 473.428 898.059 473.567C897.92 473.707 897.808 473.883 897.725 474.097C897.646 474.306 897.606 474.55 897.606 474.829V479.323H896.359V474.829C896.359 474.262 896.245 473.839 896.017 473.56C895.79 473.282 895.458 473.142 895.021 473.142C894.714 473.142 894.431 473.226 894.171 473.393C893.911 473.556 893.672 473.779 893.453 474.062V479.323H892.206Z" fill="black"/>
<path d="M293.171 469.338V479.323H292.495C292.388 479.323 292.298 479.304 292.223 479.267C292.154 479.23 292.084 479.167 292.014 479.079L286.238 471.554C286.247 471.67 286.254 471.784 286.259 471.895C286.264 472.007 286.266 472.111 286.266 472.209V479.323H285.081V469.338H285.778C285.839 469.338 285.89 469.343 285.931 469.352C285.973 469.357 286.01 469.368 286.043 469.387C286.075 469.401 286.108 469.424 286.141 469.456C286.173 469.484 286.208 469.521 286.245 469.568L292.021 477.086C292.012 476.965 292.003 476.849 291.993 476.738C291.989 476.622 291.986 476.512 291.986 476.41V469.338H293.171ZM298.188 472.153C298.704 472.153 299.169 472.239 299.582 472.411C299.995 472.583 300.348 472.826 300.641 473.142C300.934 473.458 301.157 473.841 301.31 474.292C301.468 474.738 301.547 475.237 301.547 475.79C301.547 476.348 301.468 476.849 301.31 477.295C301.157 477.741 300.934 478.122 300.641 478.438C300.348 478.754 299.995 478.998 299.582 479.169C299.169 479.337 298.704 479.42 298.188 479.42C297.668 479.42 297.199 479.337 296.781 479.169C296.367 478.998 296.014 478.754 295.722 478.438C295.429 478.122 295.204 477.741 295.046 477.295C294.893 476.849 294.816 476.348 294.816 475.79C294.816 475.237 294.893 474.738 295.046 474.292C295.204 473.841 295.429 473.458 295.722 473.142C296.014 472.826 296.367 472.583 296.781 472.411C297.199 472.239 297.668 472.153 298.188 472.153ZM298.188 478.452C298.885 478.452 299.405 478.22 299.749 477.755C300.093 477.286 300.265 476.633 300.265 475.797C300.265 474.956 300.093 474.301 299.749 473.832C299.405 473.363 298.885 473.128 298.188 473.128C297.835 473.128 297.526 473.189 297.262 473.31C297.002 473.43 296.783 473.605 296.607 473.832C296.435 474.06 296.305 474.341 296.217 474.675C296.133 475.005 296.091 475.379 296.091 475.797C296.091 476.633 296.263 477.286 296.607 477.755C296.955 478.22 297.482 478.452 298.188 478.452ZM311.598 473.519C311.561 473.57 311.523 473.609 311.486 473.637C311.449 473.665 311.398 473.679 311.333 473.679C311.263 473.679 311.187 473.651 311.103 473.595C311.019 473.535 310.915 473.47 310.789 473.4C310.669 473.33 310.518 473.268 310.337 473.212C310.16 473.152 309.942 473.121 309.682 473.121C309.333 473.121 309.027 473.184 308.762 473.31C308.497 473.43 308.274 473.607 308.093 473.839C307.916 474.071 307.782 474.352 307.689 474.682C307.601 475.012 307.556 475.381 307.556 475.79C307.556 476.217 307.605 476.598 307.703 476.933C307.8 477.263 307.937 477.541 308.114 477.769C308.295 477.992 308.511 478.164 308.762 478.285C309.017 478.401 309.303 478.459 309.619 478.459C309.921 478.459 310.169 478.424 310.364 478.354C310.56 478.28 310.72 478.199 310.845 478.11C310.975 478.022 311.082 477.943 311.166 477.873C311.254 477.799 311.34 477.762 311.424 477.762C311.526 477.762 311.605 477.801 311.66 477.88L312.009 478.333C311.856 478.524 311.681 478.686 311.486 478.821C311.291 478.956 311.08 479.07 310.852 479.162C310.629 479.251 310.395 479.316 310.148 479.358C309.902 479.399 309.651 479.42 309.396 479.42C308.955 479.42 308.544 479.339 308.163 479.176C307.786 479.014 307.459 478.779 307.18 478.473C306.901 478.161 306.683 477.781 306.525 477.33C306.367 476.879 306.288 476.366 306.288 475.79C306.288 475.265 306.36 474.78 306.504 474.334C306.653 473.888 306.867 473.505 307.145 473.184C307.429 472.859 307.775 472.606 308.184 472.425C308.597 472.244 309.071 472.153 309.605 472.153C310.102 472.153 310.539 472.234 310.915 472.397C311.296 472.555 311.633 472.78 311.925 473.073L311.598 473.519ZM314.622 469.059V479.323H313.382V469.059H314.622ZM321.358 475.024C321.358 474.736 321.316 474.473 321.232 474.236C321.153 473.995 321.035 473.788 320.877 473.616C320.724 473.44 320.535 473.305 320.313 473.212C320.09 473.114 319.836 473.066 319.553 473.066C318.958 473.066 318.487 473.24 318.139 473.588C317.795 473.932 317.581 474.41 317.498 475.024H321.358ZM322.361 478.333C322.208 478.519 322.024 478.682 321.811 478.821C321.597 478.956 321.367 479.067 321.121 479.156C320.879 479.244 320.628 479.309 320.368 479.351C320.108 479.397 319.85 479.42 319.595 479.42C319.107 479.42 318.657 479.339 318.243 479.176C317.834 479.009 317.479 478.768 317.177 478.452C316.88 478.131 316.647 477.736 316.48 477.267C316.313 476.798 316.229 476.259 316.229 475.651C316.229 475.158 316.304 474.698 316.452 474.271C316.606 473.844 316.824 473.474 317.107 473.163C317.391 472.847 317.737 472.601 318.146 472.425C318.554 472.244 319.014 472.153 319.525 472.153C319.948 472.153 320.338 472.225 320.696 472.369C321.058 472.508 321.369 472.713 321.629 472.982C321.894 473.247 322.101 473.577 322.25 473.972C322.398 474.362 322.473 474.808 322.473 475.309C322.473 475.504 322.452 475.634 322.41 475.7C322.368 475.765 322.289 475.797 322.173 475.797H317.456C317.47 476.243 317.53 476.631 317.637 476.961C317.748 477.29 317.902 477.567 318.097 477.79C318.292 478.008 318.524 478.173 318.794 478.285C319.063 478.391 319.365 478.445 319.699 478.445C320.011 478.445 320.278 478.41 320.501 478.34C320.728 478.266 320.923 478.187 321.086 478.103C321.249 478.02 321.383 477.943 321.49 477.873C321.602 477.799 321.697 477.762 321.776 477.762C321.878 477.762 321.957 477.801 322.013 477.88L322.361 478.333ZM327.821 476.145C327.25 476.164 326.762 476.21 326.358 476.285C325.959 476.354 325.631 476.447 325.376 476.564C325.125 476.68 324.941 476.817 324.825 476.975C324.714 477.133 324.658 477.309 324.658 477.504C324.658 477.69 324.688 477.85 324.748 477.985C324.809 478.12 324.89 478.231 324.992 478.319C325.099 478.403 325.222 478.466 325.362 478.508C325.506 478.545 325.659 478.563 325.821 478.563C326.04 478.563 326.24 478.542 326.421 478.501C326.602 478.454 326.771 478.389 326.929 478.305C327.092 478.222 327.245 478.122 327.389 478.006C327.538 477.89 327.682 477.757 327.821 477.609V476.145ZM323.815 473.261C324.205 472.885 324.625 472.604 325.076 472.418C325.527 472.232 326.026 472.139 326.574 472.139C326.969 472.139 327.32 472.204 327.626 472.334C327.933 472.464 328.191 472.645 328.4 472.878C328.609 473.11 328.767 473.391 328.873 473.721C328.98 474.05 329.034 474.413 329.034 474.808V479.323H328.483C328.362 479.323 328.269 479.304 328.204 479.267C328.139 479.225 328.088 479.146 328.051 479.03L327.912 478.361C327.726 478.533 327.545 478.686 327.368 478.821C327.192 478.951 327.006 479.063 326.811 479.156C326.616 479.244 326.407 479.311 326.184 479.358C325.965 479.409 325.722 479.434 325.452 479.434C325.178 479.434 324.92 479.397 324.679 479.323C324.437 479.244 324.226 479.128 324.045 478.974C323.868 478.821 323.727 478.628 323.62 478.396C323.517 478.159 323.466 477.88 323.466 477.56C323.466 477.281 323.543 477.014 323.696 476.759C323.85 476.498 324.098 476.269 324.442 476.069C324.786 475.869 325.234 475.706 325.787 475.581C326.339 475.451 327.018 475.377 327.821 475.358V474.808C327.821 474.26 327.703 473.846 327.466 473.567C327.229 473.284 326.883 473.142 326.428 473.142C326.121 473.142 325.863 473.182 325.654 473.261C325.45 473.335 325.271 473.421 325.118 473.519C324.969 473.612 324.839 473.697 324.728 473.776C324.621 473.851 324.514 473.888 324.407 473.888C324.323 473.888 324.251 473.867 324.191 473.825C324.131 473.779 324.08 473.723 324.038 473.658L323.815 473.261ZM332.1 473.679C332.323 473.196 332.597 472.82 332.923 472.55C333.248 472.276 333.645 472.139 334.114 472.139C334.263 472.139 334.404 472.155 334.539 472.188C334.678 472.22 334.802 472.271 334.908 472.341L334.818 473.268C334.79 473.384 334.72 473.442 334.609 473.442C334.544 473.442 334.449 473.428 334.323 473.4C334.198 473.372 334.056 473.358 333.898 473.358C333.675 473.358 333.475 473.391 333.299 473.456C333.127 473.521 332.971 473.618 332.832 473.749C332.697 473.874 332.574 474.032 332.463 474.222C332.356 474.408 332.258 474.622 332.17 474.863V479.323H330.923V472.264H331.634C331.768 472.264 331.861 472.29 331.912 472.341C331.963 472.392 331.998 472.48 332.017 472.606L332.1 473.679ZM344.973 472.264L342.095 479.323H340.98L338.103 472.264H339.113C339.215 472.264 339.299 472.29 339.364 472.341C339.429 472.392 339.473 472.453 339.496 472.522L341.287 477.065C341.343 477.237 341.391 477.404 341.433 477.567C341.475 477.729 341.515 477.892 341.552 478.055C341.589 477.892 341.628 477.729 341.67 477.567C341.712 477.404 341.763 477.237 341.823 477.065L343.635 472.522C343.663 472.448 343.709 472.388 343.774 472.341C343.839 472.29 343.916 472.264 344.004 472.264H344.973ZM350.644 475.024C350.644 474.736 350.602 474.473 350.519 474.236C350.44 473.995 350.321 473.788 350.163 473.616C350.01 473.44 349.822 473.305 349.599 473.212C349.376 473.114 349.123 473.066 348.839 473.066C348.245 473.066 347.773 473.24 347.425 473.588C347.081 473.932 346.867 474.41 346.784 475.024H350.644ZM351.647 478.333C351.494 478.519 351.311 478.682 351.097 478.821C350.883 478.956 350.653 479.067 350.407 479.156C350.166 479.244 349.915 479.309 349.655 479.351C349.394 479.397 349.137 479.42 348.881 479.42C348.393 479.42 347.943 479.339 347.529 479.176C347.121 479.009 346.765 478.768 346.463 478.452C346.166 478.131 345.934 477.736 345.767 477.267C345.599 476.798 345.516 476.259 345.516 475.651C345.516 475.158 345.59 474.698 345.739 474.271C345.892 473.844 346.11 473.474 346.394 473.163C346.677 472.847 347.023 472.601 347.432 472.425C347.841 472.244 348.3 472.153 348.811 472.153C349.234 472.153 349.624 472.225 349.982 472.369C350.344 472.508 350.656 472.713 350.916 472.982C351.18 473.247 351.387 473.577 351.536 473.972C351.684 474.362 351.759 474.808 351.759 475.309C351.759 475.504 351.738 475.634 351.696 475.7C351.654 475.765 351.575 475.797 351.459 475.797H346.742C346.756 476.243 346.816 476.631 346.923 476.961C347.035 477.29 347.188 477.567 347.383 477.79C347.578 478.008 347.81 478.173 348.08 478.285C348.349 478.391 348.651 478.445 348.986 478.445C349.297 478.445 349.564 478.41 349.787 478.34C350.015 478.266 350.21 478.187 350.372 478.103C350.535 478.02 350.67 477.943 350.776 477.873C350.888 477.799 350.983 477.762 351.062 477.762C351.164 477.762 351.243 477.801 351.299 477.88L351.647 478.333ZM354.46 473.679C354.683 473.196 354.957 472.82 355.282 472.55C355.607 472.276 356.004 472.139 356.473 472.139C356.622 472.139 356.764 472.155 356.898 472.188C357.038 472.22 357.161 472.271 357.268 472.341L357.177 473.268C357.149 473.384 357.08 473.442 356.968 473.442C356.903 473.442 356.808 473.428 356.682 473.4C356.557 473.372 356.415 473.358 356.257 473.358C356.034 473.358 355.835 473.391 355.658 473.456C355.486 473.521 355.331 473.618 355.191 473.749C355.057 473.874 354.934 474.032 354.822 474.222C354.715 474.408 354.618 474.622 354.529 474.863V479.323H353.282V472.264H353.993C354.128 472.264 354.221 472.29 354.272 472.341C354.323 472.392 354.358 472.48 354.376 472.606L354.46 473.679ZM364.908 479.323H363.668V473.303H360.031V477.539C360.031 477.836 360.103 478.057 360.247 478.201C360.391 478.345 360.576 478.417 360.804 478.417C360.934 478.417 361.046 478.401 361.138 478.368C361.236 478.331 361.32 478.292 361.389 478.25C361.459 478.208 361.517 478.171 361.563 478.138C361.615 478.101 361.659 478.082 361.696 478.082C361.761 478.082 361.819 478.122 361.87 478.201L362.232 478.793C362.019 478.993 361.761 479.151 361.459 479.267C361.157 479.378 360.846 479.434 360.525 479.434C359.968 479.434 359.538 479.279 359.236 478.967C358.939 478.656 358.79 478.208 358.79 477.623V473.303H357.94C357.866 473.303 357.803 473.282 357.752 473.24C357.701 473.193 357.675 473.124 357.675 473.031V472.536L358.832 472.383L359.118 470.209C359.132 470.139 359.162 470.084 359.208 470.042C359.259 469.995 359.325 469.972 359.403 469.972H360.031V472.404H364.908V479.323ZM365.215 470C365.215 470.121 365.189 470.234 365.138 470.341C365.091 470.444 365.026 470.534 364.943 470.613C364.864 470.692 364.771 470.755 364.664 470.801C364.557 470.848 364.443 470.871 364.323 470.871C364.202 470.871 364.088 470.848 363.981 470.801C363.879 470.755 363.789 470.692 363.71 470.613C363.631 470.534 363.568 470.444 363.521 470.341C363.475 470.234 363.452 470.121 363.452 470C363.452 469.879 363.475 469.765 363.521 469.658C363.568 469.547 363.631 469.452 363.71 469.373C363.789 469.289 363.879 469.224 363.981 469.178C364.088 469.131 364.202 469.108 364.323 469.108C364.443 469.108 364.557 469.131 364.664 469.178C364.771 469.224 364.864 469.289 364.943 469.373C365.026 469.452 365.091 469.547 365.138 469.658C365.189 469.765 365.215 469.879 365.215 470ZM371.858 473.519C371.821 473.57 371.783 473.609 371.746 473.637C371.709 473.665 371.658 473.679 371.593 473.679C371.523 473.679 371.447 473.651 371.363 473.595C371.279 473.535 371.175 473.47 371.05 473.4C370.929 473.33 370.778 473.268 370.597 473.212C370.42 473.152 370.202 473.121 369.942 473.121C369.593 473.121 369.287 473.184 369.022 473.31C368.757 473.43 368.534 473.607 368.353 473.839C368.177 474.071 368.042 474.352 367.949 474.682C367.861 475.012 367.817 475.381 367.817 475.79C367.817 476.217 367.865 476.598 367.963 476.933C368.06 477.263 368.197 477.541 368.374 477.769C368.555 477.992 368.771 478.164 369.022 478.285C369.277 478.401 369.563 478.459 369.879 478.459C370.181 478.459 370.429 478.424 370.625 478.354C370.82 478.28 370.98 478.199 371.105 478.11C371.235 478.022 371.342 477.943 371.426 477.873C371.514 477.799 371.6 477.762 371.684 477.762C371.786 477.762 371.865 477.801 371.921 477.88L372.269 478.333C372.116 478.524 371.941 478.686 371.746 478.821C371.551 478.956 371.34 479.07 371.112 479.162C370.889 479.251 370.655 479.316 370.409 479.358C370.162 479.399 369.911 479.42 369.656 479.42C369.215 479.42 368.804 479.339 368.423 479.176C368.046 479.014 367.719 478.779 367.44 478.473C367.162 478.161 366.943 477.781 366.785 477.33C366.627 476.879 366.548 476.366 366.548 475.79C366.548 475.265 366.62 474.78 366.764 474.334C366.913 473.888 367.127 473.505 367.405 473.184C367.689 472.859 368.035 472.606 368.444 472.425C368.857 472.244 369.331 472.153 369.865 472.153C370.362 472.153 370.799 472.234 371.175 472.397C371.556 472.555 371.893 472.78 372.185 473.073L371.858 473.519ZM377.426 476.145C376.854 476.164 376.366 476.21 375.962 476.285C375.563 476.354 375.235 476.447 374.98 476.564C374.729 476.68 374.546 476.817 374.429 476.975C374.318 477.133 374.262 477.309 374.262 477.504C374.262 477.69 374.292 477.85 374.353 477.985C374.413 478.12 374.494 478.231 374.597 478.319C374.703 478.403 374.827 478.466 374.966 478.508C375.11 478.545 375.263 478.563 375.426 478.563C375.644 478.563 375.844 478.542 376.025 478.501C376.206 478.454 376.376 478.389 376.534 478.305C376.696 478.222 376.85 478.122 376.994 478.006C377.142 477.89 377.286 477.757 377.426 477.609V476.145ZM373.419 473.261C373.809 472.885 374.23 472.604 374.68 472.418C375.131 472.232 375.63 472.139 376.178 472.139C376.573 472.139 376.924 472.204 377.23 472.334C377.537 472.464 377.795 472.645 378.004 472.878C378.213 473.11 378.371 473.391 378.478 473.721C378.585 474.05 378.638 474.413 378.638 474.808V479.323H378.087C377.967 479.323 377.874 479.304 377.809 479.267C377.744 479.225 377.693 479.146 377.655 479.03L377.516 478.361C377.33 478.533 377.149 478.686 376.973 478.821C376.796 478.951 376.61 479.063 376.415 479.156C376.22 479.244 376.011 479.311 375.788 479.358C375.57 479.409 375.326 479.434 375.057 479.434C374.782 479.434 374.525 479.397 374.283 479.323C374.042 479.244 373.83 479.128 373.649 478.974C373.473 478.821 373.331 478.628 373.224 478.396C373.122 478.159 373.071 477.88 373.071 477.56C373.071 477.281 373.147 477.014 373.301 476.759C373.454 476.498 373.702 476.269 374.046 476.069C374.39 475.869 374.838 475.706 375.391 475.581C375.944 475.451 376.622 475.377 377.426 475.358V474.808C377.426 474.26 377.307 473.846 377.07 473.567C376.833 473.284 376.487 473.142 376.032 473.142C375.725 473.142 375.468 473.182 375.259 473.261C375.054 473.335 374.875 473.421 374.722 473.519C374.573 473.612 374.443 473.697 374.332 473.776C374.225 473.851 374.118 473.888 374.011 473.888C373.928 473.888 373.856 473.867 373.795 473.825C373.735 473.779 373.684 473.723 373.642 473.658L373.419 473.261ZM381.809 469.059V479.323H380.569V469.059H381.809ZM388.564 473.679C388.787 473.196 389.061 472.82 389.386 472.55C389.711 472.276 390.108 472.139 390.577 472.139C390.726 472.139 390.868 472.155 391.002 472.188C391.142 472.22 391.265 472.271 391.372 472.341L391.281 473.268C391.253 473.384 391.183 473.442 391.072 473.442C391.007 473.442 390.912 473.428 390.786 473.4C390.661 473.372 390.519 473.358 390.361 473.358C390.138 473.358 389.939 473.391 389.762 473.456C389.59 473.521 389.435 473.618 389.295 473.749C389.161 473.874 389.037 474.032 388.926 474.222C388.819 474.408 388.722 474.622 388.633 474.863V479.323H387.386V472.264H388.097C388.231 472.264 388.324 472.29 388.375 472.341C388.427 472.392 388.461 472.48 388.48 472.606L388.564 473.679ZM393.709 473.205C394.011 472.885 394.346 472.629 394.713 472.439C395.08 472.248 395.502 472.153 395.981 472.153C396.366 472.153 396.706 472.218 396.998 472.348C397.295 472.473 397.542 472.655 397.737 472.892C397.936 473.124 398.087 473.405 398.19 473.735C398.292 474.064 398.343 474.429 398.343 474.829V479.323H397.096V474.829C397.096 474.294 396.973 473.881 396.726 473.588C396.485 473.291 396.116 473.142 395.619 473.142C395.252 473.142 394.908 473.231 394.587 473.407C394.271 473.584 393.979 473.823 393.709 474.125V479.323H392.462V469.059H393.709V473.205ZM406.146 472.264L402.209 481.406C402.167 481.499 402.114 481.573 402.049 481.629C401.988 481.685 401.893 481.713 401.763 481.713H400.843L402.132 478.912L399.22 472.264H400.293C400.4 472.264 400.483 472.292 400.544 472.348C400.609 472.399 400.653 472.457 400.676 472.522L402.564 476.968C402.639 477.163 402.701 477.367 402.752 477.581C402.817 477.362 402.887 477.156 402.961 476.961L404.794 472.522C404.822 472.448 404.868 472.388 404.933 472.341C405.003 472.29 405.08 472.264 405.163 472.264H406.146ZM409.408 479.434C408.851 479.434 408.421 479.279 408.119 478.967C407.822 478.656 407.673 478.208 407.673 477.623V473.303H406.823C406.749 473.303 406.686 473.282 406.635 473.24C406.584 473.193 406.559 473.124 406.559 473.031V472.536L407.715 472.39L408.001 470.209C408.015 470.139 408.045 470.084 408.091 470.042C408.143 469.995 408.208 469.972 408.287 469.972H408.914V472.404H410.955V473.303H408.914V477.539C408.914 477.836 408.986 478.057 409.13 478.201C409.274 478.345 409.459 478.417 409.687 478.417C409.817 478.417 409.929 478.401 410.022 478.368C410.119 478.331 410.203 478.292 410.272 478.25C410.342 478.208 410.4 478.171 410.447 478.138C410.498 478.101 410.542 478.082 410.579 478.082C410.644 478.082 410.702 478.122 410.753 478.201L411.115 478.793C410.902 478.993 410.644 479.151 410.342 479.267C410.04 479.378 409.729 479.434 409.408 479.434ZM413.483 473.205C413.785 472.885 414.119 472.629 414.486 472.439C414.853 472.248 415.276 472.153 415.755 472.153C416.14 472.153 416.479 472.218 416.772 472.348C417.069 472.473 417.315 472.655 417.51 472.892C417.71 473.124 417.861 473.405 417.963 473.735C418.066 474.064 418.117 474.429 418.117 474.829V479.323H416.869V474.829C416.869 474.294 416.746 473.881 416.5 473.588C416.259 473.291 415.889 473.142 415.392 473.142C415.025 473.142 414.682 473.231 414.361 473.407C414.045 473.584 413.752 473.823 413.483 474.125V479.323H412.236V469.059H413.483V473.205ZM420.007 479.323V472.264H420.752C420.929 472.264 421.038 472.35 421.08 472.522L421.17 473.247C421.43 472.926 421.723 472.664 422.048 472.46C422.373 472.255 422.749 472.153 423.177 472.153C423.651 472.153 424.034 472.285 424.327 472.55C424.624 472.815 424.837 473.173 424.968 473.623C425.07 473.368 425.2 473.147 425.358 472.961C425.52 472.775 425.701 472.622 425.901 472.501C426.101 472.381 426.312 472.292 426.535 472.237C426.763 472.181 426.993 472.153 427.225 472.153C427.597 472.153 427.927 472.213 428.215 472.334C428.507 472.45 428.753 472.622 428.953 472.85C429.157 473.077 429.313 473.358 429.42 473.693C429.527 474.023 429.58 474.401 429.58 474.829V479.323H428.333V474.829C428.333 474.276 428.212 473.858 427.971 473.574C427.729 473.286 427.381 473.142 426.925 473.142C426.721 473.142 426.526 473.18 426.34 473.254C426.159 473.324 425.999 473.428 425.859 473.567C425.72 473.707 425.609 473.883 425.525 474.097C425.446 474.306 425.407 474.55 425.407 474.829V479.323H424.159V474.829C424.159 474.262 424.045 473.839 423.818 473.56C423.59 473.282 423.258 473.142 422.821 473.142C422.515 473.142 422.232 473.226 421.971 473.393C421.711 473.556 421.472 473.779 421.254 474.062V479.323H420.007Z" fill="black"/>
<path d="M191.877 271.564C192.012 271.564 192.119 271.604 192.198 271.683C192.277 271.762 192.316 271.864 192.316 271.989V272.742H185.655V272.317C185.655 272.228 185.674 272.138 185.711 272.045C185.748 271.952 185.806 271.866 185.885 271.787L189.083 268.575C189.348 268.306 189.589 268.048 189.808 267.802C190.026 267.551 190.212 267.3 190.365 267.049C190.518 266.798 190.637 266.545 190.721 266.29C190.804 266.029 190.846 265.753 190.846 265.46C190.846 265.168 190.799 264.912 190.707 264.694C190.614 264.471 190.486 264.288 190.323 264.144C190.165 264 189.977 263.893 189.759 263.823C189.541 263.749 189.306 263.712 189.055 263.712C188.8 263.712 188.565 263.749 188.351 263.823C188.138 263.897 187.947 264.002 187.78 264.137C187.618 264.267 187.481 264.422 187.369 264.603C187.258 264.785 187.179 264.984 187.132 265.203C187.076 265.365 187 265.474 186.902 265.53C186.809 265.581 186.677 265.595 186.505 265.572L185.857 265.46C185.922 265.005 186.047 264.603 186.233 264.255C186.424 263.902 186.661 263.607 186.944 263.37C187.232 263.133 187.559 262.954 187.926 262.834C188.293 262.708 188.691 262.645 189.118 262.645C189.541 262.645 189.935 262.708 190.302 262.834C190.669 262.959 190.988 263.142 191.257 263.384C191.526 263.621 191.738 263.911 191.891 264.255C192.044 264.599 192.121 264.989 192.121 265.426C192.121 265.797 192.065 266.143 191.954 266.464C191.842 266.78 191.691 267.082 191.501 267.37C191.31 267.658 191.09 267.939 190.839 268.213C190.593 268.487 190.33 268.763 190.052 269.042L187.418 271.731C187.604 271.68 187.792 271.641 187.982 271.613C188.173 271.58 188.356 271.564 188.533 271.564H191.877ZM195.056 265.69C195.056 266.006 195.1 266.29 195.188 266.54C195.281 266.787 195.411 266.996 195.578 267.168C195.75 267.339 195.957 267.469 196.198 267.558C196.444 267.646 196.719 267.69 197.02 267.69C197.355 267.69 197.65 267.637 197.905 267.53C198.165 267.418 198.384 267.272 198.56 267.091C198.737 266.91 198.872 266.701 198.964 266.464C199.057 266.227 199.104 265.981 199.104 265.725C199.104 265.414 199.053 265.133 198.951 264.882C198.853 264.627 198.716 264.411 198.539 264.234C198.363 264.058 198.152 263.923 197.905 263.83C197.664 263.732 197.397 263.684 197.104 263.684C196.797 263.684 196.519 263.735 196.268 263.837C196.017 263.934 195.801 264.072 195.62 264.248C195.439 264.425 195.299 264.636 195.202 264.882C195.104 265.128 195.056 265.398 195.056 265.69ZM197.954 268.763C198.056 268.628 198.152 268.501 198.24 268.38C198.328 268.259 198.412 268.138 198.491 268.018C198.235 268.222 197.947 268.378 197.627 268.484C197.306 268.591 196.967 268.645 196.609 268.645C196.233 268.645 195.875 268.582 195.536 268.457C195.202 268.331 194.907 268.148 194.651 267.906C194.396 267.66 194.192 267.36 194.038 267.007C193.89 266.65 193.815 266.241 193.815 265.781C193.815 265.344 193.897 264.936 194.059 264.555C194.222 264.174 194.449 263.842 194.742 263.558C195.035 263.275 195.383 263.052 195.787 262.889C196.191 262.727 196.635 262.645 197.118 262.645C197.596 262.645 198.031 262.724 198.421 262.882C198.811 263.04 199.146 263.261 199.424 263.544C199.703 263.828 199.917 264.167 200.065 264.562C200.219 264.956 200.295 265.393 200.295 265.872C200.295 266.16 200.267 266.434 200.212 266.694C200.161 266.949 200.084 267.202 199.982 267.453C199.884 267.699 199.763 267.946 199.619 268.192C199.475 268.433 199.313 268.682 199.132 268.937L196.7 272.449C196.64 272.537 196.554 272.609 196.442 272.665C196.331 272.716 196.203 272.742 196.059 272.742H194.916L197.954 268.763Z" fill="black"/>
<path d="M190.086 321.946V317.828C190.086 317.707 190.091 317.575 190.1 317.431C190.11 317.287 190.124 317.141 190.142 316.992L186.505 321.946H190.086ZM192.685 321.946V322.657C192.685 322.731 192.662 322.794 192.616 322.845C192.574 322.896 192.507 322.922 192.414 322.922H191.173V325.548H190.086V322.922H185.655C185.562 322.922 185.481 322.896 185.411 322.845C185.346 322.789 185.304 322.722 185.286 322.643L185.16 322.009L190.017 315.564H191.173V321.946H192.685ZM197.125 324.67C197.45 324.67 197.74 324.626 197.996 324.538C198.256 324.445 198.474 324.317 198.651 324.155C198.832 323.988 198.969 323.79 199.062 323.563C199.16 323.33 199.208 323.075 199.208 322.796C199.208 322.452 199.15 322.16 199.034 321.918C198.923 321.672 198.769 321.472 198.574 321.319C198.384 321.166 198.163 321.054 197.912 320.984C197.661 320.91 197.399 320.873 197.125 320.873C196.851 320.873 196.588 320.91 196.338 320.984C196.087 321.054 195.864 321.166 195.669 321.319C195.478 321.472 195.325 321.672 195.209 321.918C195.097 322.16 195.042 322.452 195.042 322.796C195.042 323.075 195.088 323.33 195.181 323.563C195.279 323.79 195.416 323.988 195.592 324.155C195.773 324.317 195.992 324.445 196.247 324.538C196.507 324.626 196.8 324.67 197.125 324.67ZM197.125 316.414C196.828 316.414 196.565 316.458 196.338 316.546C196.115 316.634 195.927 316.755 195.773 316.908C195.625 317.062 195.511 317.24 195.432 317.445C195.357 317.649 195.32 317.868 195.32 318.1C195.32 318.327 195.353 318.548 195.418 318.762C195.483 318.975 195.587 319.166 195.731 319.333C195.875 319.496 196.061 319.628 196.289 319.73C196.521 319.828 196.8 319.877 197.125 319.877C197.45 319.877 197.727 319.828 197.954 319.73C198.186 319.628 198.375 319.496 198.519 319.333C198.663 319.166 198.767 318.975 198.832 318.762C198.897 318.548 198.93 318.327 198.93 318.1C198.93 317.868 198.89 317.649 198.811 317.445C198.737 317.24 198.623 317.062 198.47 316.908C198.321 316.755 198.133 316.634 197.905 316.546C197.682 316.458 197.422 316.414 197.125 316.414ZM198.553 320.343C199.176 320.52 199.654 320.815 199.989 321.228C200.323 321.642 200.49 322.171 200.49 322.817C200.49 323.254 200.407 323.648 200.24 324.002C200.077 324.35 199.847 324.647 199.55 324.893C199.257 325.14 198.904 325.33 198.491 325.465C198.077 325.595 197.622 325.66 197.125 325.66C196.628 325.66 196.173 325.595 195.759 325.465C195.346 325.33 194.991 325.14 194.693 324.893C194.396 324.647 194.166 324.35 194.003 324.002C193.841 323.648 193.76 323.254 193.76 322.817C193.76 322.171 193.927 321.642 194.261 321.228C194.596 320.815 195.074 320.52 195.697 320.343C195.172 320.148 194.775 319.858 194.505 319.472C194.24 319.082 194.108 318.618 194.108 318.079C194.108 317.712 194.18 317.368 194.324 317.048C194.468 316.727 194.672 316.448 194.937 316.212C195.202 315.975 195.518 315.789 195.885 315.654C196.256 315.519 196.67 315.452 197.125 315.452C197.576 315.452 197.987 315.519 198.358 315.654C198.73 315.789 199.048 315.975 199.313 316.212C199.578 316.448 199.782 316.727 199.926 317.048C200.07 317.368 200.142 317.712 200.142 318.079C200.142 318.618 200.007 319.082 199.738 319.472C199.473 319.858 199.078 320.148 198.553 320.343Z" fill="black"/>
<path d="M190.086 402.075V397.957C190.086 397.836 190.091 397.704 190.1 397.56C190.11 397.416 190.124 397.27 190.142 397.121L186.505 402.075H190.086ZM192.685 402.075V402.786C192.685 402.86 192.662 402.923 192.616 402.974C192.574 403.025 192.507 403.05 192.414 403.05H191.173V405.677H190.086V403.05H185.655C185.562 403.05 185.481 403.025 185.411 402.974C185.346 402.918 185.304 402.851 185.286 402.772L185.16 402.138L190.017 395.692H191.173V402.075H192.685ZM197.125 404.799C197.45 404.799 197.74 404.755 197.996 404.667C198.256 404.574 198.474 404.446 198.651 404.284C198.832 404.116 198.969 403.919 199.062 403.691C199.16 403.459 199.208 403.204 199.208 402.925C199.208 402.581 199.15 402.289 199.034 402.047C198.923 401.801 198.769 401.601 198.574 401.448C198.384 401.295 198.163 401.183 197.912 401.113C197.661 401.039 197.399 401.002 197.125 401.002C196.851 401.002 196.588 401.039 196.338 401.113C196.087 401.183 195.864 401.295 195.669 401.448C195.478 401.601 195.325 401.801 195.209 402.047C195.097 402.289 195.042 402.581 195.042 402.925C195.042 403.204 195.088 403.459 195.181 403.691C195.279 403.919 195.416 404.116 195.592 404.284C195.773 404.446 195.992 404.574 196.247 404.667C196.507 404.755 196.8 404.799 197.125 404.799ZM197.125 396.543C196.828 396.543 196.565 396.587 196.338 396.675C196.115 396.763 195.927 396.884 195.773 397.037C195.625 397.191 195.511 397.369 195.432 397.574C195.357 397.778 195.32 397.996 195.32 398.229C195.32 398.456 195.353 398.677 195.418 398.891C195.483 399.104 195.587 399.295 195.731 399.462C195.875 399.625 196.061 399.757 196.289 399.859C196.521 399.957 196.8 400.006 197.125 400.006C197.45 400.006 197.727 399.957 197.954 399.859C198.186 399.757 198.375 399.625 198.519 399.462C198.663 399.295 198.767 399.104 198.832 398.891C198.897 398.677 198.93 398.456 198.93 398.229C198.93 397.996 198.89 397.778 198.811 397.574C198.737 397.369 198.623 397.191 198.47 397.037C198.321 396.884 198.133 396.763 197.905 396.675C197.682 396.587 197.422 396.543 197.125 396.543ZM198.553 400.472C199.176 400.649 199.654 400.944 199.989 401.357C200.323 401.771 200.49 402.3 200.49 402.946C200.49 403.383 200.407 403.777 200.24 404.13C200.077 404.479 199.847 404.776 199.55 405.022C199.257 405.268 198.904 405.459 198.491 405.594C198.077 405.724 197.622 405.789 197.125 405.789C196.628 405.789 196.173 405.724 195.759 405.594C195.346 405.459 194.991 405.268 194.693 405.022C194.396 404.776 194.166 404.479 194.003 404.13C193.841 403.777 193.76 403.383 193.76 402.946C193.76 402.3 193.927 401.771 194.261 401.357C194.596 400.944 195.074 400.649 195.697 400.472C195.172 400.277 194.775 399.987 194.505 399.601C194.24 399.211 194.108 398.747 194.108 398.208C194.108 397.841 194.18 397.497 194.324 397.177C194.468 396.856 194.672 396.577 194.937 396.34C195.202 396.104 195.518 395.918 195.885 395.783C196.256 395.648 196.67 395.581 197.125 395.581C197.576 395.581 197.987 395.648 198.358 395.783C198.73 395.918 199.048 396.104 199.313 396.34C199.578 396.577 199.782 396.856 199.926 397.177C200.07 397.497 200.142 397.841 200.142 398.208C200.142 398.747 200.007 399.211 199.738 399.601C199.473 399.987 199.078 400.277 198.553 400.472Z" fill="black"/>
</svg>
